SplineFontDB: 3.2
FontName: AtkinsonSlashfree-Bold
FullName: Atkinson Slashfree Bold
FamilyName: Atkinson Slashfree
Weight: Bold
Copyright: (c) 2020 Braille Institute of America, Inc., a 501(c)(3) Charitable Organization.
Version: 1
ItalicAngle: 0
UnderlinePosition: -100
UnderlineWidth: 50
Ascent: 800
Descent: 200
InvalidEm: 0
sfntRevision: 0x00010000
LayerCount: 2
Layer: 0 1 "Back" 1
Layer: 1 1 "Fore" 0
XUID: [1021 801 -1858554247 11740]
StyleMap: 0x0020
FSType: 0
OS2Version: 3
OS2_WeightWidthSlopeOnly: 0
OS2_UseTypoMetrics: 0
CreationTime: 1546336848
ModificationTime: 1702590299
PfmFamily: 81
TTFWeight: 700
TTFWidth: 5
LineGap: 0
VLineGap: 0
Panose: 0 0 0 0 0 0 0 0 0 0
OS2TypoAscent: 796
OS2TypoAOffset: 0
OS2TypoDescent: -251
OS2TypoDOffset: 0
OS2TypoLinegap: 150
OS2WinAscent: 996
OS2WinAOffset: 0
OS2WinDescent: 411
OS2WinDOffset: 0
HheadAscent: 796
HheadAOffset: 0
HheadDescent: -251
HheadDOffset: 0
OS2SubXSize: 650
OS2SubYSize: 600
OS2SubXOff: 0
OS2SubYOff: 75
OS2SupXSize: 650
OS2SupYSize: 600
OS2SupXOff: 0
OS2SupYOff: 350
OS2StrikeYSize: 49
OS2StrikeYPos: 258
OS2CapHeight: 668
OS2XHeight: 496
OS2Vendor: '    '
OS2CodePages: 20000083.00000000
OS2UnicodeRanges: 00000027.00000000.00000000.00000000
Lookup: 1 0 0 "Single Substitution lookup 0" { "Single Substitution lookup 0 subtable"  } []
Lookup: 1 0 0 "'case' Case-Sensitive Forms lookup 1" { "'case' Case-Sensitive Forms lookup 1 subtable"  } ['case' ('DFLT' <'dflt' > 'grek' <'dflt' > 'latn' <'dflt' > ) ]
Lookup: 4 0 0 "'frac' Diagonal Fractions lookup 2" { "'frac' Diagonal Fractions lookup 2 subtable"  } ['frac' ('DFLT' <'dflt' > 'grek' <'dflt' > 'latn' <'dflt' > ) ]
Lookup: 6 0 0 "'ordn' Ordinals lookup 3" { "'ordn' Ordinals lookup 3 contextual 0"  "'ordn' Ordinals lookup 3 contextual 1"  } ['ordn' ('DFLT' <'dflt' > 'grek' <'dflt' > 'latn' <'dflt' > ) ]

StartChar: .notdef
Encoding: 65536 -1 0
Width: 527
GlyphClass: 1
Flags: W
LayerCount: 2
Fore
SplineSet
50 700 m 1,0,-1
 477 700 l 1,1,-1
 477 0 l 1,2,-1
 50 0 l 1,3,-1
 50 700 l 1,0,-1
449 680 m 1,4,-1
 78 680 l 1,5,-1
 263 371 l 1,6,-1
 449 680 l 1,4,-1
457 652 m 1,7,-1
 276 350 l 1,8,-1
 457 47 l 1,9,-1
 457 652 l 1,7,-1
251 350 m 1,10,-1
 71 650 l 1,11,-1
 71 49 l 1,12,-1
 251 350 l 1,10,-1
449 21 m 1,13,-1
 264 329 l 1,14,-1
 79 21 l 1,15,-1
 449 21 l 1,13,-1
EndSplineSet
Validated: 1
EndChar

StartChar: zero
Encoding: 48 48 4
Width: 652
GlyphClass: 1
Flags: W
LayerCount: 2
Back
SplineSet
331 101 m 5,21,22
 381 101 381 101 412 139 c 5,23,-1
 209 431 l 5,24,25
 205 410 205 410 203 386.5 c 132,-1,26
 201 363 201 363 201 335 c 4,27,28
 201 214 201 214 237 157.5 c 132,-1,29
 273 101 273 101 331 101 c 5,30,-1
 331 101 l 5,21,22
455 246 m 5,31,32
 461 285 461 285 461 334 c 4,33,34
 461 456 461 456 425.5 511.5 c 132,-1,35
 390 567 390 567 331 567 c 4,36,37
 286 567 286 567 254 534 c 5,38,-1
 455 246 l 5,39,-1
 455 246 l 5,31,32
EndSplineSet
Fore
SplineSet
461 335 m 0,0,1
 461 567 461 567 332 567 c 24,2,3
 201 567 201 567 201 335 c 24,4,5
 201 101 201 101 332 101 c 0,6,7
 461 101 461 101 461 335 c 0,0,1
45 335 m 1,8,9
 45 415 45 415 63.5 479 c 128,-1,10
 82 543 82 543 118 587.5 c 128,-1,11
 154 632 154 632 207.5 656 c 128,-1,12
 261 680 261 680 331 680 c 0,13,14
 402 680 402 680 455.5 656 c 128,-1,15
 509 632 509 632 545 587.5 c 128,-1,16
 581 543 581 543 599.5 479 c 128,-1,17
 618 415 618 415 618 335 c 256,18,19
 618 255 618 255 599.5 191 c 128,-1,20
 581 127 581 127 545 82 c 128,-1,21
 509 37 509 37 455.5 12.5 c 128,-1,22
 402 -12 402 -12 331 -12 c 0,23,24
 261 -12 261 -12 207.5 12.5 c 128,-1,25
 154 37 154 37 118 82 c 128,-1,26
 82 127 82 127 63.5 191 c 128,-1,27
 45 255 45 255 45 335 c 1,28,-1
 45 335 l 1,8,9
EndSplineSet
Validated: 5
Substitution2: "'tnum' Tabular Numbers lookup 6 subtable" zero.tf
EndChar

StartChar: one
Encoding: 49 49 5
AltUni2: 00e920.ffffffff.0 00e920.ffffffff.0
Width: 448
GlyphClass: 1
Flags: W
LayerCount: 2
Fore
SplineSet
47 448 m 1,0,-1
 47 571 l 1,1,2
 86 571 86 571 115.5 573.5 c 128,-1,3
 145 576 145 576 167 586 c 128,-1,4
 189 596 189 596 205.5 615 c 128,-1,5
 222 634 222 634 235 668 c 1,6,-1
 350 668 l 1,7,-1
 350 0 l 1,8,-1
 199 0 l 1,9,-1
 199 448 l 1,10,-1
 47 448 l 1,11,-1
 47 448 l 1,0,-1
EndSplineSet
Validated: 5
Substitution2: "'tnum' Tabular Numbers lookup 6 subtable" one.tf
Substitution2: "'sups' Superscript lookup 5 subtable" uni00B9
EndChar

StartChar: two
Encoding: 50 50 6
Width: 586
GlyphClass: 1
Flags: W
LayerCount: 2
Fore
SplineSet
34 0 m 1,0,-1
 34 125 l 1,1,-1
 77 156 l 2,2,3
 105 176 105 176 139.5 200.5 c 128,-1,4
 174 225 174 225 209 252.5 c 128,-1,5
 244 280 244 280 276.5 309.5 c 128,-1,6
 309 339 309 339 334.5 369.5 c 128,-1,7
 360 400 360 400 375.5 430 c 128,-1,8
 391 460 391 460 391 488 c 0,9,10
 391 527 391 527 363.5 547 c 128,-1,11
 336 567 336 567 299 567 c 0,12,13
 283 567 283 567 267.5 563 c 128,-1,14
 252 559 252 559 238 549.5 c 128,-1,15
 224 540 224 540 213.5 524 c 128,-1,16
 203 508 203 508 197 485 c 1,17,-1
 59 535 l 1,18,19
 86 605 86 605 151.5 642.5 c 128,-1,20
 217 680 217 680 306 680 c 0,21,22
 357 680 357 680 400.5 667 c 128,-1,23
 444 654 444 654 476 629.5 c 128,-1,24
 508 605 508 605 526 568.5 c 128,-1,25
 544 532 544 532 544 485 c 0,26,27
 544 434 544 434 522 387.5 c 128,-1,28
 500 341 500 341 459.5 297 c 128,-1,29
 419 253 419 253 360.5 210.5 c 128,-1,30
 302 168 302 168 228 125 c 1,31,-1
 547 125 l 1,32,-1
 547 0 l 1,33,-1
 34 0 l 1,34,-1
 34 0 l 1,0,-1
EndSplineSet
Validated: 5
Substitution2: "'tnum' Tabular Numbers lookup 6 subtable" two.tf
Substitution2: "'sups' Superscript lookup 5 subtable" uni00B2
EndChar

StartChar: three
Encoding: 51 51 7
Width: 605
GlyphClass: 1
Flags: W
LayerCount: 2
Fore
SplineSet
171 190 m 1,0,1
 184 141 184 141 218.5 121 c 128,-1,2
 253 101 253 101 295 101 c 0,3,4
 343 101 343 101 370.5 123.5 c 128,-1,5
 398 146 398 146 398 188 c 0,6,7
 398 219 398 219 383 239 c 128,-1,8
 368 259 368 259 342 270.5 c 128,-1,9
 316 282 316 282 282.5 286.5 c 128,-1,10
 249 291 249 291 211 291 c 1,11,-1
 211 397 l 1,12,13
 298 397 298 397 344 420.5 c 128,-1,14
 390 444 390 444 390 489 c 0,15,16
 390 509 390 509 381.5 523.5 c 128,-1,17
 373 538 373 538 358.5 547.5 c 128,-1,18
 344 557 344 557 325.5 562 c 128,-1,19
 307 567 307 567 286 567 c 0,20,21
 249 567 249 567 218 549 c 128,-1,22
 187 531 187 531 177 485 c 1,23,-1
 40 535 l 1,24,25
 55 573 55 573 81 600.5 c 128,-1,26
 107 628 107 628 141 645.5 c 128,-1,27
 175 663 175 663 214.5 671.5 c 128,-1,28
 254 680 254 680 295 680 c 0,29,30
 341 680 341 680 385.5 670 c 128,-1,31
 430 660 430 660 465 638.5 c 128,-1,32
 500 617 500 617 521.5 584.5 c 128,-1,33
 543 552 543 552 543 507 c 0,34,35
 543 480 543 480 535 456 c 128,-1,36
 527 432 527 432 514 412.5 c 128,-1,37
 501 393 501 393 484.5 377.5 c 128,-1,38
 468 362 468 362 450 352 c 1,39,40
 475 343 475 343 494 325.5 c 128,-1,41
 513 308 513 308 526.5 287 c 128,-1,42
 540 266 540 266 547 242 c 128,-1,43
 554 218 554 218 554 195 c 0,44,45
 554 143 554 143 532 104 c 128,-1,46
 510 65 510 65 473.5 39.5 c 128,-1,47
 437 14 437 14 389.5 1 c 128,-1,48
 342 -12 342 -12 291 -12 c 0,49,50
 249 -12 249 -12 209 -3 c 128,-1,51
 169 6 169 6 135 24.5 c 128,-1,52
 101 43 101 43 74.5 71.5 c 128,-1,53
 48 100 48 100 33 140 c 1,54,-1
 171 190 l 1,55,-1
 171 190 l 1,0,1
EndSplineSet
Validated: 5
Substitution2: "'tnum' Tabular Numbers lookup 6 subtable" three.tf
Substitution2: "'sups' Superscript lookup 5 subtable" uni00B3
EndChar

StartChar: four
Encoding: 52 52 8
Width: 626
GlyphClass: 1
Flags: W
LayerCount: 2
Fore
SplineSet
23 252 m 1,0,-1
 348 668 l 1,1,-1
 500 668 l 1,2,-1
 500 275 l 1,3,-1
 592 275 l 1,4,-1
 592 141 l 1,5,-1
 500 141 l 1,6,-1
 500 0 l 1,7,-1
 348 0 l 1,8,-1
 348 141 l 1,9,-1
 23 141 l 1,10,-1
 23 252 l 1,0,-1
188 275 m 1,11,-1
 348 275 l 1,12,-1
 348 469 l 1,13,-1
 188 275 l 1,11,-1
EndSplineSet
Validated: 1
Substitution2: "'tnum' Tabular Numbers lookup 6 subtable" four.tf
EndChar

StartChar: five
Encoding: 53 53 9
Width: 612
GlyphClass: 1
Flags: W
LayerCount: 2
Fore
SplineSet
41 139 m 1,0,-1
 173 187 l 1,1,2
 187 138 187 138 218.5 119.5 c 128,-1,3
 250 101 250 101 287 101 c 0,4,5
 340 101 340 101 374 131.5 c 128,-1,6
 408 162 408 162 408 221 c 0,7,8
 408 252 408 252 398.5 274.5 c 128,-1,9
 389 297 389 297 372.5 312 c 128,-1,10
 356 327 356 327 334.5 334 c 128,-1,11
 313 341 313 341 290 341 c 0,12,13
 216 341 216 341 180 276 c 1,14,-1
 45 326 l 1,15,-1
 87 668 l 1,16,-1
 534 668 l 1,17,-1
 534 544 l 1,18,-1
 213 544 l 1,19,-1
 198 419 l 1,20,21
 221 436 221 436 258.5 445 c 128,-1,22
 296 454 296 454 331 454 c 0,23,24
 376 454 376 454 418 439.5 c 128,-1,25
 460 425 460 425 492.5 395.5 c 128,-1,26
 525 366 525 366 545 322.5 c 128,-1,27
 565 279 565 279 565 221 c 0,28,29
 565 164 565 164 543 120 c 128,-1,30
 521 76 521 76 484 47 c 128,-1,31
 447 18 447 18 398 3 c 128,-1,32
 349 -12 349 -12 295 -12 c 0,33,34
 207 -12 207 -12 140 26 c 128,-1,35
 73 64 73 64 41 139 c 1,36,-1
 41 139 l 1,0,-1
EndSplineSet
Validated: 5
Substitution2: "'tnum' Tabular Numbers lookup 6 subtable" five.tf
EndChar

StartChar: six
Encoding: 54 54 10
Width: 632
GlyphClass: 1
Flags: W
LayerCount: 2
Fore
SplineSet
51 322 m 1,0,1
 51 394 51 394 67 459 c 128,-1,2
 83 524 83 524 118 573 c 128,-1,3
 153 622 153 622 207.5 651 c 128,-1,4
 262 680 262 680 340 680 c 0,5,6
 416 680 416 680 467 653.5 c 128,-1,7
 518 627 518 627 544 583 c 1,8,-1
 408 534 l 1,9,10
 398 551 398 551 377 560.5 c 128,-1,11
 356 570 356 570 330 570 c 0,12,13
 276 570 276 570 243 529.5 c 128,-1,14
 210 489 210 489 210 403 c 1,15,16
 235 426 235 426 269 439 c 128,-1,17
 303 452 303 452 353 452 c 0,18,19
 398 452 398 452 439.5 434.5 c 128,-1,20
 481 417 481 417 512.5 386 c 128,-1,21
 544 355 544 355 562.5 312 c 128,-1,22
 581 269 581 269 581 217 c 256,23,24
 581 165 581 165 561.5 122.5 c 128,-1,25
 542 80 542 80 507.5 50 c 128,-1,26
 473 20 473 20 425.5 4 c 128,-1,27
 378 -12 378 -12 321 -12 c 0,28,29
 249 -12 249 -12 198 13.5 c 128,-1,30
 147 39 147 39 114.5 84 c 128,-1,31
 82 129 82 129 66.5 190 c 128,-1,32
 51 251 51 251 51 322 c 1,33,-1
 51 322 l 1,0,1
320 101 m 1,34,35
 369 101 369 101 397 133 c 128,-1,36
 425 165 425 165 425 219 c 0,37,38
 425 272 425 272 397 305 c 128,-1,39
 369 338 369 338 319 338 c 0,40,41
 271 338 271 338 241.5 306 c 128,-1,42
 212 274 212 274 212 220 c 256,43,44
 212 166 212 166 241 133.5 c 128,-1,45
 270 101 270 101 320 101 c 1,46,-1
 320 101 l 1,34,35
EndSplineSet
Validated: 5
Substitution2: "'tnum' Tabular Numbers lookup 6 subtable" six.tf
EndChar

StartChar: seven
Encoding: 55 55 11
Width: 543
GlyphClass: 1
Flags: W
LayerCount: 2
Fore
SplineSet
83 0 m 1,0,-1
 354 543 l 1,1,-1
 15 543 l 1,2,-1
 15 668 l 1,3,-1
 515 668 l 1,4,-1
 515 543 l 1,5,-1
 258 0 l 1,6,-1
 83 0 l 1,0,-1
EndSplineSet
Validated: 1
Substitution2: "'tnum' Tabular Numbers lookup 6 subtable" seven.tf
EndChar

StartChar: eight
Encoding: 56 56 12
Width: 625
GlyphClass: 1
Flags: W
LayerCount: 2
Fore
SplineSet
152 377 m 1,0,1
 137 401 137 401 128.5 428.5 c 128,-1,2
 120 456 120 456 120 487 c 0,3,4
 120 527 120 527 134 562 c 128,-1,5
 148 597 148 597 173.5 623.5 c 128,-1,6
 199 650 199 650 234.5 665 c 128,-1,7
 270 680 270 680 313 680 c 256,8,9
 356 680 356 680 391 665 c 128,-1,10
 426 650 426 650 451.5 623.5 c 128,-1,11
 477 597 477 597 491 562 c 128,-1,12
 505 527 505 527 505 487 c 0,13,14
 505 456 505 456 496.5 428.5 c 128,-1,15
 488 401 488 401 472 378 c 1,16,17
 529 346 529 346 558 307 c 128,-1,18
 587 268 587 268 587 206 c 0,19,20
 587 153 587 153 566 112.5 c 128,-1,21
 545 72 545 72 508.5 44 c 128,-1,22
 472 16 472 16 422 2 c 128,-1,23
 372 -12 372 -12 313 -12 c 256,24,25
 254 -12 254 -12 203.5 2.5 c 128,-1,26
 153 17 153 17 116.5 44.5 c 128,-1,27
 80 72 80 72 59 113 c 128,-1,28
 38 154 38 154 38 207 c 0,29,30
 38 268 38 268 66.5 307 c 128,-1,31
 95 346 95 346 152 377 c 1,32,-1
 152 377 l 1,0,1
195 206 m 1,33,34
 195 164 195 164 227.5 139 c 128,-1,35
 260 114 260 114 313 114 c 0,36,37
 364 114 364 114 397 139.5 c 128,-1,38
 430 165 430 165 430 206 c 0,39,40
 430 248 430 248 397 271 c 128,-1,41
 364 294 364 294 313 294 c 0,42,43
 260 294 260 294 227.5 271 c 128,-1,44
 195 248 195 248 195 206 c 1,45,-1
 195 206 l 1,33,34
313 417 m 1,46,47
 341 417 341 417 360.5 437 c 128,-1,48
 380 457 380 457 380 486 c 256,49,50
 380 515 380 515 361 535 c 128,-1,51
 342 555 342 555 313 555 c 256,52,53
 284 555 284 555 264 535 c 128,-1,54
 244 515 244 515 244 486 c 256,55,56
 244 457 244 457 264 437 c 128,-1,57
 284 417 284 417 313 417 c 1,58,-1
 313 417 l 1,46,47
EndSplineSet
Validated: 5
Substitution2: "'tnum' Tabular Numbers lookup 6 subtable" eight.tf
EndChar

StartChar: nine
Encoding: 57 57 13
Width: 561
GlyphClass: 1
Flags: W
LayerCount: 2
Fore
SplineSet
38 441 m 1,0,1
 38 490 38 490 56.5 533.5 c 128,-1,2
 75 577 75 577 107.5 609 c 128,-1,3
 140 641 140 641 183 660 c 128,-1,4
 226 679 226 679 275 679 c 0,5,6
 325 679 325 679 368.5 660 c 128,-1,7
 412 641 412 641 445 608.5 c 128,-1,8
 478 576 478 576 497 532.5 c 128,-1,9
 516 489 516 489 516 439 c 0,10,11
 516 386 516 386 492 335 c 2,12,-1
 330 0 l 1,13,-1
 170 0 l 1,14,-1
 278 202 l 1,15,16
 229 202 229 202 185 220.5 c 128,-1,17
 141 239 141 239 108.5 271.5 c 128,-1,18
 76 304 76 304 57 347.5 c 128,-1,19
 38 391 38 391 38 441 c 1,20,-1
 38 441 l 1,0,1
278 335 m 1,21,22
 299 335 299 335 318 343 c 128,-1,23
 337 351 337 351 351.5 365.5 c 128,-1,24
 366 380 366 380 374 399 c 128,-1,25
 382 418 382 418 382 439 c 0,26,27
 382 443 382 443 381 445 c 2,28,-1
 381 450 l 1,29,30
 376 491 376 491 346.5 517.5 c 128,-1,31
 317 544 317 544 277 544 c 2,32,-1
 268 544 l 1,33,34
 226 540 226 540 199.5 510 c 128,-1,35
 173 480 173 480 173 440 c 2,36,-1
 173 431 l 2,37,38
 175 410 175 410 184 392.5 c 128,-1,39
 193 375 193 375 207.5 362.5 c 128,-1,40
 222 350 222 350 240 342.5 c 128,-1,41
 258 335 258 335 278 335 c 1,42,-1
 278 335 l 1,21,22
EndSplineSet
Validated: 5
Substitution2: "'tnum' Tabular Numbers lookup 6 subtable" nine.tf
EndChar

StartChar: A
Encoding: 65 65 14
Width: 690
GlyphClass: 1
Flags: W
LayerCount: 2
Fore
SplineSet
258 668 m 1,0,-1
 432 668 l 1,1,-1
 685 0 l 1,2,-1
 513 0 l 1,3,-1
 473 119 l 1,4,-1
 217 119 l 1,5,-1
 177 0 l 1,6,-1
 5 0 l 1,7,-1
 258 668 l 1,0,-1
260 247 m 1,8,-1
 430 247 l 1,9,-1
 344 501 l 1,10,-1
 260 247 l 1,8,-1
EndSplineSet
Validated: 1
Substitution2: "Single Substitution lookup 0 subtable" ordfeminine
EndChar

StartChar: B
Encoding: 66 66 15
Width: 647
GlyphClass: 1
Flags: W
LayerCount: 2
Fore
SplineSet
336 668 m 1,0,1
 390 668 390 668 436.5 660.5 c 128,-1,2
 483 653 483 653 517 633.5 c 128,-1,3
 551 614 551 614 570.5 580.5 c 128,-1,4
 590 547 590 547 590 494 c 0,5,6
 590 448 590 448 569.5 413 c 128,-1,7
 549 378 549 378 511 355 c 1,8,9
 558 339 558 339 587.5 303 c 128,-1,10
 617 267 617 267 617 206 c 0,11,12
 617 150 617 150 597.5 110.5 c 128,-1,13
 578 71 578 71 542.5 46.5 c 128,-1,14
 507 22 507 22 457.5 11 c 128,-1,15
 408 0 408 0 347 0 c 2,16,-1
 44 0 l 1,17,-1
 44 668 l 1,18,-1
 336 668 l 1,19,-1
 336 668 l 1,0,1
202 282 m 1,20,-1
 202 131 l 1,21,-1
 348 131 l 2,22,23
 399 131 399 131 424.5 151.5 c 128,-1,24
 450 172 450 172 450 207 c 256,25,26
 450 242 450 242 424.5 262 c 128,-1,27
 399 282 399 282 348 282 c 2,28,-1
 202 282 l 1,29,-1
 202 282 l 1,20,-1
202 539 m 1,30,-1
 202 404 l 1,31,-1
 341 404 l 2,32,33
 381 404 381 404 403.5 422.5 c 128,-1,34
 426 441 426 441 426 472 c 0,35,36
 426 504 426 504 403.5 521.5 c 128,-1,37
 381 539 381 539 341 539 c 2,38,-1
 202 539 l 1,39,-1
 202 539 l 1,30,-1
EndSplineSet
Validated: 5
EndChar

StartChar: C
Encoding: 67 67 16
Width: 681
GlyphClass: 1
Flags: W
LayerCount: 2
Fore
SplineSet
373 680 m 1,0,1
 468 680 468 680 538.5 638 c 128,-1,2
 609 596 609 596 647 525 c 1,3,-1
 507 474 l 1,4,5
 484 515 484 515 446.5 532.5 c 128,-1,6
 409 550 409 550 368 550 c 0,7,8
 333 550 333 550 303 535.5 c 128,-1,9
 273 521 273 521 250.5 493 c 128,-1,10
 228 465 228 465 215 425 c 128,-1,11
 202 385 202 385 202 334 c 0,12,13
 202 282 202 282 215 241.5 c 128,-1,14
 228 201 228 201 250.5 173.5 c 128,-1,15
 273 146 273 146 303.5 132 c 128,-1,16
 334 118 334 118 370 118 c 0,17,18
 389 118 389 118 409 121.5 c 128,-1,19
 429 125 429 125 448 133.5 c 128,-1,20
 467 142 467 142 483.5 156.5 c 128,-1,21
 500 171 500 171 512 193 c 1,22,-1
 651 142 l 1,23,24
 610 70 610 70 537 29 c 128,-1,25
 464 -12 464 -12 369 -12 c 0,26,27
 291 -12 291 -12 229 12 c 128,-1,28
 167 36 167 36 124 81 c 128,-1,29
 81 126 81 126 58 190 c 128,-1,30
 35 254 35 254 35 334 c 0,31,32
 35 413 35 413 58.5 477 c 128,-1,33
 82 541 82 541 126 586 c 128,-1,34
 170 631 170 631 232.5 655.5 c 128,-1,35
 295 680 295 680 373 680 c 1,36,-1
 373 680 l 1,0,1
EndSplineSet
Validated: 1
EndChar

StartChar: D
Encoding: 68 68 17
Width: 682
GlyphClass: 1
Flags: W
LayerCount: 2
Fore
SplineSet
264 668 m 1,0,1
 346 668 346 668 416.5 651.5 c 128,-1,2
 487 635 487 635 539 596 c 128,-1,3
 591 557 591 557 621 493 c 128,-1,4
 651 429 651 429 651 334 c 0,5,6
 651 238 651 238 621 174 c 128,-1,7
 591 110 591 110 539 71.5 c 128,-1,8
 487 33 487 33 416.5 16.5 c 128,-1,9
 346 0 346 0 264 0 c 2,10,-1
 44 0 l 1,11,-1
 44 668 l 1,12,-1
 264 668 l 1,13,-1
 264 668 l 1,0,1
202 133 m 1,14,-1
 267 133 l 2,15,16
 310 133 310 133 350 139.5 c 128,-1,17
 390 146 390 146 420.5 167.5 c 128,-1,18
 451 189 451 189 469.5 228.5 c 128,-1,19
 488 268 488 268 488 334 c 256,20,21
 488 400 488 400 469.5 440 c 128,-1,22
 451 480 451 480 420.5 501.5 c 128,-1,23
 390 523 390 523 350 530 c 128,-1,24
 310 537 310 537 267 537 c 2,25,-1
 202 537 l 1,26,-1
 202 133 l 1,27,-1
 202 133 l 1,14,-1
EndSplineSet
Validated: 5
EndChar

StartChar: E
Encoding: 69 69 18
Width: 580
GlyphClass: 1
Flags: W
LayerCount: 2
Fore
SplineSet
44 668 m 1,0,-1
 558 668 l 1,1,-1
 558 529 l 1,2,-1
 202 529 l 1,3,-1
 202 413 l 1,4,-1
 419 413 l 1,5,-1
 419 274 l 1,6,-1
 202 274 l 1,7,-1
 202 139 l 1,8,-1
 558 139 l 1,9,-1
 558 0 l 1,10,-1
 44 0 l 1,11,-1
 44 668 l 1,0,-1
EndSplineSet
Validated: 1
EndChar

StartChar: F
Encoding: 70 70 19
Width: 544
GlyphClass: 1
Flags: W
LayerCount: 2
Fore
SplineSet
44 668 m 1,0,-1
 522 668 l 1,1,-1
 522 529 l 1,2,-1
 202 529 l 1,3,-1
 202 413 l 1,4,-1
 522 413 l 1,5,-1
 522 274 l 1,6,-1
 202 274 l 1,7,-1
 202 0 l 1,8,-1
 44 0 l 1,9,-1
 44 668 l 1,0,-1
EndSplineSet
Validated: 1
EndChar

StartChar: G
Encoding: 71 71 20
Width: 719
GlyphClass: 1
Flags: W
LayerCount: 2
Fore
SplineSet
375 680 m 1,0,1
 463 680 463 680 533.5 645.5 c 128,-1,2
 604 611 604 611 644 542 c 1,3,-1
 508 486 l 1,4,5
 491 512 491 512 458 531 c 128,-1,6
 425 550 425 550 373 550 c 0,7,8
 337 550 337 550 306 536.5 c 128,-1,9
 275 523 275 523 252 496 c 128,-1,10
 229 469 229 469 215.5 429 c 128,-1,11
 202 389 202 389 202 336 c 0,12,13
 202 230 202 230 250 174 c 128,-1,14
 298 118 298 118 376 118 c 0,15,16
 403 118 403 118 430 123.5 c 128,-1,17
 457 129 457 129 478 142.5 c 128,-1,18
 499 156 499 156 512 177.5 c 128,-1,19
 525 199 525 199 525 231 c 2,20,-1
 525 250 l 1,21,-1
 375 250 l 1,22,-1
 375 378 l 1,23,-1
 683 378 l 1,24,-1
 683 0 l 1,25,-1
 579 0 l 1,26,-1
 557 74 l 1,27,28
 525 30 525 30 474.5 9 c 128,-1,29
 424 -12 424 -12 352 -12 c 0,30,31
 279 -12 279 -12 220 12.5 c 128,-1,32
 161 37 161 37 120 82 c 128,-1,33
 79 127 79 127 57 191.5 c 128,-1,34
 35 256 35 256 35 336 c 0,35,36
 35 415 35 415 59.5 478.5 c 128,-1,37
 84 542 84 542 129 587 c 128,-1,38
 174 632 174 632 236.5 656 c 128,-1,39
 299 680 299 680 375 680 c 1,40,-1
 375 680 l 1,0,1
EndSplineSet
Validated: 1
EndChar

StartChar: H
Encoding: 72 72 21
Width: 679
GlyphClass: 1
Flags: W
LayerCount: 2
Fore
SplineSet
44 668 m 1,0,-1
 202 668 l 1,1,-1
 202 413 l 1,2,-1
 477 413 l 1,3,-1
 477 668 l 1,4,-1
 635 668 l 1,5,-1
 635 0 l 1,6,-1
 477 0 l 1,7,-1
 477 274 l 1,8,-1
 202 274 l 1,9,-1
 202 0 l 1,10,-1
 44 0 l 1,11,-1
 44 668 l 1,0,-1
EndSplineSet
Validated: 1
EndChar

StartChar: I
Encoding: 73 73 22
Width: 458
GlyphClass: 1
Flags: W
LayerCount: 2
Fore
SplineSet
151 124 m 1,0,-1
 151 544 l 1,1,-1
 57 544 l 1,2,-1
 57 668 l 1,3,-1
 401 668 l 1,4,-1
 401 544 l 1,5,-1
 309 544 l 1,6,-1
 309 124 l 1,7,-1
 401 124 l 1,8,-1
 401 0 l 1,9,-1
 57 0 l 1,10,-1
 57 124 l 1,11,-1
 151 124 l 1,0,-1
EndSplineSet
Validated: 1
EndChar

StartChar: J
Encoding: 74 74 23
Width: 560
GlyphClass: 1
Flags: W
LayerCount: 2
Fore
SplineSet
150 228 m 1,0,1
 154 207 154 207 162 186 c 128,-1,2
 170 165 170 165 183 149 c 128,-1,3
 196 133 196 133 213.5 123 c 128,-1,4
 231 113 231 113 255 113 c 0,5,6
 305 113 305 113 331.5 144.5 c 128,-1,7
 358 176 358 176 358 256 c 2,8,-1
 358 668 l 1,9,-1
 516 668 l 1,10,-1
 516 256 l 2,11,12
 516 130 516 130 450 59 c 128,-1,13
 384 -12 384 -12 255 -12 c 0,14,15
 150 -12 150 -12 88 39 c 128,-1,16
 26 90 26 90 5 175 c 1,17,-1
 150 228 l 1,18,-1
 150 228 l 1,0,1
EndSplineSet
Validated: 5
EndChar

StartChar: K
Encoding: 75 75 24
Width: 659
GlyphClass: 1
Flags: W
LayerCount: 2
Fore
SplineSet
44 0 m 1,0,-1
 44 668 l 1,1,-1
 202 668 l 1,2,-1
 202 403 l 1,3,-1
 443 668 l 1,4,-1
 636 668 l 1,5,-1
 372 382 l 1,6,-1
 649 0 l 1,7,-1
 466 0 l 1,8,-1
 270 272 l 1,9,-1
 202 197 l 1,10,-1
 202 0 l 1,11,-1
 44 0 l 1,0,-1
EndSplineSet
Validated: 1
EndChar

StartChar: L
Encoding: 76 76 25
Width: 537
GlyphClass: 1
Flags: W
LayerCount: 2
Fore
SplineSet
522 139 m 1,0,-1
 522 0 l 1,1,-1
 44 0 l 1,2,-1
 44 668 l 1,3,-1
 202 668 l 1,4,-1
 202 139 l 1,5,-1
 522 139 l 1,0,-1
EndSplineSet
Validated: 1
EndChar

StartChar: M
Encoding: 77 77 26
Width: 842
GlyphClass: 1
Flags: W
LayerCount: 2
Fore
SplineSet
44 0 m 1,0,-1
 44 668 l 1,1,-1
 281 668 l 1,2,-1
 420 189 l 1,3,-1
 561 668 l 1,4,-1
 798 668 l 1,5,-1
 798 0 l 1,6,-1
 644 0 l 1,7,-1
 644 525 l 1,8,-1
 485 0 l 1,9,-1
 355 0 l 1,10,-1
 197 525 l 1,11,-1
 197 0 l 1,12,-1
 44 0 l 1,0,-1
EndSplineSet
Validated: 1
EndChar

StartChar: N
Encoding: 78 78 27
Width: 700
GlyphClass: 1
Flags: W
LayerCount: 2
Fore
SplineSet
245 668 m 1,0,-1
 503 192 l 1,1,-1
 503 668 l 1,2,-1
 656 668 l 1,3,-1
 656 0 l 1,4,-1
 454 0 l 1,5,-1
 196 476 l 1,6,-1
 196 0 l 1,7,-1
 44 0 l 1,8,-1
 44 668 l 1,9,-1
 245 668 l 1,0,-1
EndSplineSet
Validated: 1
EndChar

StartChar: O
Encoding: 79 79 28
Width: 764
GlyphClass: 1
Flags: W
LayerCount: 2
Fore
SplineSet
35 334 m 1,0,1
 35 412 35 412 60 476 c 128,-1,2
 85 540 85 540 131 585 c 128,-1,3
 177 630 177 630 240.5 655 c 128,-1,4
 304 680 304 680 381 680 c 256,5,6
 458 680 458 680 522 655 c 128,-1,7
 586 630 586 630 632 585 c 128,-1,8
 678 540 678 540 703.5 476 c 128,-1,9
 729 412 729 412 729 334 c 256,10,11
 729 256 729 256 703.5 192 c 128,-1,12
 678 128 678 128 632 83 c 128,-1,13
 586 38 586 38 522 13 c 128,-1,14
 458 -12 458 -12 381 -12 c 256,15,16
 304 -12 304 -12 240.5 13 c 128,-1,17
 177 38 177 38 131 83 c 128,-1,18
 85 128 85 128 60 192 c 128,-1,19
 35 256 35 256 35 334 c 1,20,-1
 35 334 l 1,0,1
202 334 m 1,21,22
 202 281 202 281 216.5 240.5 c 128,-1,23
 231 200 231 200 255.5 173 c 128,-1,24
 280 146 280 146 312.5 132 c 128,-1,25
 345 118 345 118 381 118 c 0,26,27
 418 118 418 118 450.5 132 c 128,-1,28
 483 146 483 146 507.5 173 c 128,-1,29
 532 200 532 200 546.5 240.5 c 128,-1,30
 561 281 561 281 561 334 c 256,31,32
 561 387 561 387 546.5 427.5 c 128,-1,33
 532 468 532 468 507.5 495 c 128,-1,34
 483 522 483 522 450.5 536 c 128,-1,35
 418 550 418 550 381 550 c 0,36,37
 345 550 345 550 312.5 536 c 128,-1,38
 280 522 280 522 255.5 495 c 128,-1,39
 231 468 231 468 216.5 427.5 c 128,-1,40
 202 387 202 387 202 334 c 1,41,-1
 202 334 l 1,21,22
EndSplineSet
Validated: 5
Substitution2: "Single Substitution lookup 0 subtable" ordmasculine
EndChar

StartChar: P
Encoding: 80 80 29
Width: 634
GlyphClass: 1
Flags: W
LayerCount: 2
Fore
SplineSet
44 668 m 1,0,-1
 301 668 l 2,1,2
 366 668 366 668 421.5 658.5 c 128,-1,3
 477 649 477 649 517.5 624.5 c 128,-1,4
 558 600 558 600 581 558 c 128,-1,5
 604 516 604 516 604 450 c 256,6,7
 604 384 604 384 581 342 c 128,-1,8
 558 300 558 300 517.5 275.5 c 128,-1,9
 477 251 477 251 421.5 241.5 c 128,-1,10
 366 232 366 232 301 232 c 2,11,-1
 202 232 l 1,12,-1
 202 0 l 1,13,-1
 44 0 l 1,14,-1
 44 668 l 1,15,-1
 44 668 l 1,0,-1
306 363 m 1,16,17
 333 363 333 363 357 366.5 c 128,-1,18
 381 370 381 370 399 380 c 128,-1,19
 417 390 417 390 427 406.5 c 128,-1,20
 437 423 437 423 437 450 c 0,21,22
 437 476 437 476 427 492.5 c 128,-1,23
 417 509 417 509 399 518.5 c 128,-1,24
 381 528 381 528 357 531.5 c 128,-1,25
 333 535 333 535 306 535 c 2,26,-1
 202 535 l 1,27,-1
 202 363 l 1,28,-1
 306 363 l 1,29,-1
 306 363 l 1,16,17
EndSplineSet
Validated: 5
EndChar

StartChar: Q
Encoding: 81 81 30
Width: 781
GlyphClass: 1
Flags: W
LayerCount: 2
Fore
SplineSet
381 680 m 1,0,1
 458 680 458 680 522 655 c 128,-1,2
 586 630 586 630 632 585 c 128,-1,3
 678 540 678 540 703.5 476 c 128,-1,4
 729 412 729 412 729 334 c 0,5,6
 729 276 729 276 714.5 226 c 128,-1,7
 700 176 700 176 674 135 c 1,8,-1
 781 34 l 1,9,-1
 698 -55 l 1,10,-1
 589 48 l 1,11,12
 503 -12 503 -12 381 -12 c 0,13,14
 304 -12 304 -12 240.5 13 c 128,-1,15
 177 38 177 38 131 83 c 128,-1,16
 85 128 85 128 60 192 c 128,-1,17
 35 256 35 256 35 334 c 256,18,19
 35 412 35 412 60 476 c 128,-1,20
 85 540 85 540 131 585 c 128,-1,21
 177 630 177 630 240.5 655 c 128,-1,22
 304 680 304 680 381 680 c 1,23,-1
 381 680 l 1,0,1
202 334 m 1,24,25
 202 281 202 281 216.5 240.5 c 128,-1,26
 231 200 231 200 255.5 173 c 128,-1,27
 280 146 280 146 312.5 132 c 128,-1,28
 345 118 345 118 381 118 c 0,29,30
 438 118 438 118 481 149 c 1,31,-1
 338 285 l 1,32,-1
 421 372 l 1,33,-1
 550 251 l 1,34,35
 556 270 556 270 558.5 290.5 c 128,-1,36
 561 311 561 311 561 334 c 0,37,38
 561 387 561 387 546.5 427.5 c 128,-1,39
 532 468 532 468 507.5 495 c 128,-1,40
 483 522 483 522 450.5 536 c 128,-1,41
 418 550 418 550 381 550 c 0,42,43
 345 550 345 550 312.5 536 c 128,-1,44
 280 522 280 522 255.5 495 c 128,-1,45
 231 468 231 468 216.5 427.5 c 128,-1,46
 202 387 202 387 202 334 c 1,47,-1
 202 334 l 1,24,25
EndSplineSet
Validated: 5
EndChar

StartChar: R
Encoding: 82 82 31
Width: 654
GlyphClass: 1
Flags: W
LayerCount: 2
Fore
SplineSet
301 668 m 1,0,1
 366 668 366 668 421.5 659 c 128,-1,2
 477 650 477 650 517.5 627 c 128,-1,3
 558 604 558 604 581 563.5 c 128,-1,4
 604 523 604 523 604 461 c 0,5,6
 604 433 604 433 596.5 404 c 128,-1,7
 589 375 589 375 571 349.5 c 128,-1,8
 553 324 553 324 522 303 c 128,-1,9
 491 282 491 282 443 269 c 1,10,-1
 637 0 l 1,11,-1
 454 0 l 1,12,-1
 273 252 l 1,13,-1
 202 252 l 1,14,-1
 202 0 l 1,15,-1
 44 0 l 1,16,-1
 44 668 l 1,17,-1
 301 668 l 1,18,-1
 301 668 l 1,0,1
202 384 m 1,19,-1
 306 384 l 2,20,21
 334 384 334 384 358 387 c 128,-1,22
 382 390 382 390 399.5 398.5 c 128,-1,23
 417 407 417 407 427 421.5 c 128,-1,24
 437 436 437 436 437 459 c 256,25,26
 437 482 437 482 427 497 c 128,-1,27
 417 512 417 512 399.5 520.5 c 128,-1,28
 382 529 382 529 358 532 c 128,-1,29
 334 535 334 535 306 535 c 2,30,-1
 202 535 l 1,31,-1
 202 384 l 1,32,-1
 202 384 l 1,19,-1
EndSplineSet
Validated: 5
EndChar

StartChar: S
Encoding: 83 83 32
Width: 619
GlyphClass: 1
Flags: W
LayerCount: 2
Fore
SplineSet
169 209 m 1,0,1
 183 161 183 161 221 138 c 128,-1,2
 259 115 259 115 315 115 c 0,3,4
 336 115 336 115 357.5 118.5 c 128,-1,5
 379 122 379 122 396 130.5 c 128,-1,6
 413 139 413 139 423.5 152.5 c 128,-1,7
 434 166 434 166 434 185 c 0,8,9
 434 220 434 220 400 239 c 128,-1,10
 366 258 366 258 312 269 c 2,11,-1
 231 285 l 2,12,13
 190 293 190 293 153 307.5 c 128,-1,14
 116 322 116 322 88.5 344.5 c 128,-1,15
 61 367 61 367 44.5 398.5 c 128,-1,16
 28 430 28 430 28 473 c 0,17,18
 28 527 28 527 53.5 566 c 128,-1,19
 79 605 79 605 119.5 630.5 c 128,-1,20
 160 656 160 656 210.5 668 c 128,-1,21
 261 680 261 680 311 680 c 0,22,23
 352 680 352 680 391 672 c 128,-1,24
 430 664 430 664 464 646.5 c 128,-1,25
 498 629 498 629 524.5 601.5 c 128,-1,26
 551 574 551 574 567 535 c 1,27,-1
 424 483 l 1,28,29
 410 517 410 517 377.5 535 c 128,-1,30
 345 553 345 553 297 553 c 0,31,32
 251 553 251 553 220.5 536.5 c 128,-1,33
 190 520 190 520 190 489 c 0,34,35
 190 463 190 463 210.5 445.5 c 128,-1,36
 231 428 231 428 266 421 c 2,37,-1
 356 403 l 2,38,39
 397 395 397 395 439.5 383 c 128,-1,40
 482 371 482 371 516.5 349.5 c 128,-1,41
 551 328 551 328 573.5 294.5 c 128,-1,42
 596 261 596 261 596 209 c 0,43,44
 596 156 596 156 571.5 114.5 c 128,-1,45
 547 73 547 73 507 45 c 128,-1,46
 467 17 467 17 416.5 2.5 c 128,-1,47
 366 -12 366 -12 314 -12 c 0,48,49
 204 -12 204 -12 130 32 c 128,-1,50
 56 76 56 76 25 157 c 1,51,-1
 169 209 l 1,52,-1
 169 209 l 1,0,1
EndSplineSet
Validated: 5
EndChar

StartChar: T
Encoding: 84 84 33
Width: 617
GlyphClass: 1
Flags: W
LayerCount: 2
Fore
SplineSet
15 668 m 1,0,-1
 602 668 l 1,1,-1
 602 529 l 1,2,-1
 387 529 l 1,3,-1
 387 0 l 1,4,-1
 230 0 l 1,5,-1
 230 529 l 1,6,-1
 15 529 l 1,7,-1
 15 668 l 1,0,-1
EndSplineSet
Validated: 1
EndChar

StartChar: U
Encoding: 85 85 34
Width: 657
GlyphClass: 1
Flags: W
LayerCount: 2
Fore
SplineSet
41 292 m 1,0,-1
 41 668 l 1,1,-1
 199 668 l 1,2,-1
 199 279 l 2,3,4
 199 242 199 242 203.5 212 c 128,-1,5
 208 182 208 182 222 161 c 128,-1,6
 236 140 236 140 261.5 128.5 c 128,-1,7
 287 117 287 117 329 117 c 0,8,9
 370 117 370 117 395.5 128.5 c 128,-1,10
 421 140 421 140 435 161 c 128,-1,11
 449 182 449 182 453.5 212 c 128,-1,12
 458 242 458 242 458 279 c 2,13,-1
 458 668 l 1,14,-1
 616 668 l 1,15,-1
 616 292 l 2,16,17
 616 215 616 215 600.5 157.5 c 128,-1,18
 585 100 585 100 550.5 62.5 c 128,-1,19
 516 25 516 25 461.5 6.5 c 128,-1,20
 407 -12 407 -12 329 -12 c 256,21,22
 251 -12 251 -12 196 6.5 c 128,-1,23
 141 25 141 25 106.5 62.5 c 128,-1,24
 72 100 72 100 56.5 157.5 c 128,-1,25
 41 215 41 215 41 292 c 1,26,-1
 41 292 l 1,0,-1
EndSplineSet
Validated: 5
EndChar

StartChar: V
Encoding: 86 86 35
Width: 656
GlyphClass: 1
Flags: W
LayerCount: 2
Fore
SplineSet
10 668 m 1,0,-1
 174 668 l 1,1,-1
 327 177 l 1,2,-1
 481 668 l 1,3,-1
 646 668 l 1,4,-1
 419 0 l 1,5,-1
 236 0 l 1,6,-1
 10 668 l 1,0,-1
EndSplineSet
Validated: 1
EndChar

StartChar: W
Encoding: 87 87 36
Width: 883
GlyphClass: 1
Flags: W
LayerCount: 2
Fore
SplineSet
10 668 m 1,0,-1
 168 668 l 1,1,-1
 261 205 l 1,2,-1
 359 668 l 1,3,-1
 523 668 l 1,4,-1
 622 205 l 1,5,-1
 715 668 l 1,6,-1
 873 668 l 1,7,-1
 712 0 l 1,8,-1
 543 0 l 1,9,-1
 441 470 l 1,10,-1
 340 0 l 1,11,-1
 171 0 l 1,12,-1
 10 668 l 1,0,-1
EndSplineSet
Validated: 1
EndChar

StartChar: X
Encoding: 88 88 37
Width: 699
GlyphClass: 1
Flags: W
LayerCount: 2
Fore
SplineSet
255 343 m 1,0,-1
 24 668 l 1,1,-1
 213 668 l 1,2,-1
 349 476 l 1,3,-1
 486 668 l 1,4,-1
 675 668 l 1,5,-1
 444 343 l 1,6,-1
 689 0 l 1,7,-1
 499 0 l 1,8,-1
 349 211 l 1,9,-1
 200 0 l 1,10,-1
 10 0 l 1,11,-1
 255 343 l 1,0,-1
EndSplineSet
Validated: 1
EndChar

StartChar: Y
Encoding: 89 89 38
Width: 687
GlyphClass: 1
Flags: W
LayerCount: 2
Fore
SplineSet
10 668 m 1,0,-1
 194 668 l 1,1,-1
 343 411 l 1,2,-1
 492 668 l 1,3,-1
 677 668 l 1,4,-1
 422 260 l 1,5,-1
 422 0 l 1,6,-1
 265 0 l 1,7,-1
 265 260 l 1,8,-1
 10 668 l 1,0,-1
EndSplineSet
Validated: 1
EndChar

StartChar: Z
Encoding: 90 90 39
Width: 621
GlyphClass: 1
Flags: W
LayerCount: 2
Fore
SplineSet
240 139 m 1,0,-1
 589 139 l 1,1,-1
 589 0 l 1,2,-1
 32 0 l 1,3,-1
 32 121 l 1,4,-1
 369 529 l 1,5,-1
 47 529 l 1,6,-1
 47 668 l 1,7,-1
 574 668 l 1,8,-1
 574 547 l 1,9,-1
 240 139 l 1,0,-1
EndSplineSet
Validated: 1
EndChar

StartChar: a
Encoding: 97 97 40
Width: 548
GlyphClass: 1
Flags: W
LayerCount: 2
Fore
SplineSet
19 134 m 1,0,1
 19 179 19 179 43.5 210.5 c 128,-1,2
 68 242 68 242 111.5 262 c 128,-1,3
 155 282 155 282 215.5 293.5 c 128,-1,4
 276 305 276 305 348 310 c 1,5,-1
 348 329 l 2,6,7
 348 372 348 372 326.5 389.5 c 128,-1,8
 305 407 305 407 265 407 c 0,9,10
 233 407 233 407 210 392.5 c 128,-1,11
 187 378 187 378 179 348 c 1,12,-1
 51 394 l 1,13,14
 76 444 76 444 134 477 c 128,-1,15
 192 510 192 510 278 510 c 0,16,17
 331 510 331 510 372 499 c 128,-1,18
 413 488 413 488 441 463 c 128,-1,19
 469 438 469 438 483.5 398.5 c 128,-1,20
 498 359 498 359 498 303 c 2,21,-1
 498 194 l 2,22,23
 498 170 498 170 499.5 142.5 c 128,-1,24
 501 115 501 115 503 89 c 128,-1,25
 505 63 505 63 508 39.5 c 128,-1,26
 511 16 511 16 515 0 c 1,27,-1
 374 0 l 1,28,-1
 356 60 l 1,29,30
 328 21 328 21 286 4.5 c 128,-1,31
 244 -12 244 -12 190 -12 c 0,32,33
 155 -12 155 -12 124 -2 c 128,-1,34
 93 8 93 8 69.5 27 c 128,-1,35
 46 46 46 46 32.5 73 c 128,-1,36
 19 100 19 100 19 134 c 1,37,-1
 19 134 l 1,0,1
246 92 m 1,38,39
 269 92 269 92 288 97.5 c 128,-1,40
 307 103 307 103 321 116 c 128,-1,41
 335 129 335 129 343 151.5 c 128,-1,42
 351 174 351 174 351 208 c 2,43,-1
 351 220 l 1,44,45
 312 217 312 217 279.5 212 c 128,-1,46
 247 207 247 207 224 198.5 c 128,-1,47
 201 190 201 190 188.5 177.5 c 128,-1,48
 176 165 176 165 176 145 c 0,49,50
 176 121 176 121 196 106.5 c 128,-1,51
 216 92 216 92 246 92 c 1,52,-1
 246 92 l 1,38,39
EndSplineSet
Validated: 5
Substitution2: "Single Substitution lookup 0 subtable" ordfeminine
EndChar

StartChar: b
Encoding: 98 98 41
Width: 596
GlyphClass: 1
Flags: W
LayerCount: 2
Fore
SplineSet
202 668 m 1,0,-1
 202 428 l 1,1,2
 214 449 214 449 231.5 464 c 128,-1,3
 249 479 249 479 269.5 489.5 c 128,-1,4
 290 500 290 500 311.5 505 c 128,-1,5
 333 510 333 510 353 510 c 0,6,7
 401 510 401 510 441 492.5 c 128,-1,8
 481 475 481 475 510.5 442 c 128,-1,9
 540 409 540 409 556 361 c 128,-1,10
 572 313 572 313 572 252 c 256,11,12
 572 191 572 191 556 142.5 c 128,-1,13
 540 94 540 94 510.5 59.5 c 128,-1,14
 481 25 481 25 441 6.5 c 128,-1,15
 401 -12 401 -12 353 -12 c 0,16,17
 333 -12 333 -12 311.5 -7.5 c 128,-1,18
 290 -3 290 -3 269.5 7 c 128,-1,19
 249 17 249 17 231.5 31.5 c 128,-1,20
 214 46 214 46 202 67 c 1,21,-1
 183 0 l 1,22,-1
 50 0 l 1,23,-1
 50 668 l 1,24,-1
 202 668 l 1,25,-1
 202 668 l 1,0,-1
195 249 m 1,26,27
 195 210 195 210 204 183 c 128,-1,28
 213 156 213 156 228 139 c 128,-1,29
 243 122 243 122 263 114 c 128,-1,30
 283 106 283 106 305 106 c 256,31,32
 327 106 327 106 347 116 c 128,-1,33
 367 126 367 126 382 144.5 c 128,-1,34
 397 163 397 163 405.5 190.5 c 128,-1,35
 414 218 414 218 414 252 c 256,36,37
 414 286 414 286 405.5 312 c 128,-1,38
 397 338 397 338 382 356 c 128,-1,39
 367 374 367 374 347 383 c 128,-1,40
 327 392 327 392 305 392 c 256,41,42
 283 392 283 392 263 384 c 128,-1,43
 243 376 243 376 228 358.5 c 128,-1,44
 213 341 213 341 204 314 c 128,-1,45
 195 287 195 287 195 249 c 1,46,-1
 195 249 l 1,26,27
EndSplineSet
Validated: 5
EndChar

StartChar: c
Encoding: 99 99 42
Width: 520
GlyphClass: 1
Flags: W
LayerCount: 2
Fore
SplineSet
278 510 m 1,0,1
 310 510 310 510 342.5 503.5 c 128,-1,2
 375 497 375 497 404.5 482 c 128,-1,3
 434 467 434 467 459.5 442 c 128,-1,4
 485 417 485 417 502 380 c 1,5,-1
 375 334 l 1,6,7
 363 366 363 366 339.5 379 c 128,-1,8
 316 392 316 392 287 392 c 0,9,10
 266 392 266 392 246.5 384.5 c 128,-1,11
 227 377 227 377 212 360.5 c 128,-1,12
 197 344 197 344 188 316.5 c 128,-1,13
 179 289 179 289 179 250 c 0,14,15
 179 210 179 210 188.5 182 c 128,-1,16
 198 154 198 154 213 137.5 c 128,-1,17
 228 121 228 121 247.5 113.5 c 128,-1,18
 267 106 267 106 287 106 c 0,19,20
 319 106 319 106 341 118.5 c 128,-1,21
 363 131 363 131 376 153 c 1,22,-1
 500 108 l 1,23,24
 481 74 481 74 455 51 c 128,-1,25
 429 28 429 28 399.5 14 c 128,-1,26
 370 0 370 0 339 -6 c 128,-1,27
 308 -12 308 -12 278 -12 c 0,28,29
 217 -12 217 -12 169.5 7 c 128,-1,30
 122 26 122 26 89.5 60.5 c 128,-1,31
 57 95 57 95 40.5 143.5 c 128,-1,32
 24 192 24 192 24 251 c 256,33,34
 24 310 24 310 42.5 357.5 c 128,-1,35
 61 405 61 405 94.5 439 c 128,-1,36
 128 473 128 473 174.5 491.5 c 128,-1,37
 221 510 221 510 278 510 c 1,38,-1
 278 510 l 1,0,1
EndSplineSet
Validated: 5
EndChar

StartChar: d
Encoding: 100 100 43
Width: 596
GlyphClass: 1
Flags: W
LayerCount: 2
Fore
SplineSet
243 510 m 1,0,1
 263 510 263 510 285 505 c 128,-1,2
 307 500 307 500 327 489.5 c 128,-1,3
 347 479 347 479 364.5 464 c 128,-1,4
 382 449 382 449 394 428 c 1,5,-1
 394 668 l 1,6,-1
 546 668 l 1,7,-1
 546 194 l 2,8,9
 546 156 546 156 549 105.5 c 128,-1,10
 552 55 552 55 563 0 c 1,11,-1
 418 0 l 1,12,-1
 398 67 l 1,13,14
 366 24 366 24 325 6 c 128,-1,15
 284 -12 284 -12 243 -12 c 0,16,17
 195 -12 195 -12 155 6.5 c 128,-1,18
 115 25 115 25 85.5 59.5 c 128,-1,19
 56 94 56 94 40 142.5 c 128,-1,20
 24 191 24 191 24 252 c 256,21,22
 24 313 24 313 40 361 c 128,-1,23
 56 409 56 409 85.5 442 c 128,-1,24
 115 475 115 475 155 492.5 c 128,-1,25
 195 510 195 510 243 510 c 1,26,-1
 243 510 l 1,0,1
292 106 m 1,27,28
 314 106 314 106 334 114 c 128,-1,29
 354 122 354 122 369 139 c 128,-1,30
 384 156 384 156 392.5 183 c 128,-1,31
 401 210 401 210 401 249 c 0,32,33
 401 287 401 287 392.5 314 c 128,-1,34
 384 341 384 341 369 358.5 c 128,-1,35
 354 376 354 376 334 384 c 128,-1,36
 314 392 314 392 292 392 c 0,37,38
 247 392 247 392 214.5 356.5 c 128,-1,39
 182 321 182 321 182 252 c 256,40,41
 182 183 182 183 214.5 144.5 c 128,-1,42
 247 106 247 106 292 106 c 1,43,-1
 292 106 l 1,27,28
EndSplineSet
Validated: 5
EndChar

StartChar: e
Encoding: 101 101 44
Width: 566
GlyphClass: 1
Flags: W
LayerCount: 2
Fore
SplineSet
24 251 m 1,0,1
 24 310 24 310 45 358 c 128,-1,2
 66 406 66 406 102.5 440 c 128,-1,3
 139 474 139 474 187.5 492 c 128,-1,4
 236 510 236 510 290 510 c 0,5,6
 351 510 351 510 400 487.5 c 128,-1,7
 449 465 449 465 482 425.5 c 128,-1,8
 515 386 515 386 531.5 331 c 128,-1,9
 548 276 548 276 544 210 c 1,10,-1
 177 210 l 1,11,12
 179 184 179 184 189.5 164.5 c 128,-1,13
 200 145 200 145 215.5 132 c 128,-1,14
 231 119 231 119 251 112.5 c 128,-1,15
 271 106 271 106 292 106 c 0,16,17
 327 106 327 106 352.5 116 c 128,-1,18
 378 126 378 126 392 143 c 1,19,-1
 513 99 l 1,20,21
 474 42 474 42 415.5 15 c 128,-1,22
 357 -12 357 -12 296 -12 c 0,23,24
 236 -12 236 -12 186 6 c 128,-1,25
 136 24 136 24 100 58 c 128,-1,26
 64 92 64 92 44 141 c 128,-1,27
 24 190 24 190 24 251 c 1,28,-1
 24 251 l 1,0,1
177 300 m 1,29,-1
 403 300 l 1,30,31
 401 348 401 348 370 372.5 c 128,-1,32
 339 397 339 397 294 397 c 0,33,34
 251 397 251 397 217.5 374 c 128,-1,35
 184 351 184 351 177 300 c 1,36,-1
 177 300 l 1,29,-1
EndSplineSet
Validated: 37
EndChar

StartChar: f
Encoding: 102 102 45
Width: 367
GlyphClass: 1
Flags: W
LayerCount: 2
Fore
SplineSet
5 380 m 1,0,-1
 5 496 l 1,1,-1
 87 496 l 1,2,-1
 87 577 l 2,3,4
 87 621 87 621 98 650.5 c 128,-1,5
 109 680 109 680 132.5 697 c 128,-1,6
 156 714 156 714 192 721 c 128,-1,7
 228 728 228 728 278 728 c 2,8,-1
 347 728 l 1,9,-1
 347 608 l 1,10,-1
 305 608 l 2,11,12
 285 608 285 608 272 606.5 c 128,-1,13
 259 605 259 605 251.5 600 c 128,-1,14
 244 595 244 595 241.5 586 c 128,-1,15
 239 577 239 577 239 563 c 2,16,-1
 239 496 l 1,17,-1
 347 496 l 1,18,-1
 347 380 l 1,19,-1
 239 380 l 1,20,-1
 239 0 l 1,21,-1
 87 0 l 1,22,-1
 87 380 l 1,23,-1
 5 380 l 1,24,-1
 5 380 l 1,0,-1
EndSplineSet
Validated: 5
EndChar

StartChar: g
Encoding: 103 103 46
Width: 597
GlyphClass: 1
Flags: W
LayerCount: 2
Fore
SplineSet
395 428 m 1,0,-1
 415 496 l 1,1,-1
 546 496 l 1,2,-1
 546 37 l 2,3,4
 546 -26 546 -26 528.5 -71 c 128,-1,5
 511 -116 511 -116 478 -145.5 c 128,-1,6
 445 -175 445 -175 398 -189 c 128,-1,7
 351 -203 351 -203 293 -203 c 0,8,9
 262 -203 262 -203 230.5 -197.5 c 128,-1,10
 199 -192 199 -192 169.5 -178.5 c 128,-1,11
 140 -165 140 -165 115 -142 c 128,-1,12
 90 -119 90 -119 73 -85 c 1,13,-1
 197 -40 l 1,14,15
 211 -67 211 -67 237 -77 c 128,-1,16
 263 -87 263 -87 289 -87 c 0,17,18
 335 -87 335 -87 365 -65.5 c 128,-1,19
 395 -44 395 -44 395 7 c 2,20,-1
 395 96 l 1,21,22
 363 56 363 56 321.5 37 c 128,-1,23
 280 18 280 18 238 18 c 0,24,25
 198 18 198 18 159.5 34.5 c 128,-1,26
 121 51 121 51 91 82 c 128,-1,27
 61 113 61 113 42.5 157.5 c 128,-1,28
 24 202 24 202 24 259 c 0,29,30
 24 324 24 324 42 371.5 c 128,-1,31
 60 419 60 419 89.5 450 c 128,-1,32
 119 481 119 481 156.5 496 c 128,-1,33
 194 511 194 511 233 511 c 0,34,35
 281 511 281 511 323.5 490 c 128,-1,36
 366 469 366 469 395 428 c 1,37,-1
 395 428 l 1,0,-1
292 136 m 1,38,39
 314 136 314 136 334 142 c 128,-1,40
 354 148 354 148 369 163 c 128,-1,41
 384 178 384 178 392.5 202.5 c 128,-1,42
 401 227 401 227 401 263 c 256,43,44
 401 299 401 299 392.5 324 c 128,-1,45
 384 349 384 349 369 364 c 128,-1,46
 354 379 354 379 334 385.5 c 128,-1,47
 314 392 314 392 292 392 c 0,48,49
 247 392 247 392 214.5 362 c 128,-1,50
 182 332 182 332 182 267 c 0,51,52
 182 201 182 201 214.5 168.5 c 128,-1,53
 247 136 247 136 292 136 c 1,54,-1
 292 136 l 1,38,39
EndSplineSet
Validated: 5
EndChar

StartChar: h
Encoding: 104 104 47
Width: 572
GlyphClass: 1
Flags: W
LayerCount: 2
Fore
SplineSet
50 668 m 1,0,-1
 202 668 l 1,1,-1
 202 430 l 1,2,3
 210 444 210 444 224.5 458 c 128,-1,4
 239 472 239 472 258.5 483.5 c 128,-1,5
 278 495 278 495 302.5 502.5 c 128,-1,6
 327 510 327 510 355 510 c 0,7,8
 403 510 403 510 435 496.5 c 128,-1,9
 467 483 467 483 486.5 456.5 c 128,-1,10
 506 430 506 430 514 391 c 128,-1,11
 522 352 522 352 522 302 c 2,12,-1
 522 0 l 1,13,-1
 370 0 l 1,14,-1
 370 264 l 2,15,16
 370 290 370 290 368.5 313.5 c 128,-1,17
 367 337 367 337 359.5 354.5 c 128,-1,18
 352 372 352 372 336.5 382 c 128,-1,19
 321 392 321 392 294 392 c 0,20,21
 246 392 246 392 224 357.5 c 128,-1,22
 202 323 202 323 202 255 c 2,23,-1
 202 0 l 1,24,-1
 50 0 l 1,25,-1
 50 668 l 1,26,-1
 50 668 l 1,0,-1
EndSplineSet
Validated: 5
EndChar

StartChar: i
Encoding: 105 105 48
Width: 315
GlyphClass: 1
Flags: W
LayerCount: 2
Fore
SplineSet
105 668 m 1,0,1
 105 706 105 706 131 732 c 128,-1,2
 157 758 157 758 195 758 c 256,3,4
 233 758 233 758 259 732 c 128,-1,5
 285 706 285 706 285 668 c 0,6,7
 285 631 285 631 259 604.5 c 128,-1,8
 233 578 233 578 195 578 c 256,9,10
 157 578 157 578 131 604.5 c 128,-1,11
 105 631 105 631 105 668 c 1,12,-1
 105 668 l 1,0,1
24 496 m 1,13,-1
 271 496 l 1,14,-1
 271 0 l 1,15,-1
 118 0 l 1,16,-1
 118 380 l 1,17,-1
 24 380 l 1,18,-1
 24 496 l 1,13,-1
EndSplineSet
Validated: 5
EndChar

StartChar: j
Encoding: 106 106 49
Width: 259
GlyphClass: 1
Flags: W
LayerCount: 2
Fore
SplineSet
-11 -41 m 1,0,1
 28 -41 28 -41 41.5 -34 c 128,-1,2
 55 -27 55 -27 55 -2 c 2,3,-1
 55 496 l 1,4,-1
 207 496 l 1,5,-1
 207 -24 l 2,6,7
 207 -66 207 -66 192.5 -93 c 128,-1,8
 178 -120 178 -120 152.5 -135 c 128,-1,9
 127 -150 127 -150 92.5 -155.5 c 128,-1,10
 58 -161 58 -161 17 -161 c 2,11,-1
 -70 -161 l 1,12,-1
 -70 -41 l 1,13,-1
 -11 -41 l 1,14,-1
 -11 -41 l 1,0,1
42 668 m 1,15,16
 42 706 42 706 68 732 c 128,-1,17
 94 758 94 758 132 758 c 0,18,19
 169 758 169 758 195.5 732 c 128,-1,20
 222 706 222 706 222 668 c 0,21,22
 222 631 222 631 195.5 604.5 c 128,-1,23
 169 578 169 578 132 578 c 0,24,25
 94 578 94 578 68 604.5 c 128,-1,26
 42 631 42 631 42 668 c 1,27,-1
 42 668 l 1,15,16
EndSplineSet
Validated: 5
EndChar

StartChar: k
Encoding: 107 107 50
Width: 567
GlyphClass: 1
Flags: W
LayerCount: 2
Fore
SplineSet
50 0 m 1,0,-1
 50 668 l 1,1,-1
 202 668 l 1,2,-1
 202 308 l 1,3,-1
 368 496 l 1,4,-1
 548 496 l 1,5,-1
 354 289 l 1,6,-1
 563 0 l 1,7,-1
 383 0 l 1,8,-1
 254 180 l 1,9,-1
 202 125 l 1,10,-1
 202 0 l 1,11,-1
 50 0 l 1,0,-1
EndSplineSet
Validated: 1
EndChar

StartChar: l
Encoding: 108 108 51
Width: 314
GlyphClass: 1
Flags: W
LayerCount: 2
Fore
SplineSet
202 668 m 1,0,-1
 202 180 l 2,1,2
 202 145 202 145 216 134.5 c 128,-1,3
 230 124 230 124 268 124 c 2,4,-1
 311 124 l 1,5,-1
 311 0 l 1,6,-1
 214 0 l 2,7,8
 168 0 168 0 137 5.5 c 128,-1,9
 106 11 106 11 86.5 26 c 128,-1,10
 67 41 67 41 58.5 68.5 c 128,-1,11
 50 96 50 96 50 140 c 2,12,-1
 50 668 l 1,13,-1
 202 668 l 1,14,-1
 202 668 l 1,0,-1
EndSplineSet
Validated: 5
EndChar

StartChar: m
Encoding: 109 109 52
Width: 886
GlyphClass: 1
Flags: W
LayerCount: 2
Fore
SplineSet
50 0 m 1,0,-1
 50 496 l 1,1,-1
 183 496 l 1,2,-1
 202 430 l 1,3,4
 210 444 210 444 224 458 c 128,-1,5
 238 472 238 472 257.5 483.5 c 128,-1,6
 277 495 277 495 300.5 502.5 c 128,-1,7
 324 510 324 510 352 510 c 0,8,9
 412 510 412 510 447 489 c 128,-1,10
 482 468 482 468 499 427 c 1,11,12
 528 469 528 469 572 489.5 c 128,-1,13
 616 510 616 510 669 510 c 0,14,15
 717 510 717 510 749 496.5 c 128,-1,16
 781 483 781 483 800.5 456.5 c 128,-1,17
 820 430 820 430 828 391 c 128,-1,18
 836 352 836 352 836 302 c 2,19,-1
 836 0 l 1,20,-1
 684 0 l 1,21,-1
 684 264 l 2,22,23
 684 290 684 290 682 313.5 c 128,-1,24
 680 337 680 337 672.5 354.5 c 128,-1,25
 665 372 665 372 649.5 382 c 128,-1,26
 634 392 634 392 607 392 c 0,27,28
 560 392 560 392 539.5 360 c 128,-1,29
 519 328 519 328 519 262 c 2,30,-1
 519 0 l 1,31,-1
 366 0 l 1,32,-1
 366 264 l 2,33,34
 366 290 366 290 364.5 313.5 c 128,-1,35
 363 337 363 337 355.5 354.5 c 128,-1,36
 348 372 348 372 333.5 382 c 128,-1,37
 319 392 319 392 292 392 c 0,38,39
 244 392 244 392 223 358 c 128,-1,40
 202 324 202 324 202 259 c 2,41,-1
 202 0 l 1,42,-1
 50 0 l 1,43,-1
 50 0 l 1,0,-1
EndSplineSet
Validated: 5
EndChar

StartChar: n
Encoding: 110 110 53
Width: 572
GlyphClass: 1
Flags: W
LayerCount: 2
Fore
SplineSet
50 0 m 1,0,-1
 50 496 l 1,1,-1
 183 496 l 1,2,-1
 202 430 l 1,3,4
 210 444 210 444 224.5 458 c 128,-1,5
 239 472 239 472 258.5 483.5 c 128,-1,6
 278 495 278 495 302.5 502.5 c 128,-1,7
 327 510 327 510 355 510 c 0,8,9
 403 510 403 510 435 496.5 c 128,-1,10
 467 483 467 483 486.5 456.5 c 128,-1,11
 506 430 506 430 514 391 c 128,-1,12
 522 352 522 352 522 302 c 2,13,-1
 522 0 l 1,14,-1
 370 0 l 1,15,-1
 370 264 l 2,16,17
 370 290 370 290 368.5 313.5 c 128,-1,18
 367 337 367 337 359.5 354.5 c 128,-1,19
 352 372 352 372 336.5 382 c 128,-1,20
 321 392 321 392 294 392 c 0,21,22
 246 392 246 392 224 357.5 c 128,-1,23
 202 323 202 323 202 255 c 2,24,-1
 202 0 l 1,25,-1
 50 0 l 1,26,-1
 50 0 l 1,0,-1
EndSplineSet
Validated: 5
EndChar

StartChar: o
Encoding: 111 111 54
Width: 573
GlyphClass: 1
Flags: W
LayerCount: 2
Fore
SplineSet
24 250 m 1,0,1
 24 317 24 317 45.5 366 c 128,-1,2
 67 415 67 415 103.5 447 c 128,-1,3
 140 479 140 479 187.5 494.5 c 128,-1,4
 235 510 235 510 287 510 c 0,5,6
 338 510 338 510 385.5 494.5 c 128,-1,7
 433 479 433 479 469 447 c 128,-1,8
 505 415 505 415 527 366 c 128,-1,9
 549 317 549 317 549 250 c 256,10,11
 549 183 549 183 527 133.5 c 128,-1,12
 505 84 505 84 469 52 c 128,-1,13
 433 20 433 20 385.5 4 c 128,-1,14
 338 -12 338 -12 287 -12 c 0,15,16
 235 -12 235 -12 187.5 4 c 128,-1,17
 140 20 140 20 103.5 52 c 128,-1,18
 67 84 67 84 45.5 133.5 c 128,-1,19
 24 183 24 183 24 250 c 1,20,-1
 24 250 l 1,0,1
287 106 m 1,21,22
 333 106 333 106 363.5 139 c 128,-1,23
 394 172 394 172 394 250 c 0,24,25
 394 289 394 289 385.5 316.5 c 128,-1,26
 377 344 377 344 362.5 360.5 c 128,-1,27
 348 377 348 377 328.5 384.5 c 128,-1,28
 309 392 309 392 287 392 c 256,29,30
 265 392 265 392 245 384.5 c 128,-1,31
 225 377 225 377 210.5 360.5 c 128,-1,32
 196 344 196 344 187.5 316.5 c 128,-1,33
 179 289 179 289 179 250 c 0,34,35
 179 172 179 172 209.5 139 c 128,-1,36
 240 106 240 106 287 106 c 1,37,-1
 287 106 l 1,21,22
EndSplineSet
Validated: 5
Substitution2: "Single Substitution lookup 0 subtable" ordmasculine
EndChar

StartChar: p
Encoding: 112 112 55
Width: 596
GlyphClass: 1
Flags: W
LayerCount: 2
Fore
SplineSet
50 496 m 1,0,-1
 182 496 l 1,1,-1
 202 428 l 1,2,3
 214 449 214 449 231.5 464 c 128,-1,4
 249 479 249 479 269.5 489.5 c 128,-1,5
 290 500 290 500 311.5 505 c 128,-1,6
 333 510 333 510 353 510 c 0,7,8
 401 510 401 510 441 491.5 c 128,-1,9
 481 473 481 473 510.5 439 c 128,-1,10
 540 405 540 405 556 356.5 c 128,-1,11
 572 308 572 308 572 248 c 0,12,13
 572 187 572 187 556 138.5 c 128,-1,14
 540 90 540 90 510.5 56.5 c 128,-1,15
 481 23 481 23 441 5.5 c 128,-1,16
 401 -12 401 -12 353 -12 c 0,17,18
 333 -12 333 -12 311.5 -7 c 128,-1,19
 290 -2 290 -2 269.5 8.5 c 128,-1,20
 249 19 249 19 231.5 34.5 c 128,-1,21
 214 50 214 50 202 71 c 1,22,-1
 202 -161 l 1,23,-1
 50 -161 l 1,24,-1
 50 496 l 1,25,-1
 50 496 l 1,0,-1
305 106 m 1,26,27
 327 106 327 106 347 115 c 128,-1,28
 367 124 367 124 382 142 c 128,-1,29
 397 160 397 160 405.5 186.5 c 128,-1,30
 414 213 414 213 414 248 c 0,31,32
 414 282 414 282 405.5 309 c 128,-1,33
 397 336 397 336 382 354.5 c 128,-1,34
 367 373 367 373 347 382.5 c 128,-1,35
 327 392 327 392 305 392 c 256,36,37
 283 392 283 392 263 384.5 c 128,-1,38
 243 377 243 377 228 360 c 128,-1,39
 213 343 213 343 204 316 c 128,-1,40
 195 289 195 289 195 251 c 0,41,42
 195 175 195 175 227.5 140.5 c 128,-1,43
 260 106 260 106 305 106 c 1,44,-1
 305 106 l 1,26,27
EndSplineSet
Validated: 5
EndChar

StartChar: q
Encoding: 113 113 56
Width: 601
GlyphClass: 1
Flags: W
LayerCount: 2
Fore
SplineSet
24 248 m 1,0,1
 24 308 24 308 40 356.5 c 128,-1,2
 56 405 56 405 85.5 439 c 128,-1,3
 115 473 115 473 155 491.5 c 128,-1,4
 195 510 195 510 243 510 c 0,5,6
 263 510 263 510 285 505 c 128,-1,7
 307 500 307 500 327 489.5 c 128,-1,8
 347 479 347 479 364.5 464 c 128,-1,9
 382 449 382 449 394 428 c 1,10,-1
 414 496 l 1,11,-1
 546 496 l 1,12,-1
 546 38 l 2,13,14
 546 23 546 23 547.5 9.5 c 128,-1,15
 549 -4 549 -4 554.5 -13.5 c 128,-1,16
 560 -23 560 -23 571.5 -28.5 c 128,-1,17
 583 -34 583 -34 604 -34 c 0,18,19
 633 -34 633 -34 674 -24 c 1,20,-1
 674 -155 l 1,21,22
 658 -160 658 -160 628 -166 c 128,-1,23
 598 -172 598 -172 563 -172 c 0,24,25
 533 -172 533 -172 503 -165.5 c 128,-1,26
 473 -159 473 -159 448.5 -141 c 128,-1,27
 424 -123 424 -123 409 -91.5 c 128,-1,28
 394 -60 394 -60 394 -10 c 2,29,-1
 394 70 l 1,30,31
 382 50 382 50 364.5 34.5 c 128,-1,32
 347 19 347 19 327 8.5 c 128,-1,33
 307 -2 307 -2 285 -7 c 128,-1,34
 263 -12 263 -12 243 -12 c 0,35,36
 195 -12 195 -12 155 5.5 c 128,-1,37
 115 23 115 23 85.5 56.5 c 128,-1,38
 56 90 56 90 40 138.5 c 128,-1,39
 24 187 24 187 24 248 c 1,40,-1
 24 248 l 1,0,1
292 106 m 1,41,42
 314 106 314 106 334 114.5 c 128,-1,43
 354 123 354 123 369 140.5 c 128,-1,44
 384 158 384 158 392.5 185.5 c 128,-1,45
 401 213 401 213 401 251 c 256,46,47
 401 289 401 289 392.5 316 c 128,-1,48
 384 343 384 343 369 360 c 128,-1,49
 354 377 354 377 334 384.5 c 128,-1,50
 314 392 314 392 292 392 c 0,51,52
 247 392 247 392 214.5 354.5 c 128,-1,53
 182 317 182 317 182 248 c 0,54,55
 182 178 182 178 214.5 142 c 128,-1,56
 247 106 247 106 292 106 c 1,57,-1
 292 106 l 1,41,42
EndSplineSet
Validated: 5
EndChar

StartChar: r
Encoding: 114 114 57
Width: 372
GlyphClass: 1
Flags: W
LayerCount: 2
Fore
SplineSet
170 496 m 1,0,-1
 197 405 l 1,1,2
 220 465 220 465 260 489 c 128,-1,3
 300 513 300 513 357 510 c 1,4,-1
 357 358 l 1,5,6
 345 360 345 360 336 360.5 c 128,-1,7
 327 361 327 361 316 361 c 0,8,9
 260 361 260 361 231 335.5 c 128,-1,10
 202 310 202 310 202 250 c 2,11,-1
 202 0 l 1,12,-1
 50 0 l 1,13,-1
 50 496 l 1,14,-1
 170 496 l 1,15,-1
 170 496 l 1,0,-1
EndSplineSet
Validated: 37
EndChar

StartChar: s
Encoding: 115 115 58
Width: 534
GlyphClass: 1
Flags: W
LayerCount: 2
Fore
SplineSet
150 161 m 1,0,1
 161 129 161 129 192.5 114 c 128,-1,2
 224 99 224 99 267 99 c 0,3,4
 304 99 304 99 332.5 110.5 c 128,-1,5
 361 122 361 122 361 145 c 0,6,7
 361 161 361 161 344 171.5 c 128,-1,8
 327 182 327 182 284 190 c 2,9,-1
 195 205 l 2,10,11
 123 217 123 217 78 253.5 c 128,-1,12
 33 290 33 290 33 353 c 0,13,14
 33 392 33 392 51.5 421.5 c 128,-1,15
 70 451 70 451 101 470.5 c 128,-1,16
 132 490 132 490 173.5 500 c 128,-1,17
 215 510 215 510 261 510 c 0,18,19
 297 510 297 510 330.5 504 c 128,-1,20
 364 498 364 498 393 484.5 c 128,-1,21
 422 471 422 471 444.5 450 c 128,-1,22
 467 429 467 429 481 400 c 1,23,-1
 353 353 l 1,24,25
 345 380 345 380 319.5 389.5 c 128,-1,26
 294 399 294 399 260 399 c 0,27,28
 178 399 178 399 178 359 c 0,29,30
 178 344 178 344 192 334.5 c 128,-1,31
 206 325 206 325 239 319 c 2,32,-1
 331 302 l 2,33,34
 421 286 421 286 464 255 c 128,-1,35
 507 224 507 224 507 162 c 0,36,37
 507 118 507 118 487.5 85.5 c 128,-1,38
 468 53 468 53 435 31 c 128,-1,39
 402 9 402 9 358 -1.5 c 128,-1,40
 314 -12 314 -12 264 -12 c 0,41,42
 176 -12 176 -12 113 19.5 c 128,-1,43
 50 51 50 51 21 114 c 1,44,-1
 150 161 l 1,45,-1
 150 161 l 1,0,1
EndSplineSet
Validated: 5
EndChar

StartChar: t
Encoding: 116 116 59
Width: 379
GlyphClass: 1
Flags: W
LayerCount: 2
Fore
SplineSet
13 496 m 1,0,-1
 95 496 l 1,1,-1
 95 620 l 1,2,-1
 247 620 l 1,3,-1
 247 496 l 1,4,-1
 355 496 l 1,5,-1
 355 380 l 1,6,-1
 247 380 l 1,7,-1
 247 180 l 2,8,9
 247 145 247 145 260.5 134.5 c 128,-1,10
 274 124 274 124 311 124 c 2,11,-1
 355 124 l 1,12,-1
 355 0 l 1,13,-1
 259 0 l 2,14,15
 213 0 213 0 182 5.5 c 128,-1,16
 151 11 151 11 131.5 26 c 128,-1,17
 112 41 112 41 103.5 68.5 c 128,-1,18
 95 96 95 96 95 140 c 2,19,-1
 95 380 l 1,20,-1
 13 380 l 1,21,-1
 13 496 l 1,22,-1
 13 496 l 1,0,-1
EndSplineSet
Validated: 5
EndChar

StartChar: u
Encoding: 117 117 60
Width: 570
GlyphClass: 1
Flags: W
LayerCount: 2
Fore
SplineSet
50 496 m 1,0,-1
 202 496 l 1,1,-1
 202 236 l 2,2,3
 202 209 202 209 203.5 185.5 c 128,-1,4
 205 162 205 162 212.5 144.5 c 128,-1,5
 220 127 220 127 235 116.5 c 128,-1,6
 250 106 250 106 278 106 c 0,7,8
 326 106 326 106 346 136 c 128,-1,9
 366 166 366 166 366 235 c 2,10,-1
 366 496 l 1,11,-1
 519 496 l 1,12,-1
 519 0 l 1,13,-1
 387 0 l 1,14,-1
 366 70 l 1,15,16
 344 33 344 33 311.5 10.5 c 128,-1,17
 279 -12 279 -12 222 -12 c 0,18,19
 173 -12 173 -12 139.5 2 c 128,-1,20
 106 16 106 16 86.5 42.5 c 128,-1,21
 67 69 67 69 58.5 108 c 128,-1,22
 50 147 50 147 50 198 c 2,23,-1
 50 496 l 1,24,-1
 50 496 l 1,0,-1
EndSplineSet
Validated: 5
EndChar

StartChar: v
Encoding: 118 118 61
Width: 526
GlyphClass: 1
Flags: W
LayerCount: 2
Fore
SplineSet
0 496 m 1,0,-1
 157 496 l 1,1,-1
 263 158 l 1,2,-1
 369 496 l 1,3,-1
 526 496 l 1,4,-1
 348 0 l 1,5,-1
 177 0 l 1,6,-1
 0 496 l 1,0,-1
EndSplineSet
Validated: 1
EndChar

StartChar: w
Encoding: 119 119 62
Width: 723
GlyphClass: 1
Flags: W
LayerCount: 2
Fore
SplineSet
0 496 m 1,0,-1
 150 496 l 1,1,-1
 225 160 l 1,2,-1
 289 496 l 1,3,-1
 433 496 l 1,4,-1
 497 160 l 1,5,-1
 572 496 l 1,6,-1
 723 496 l 1,7,-1
 599 0 l 1,8,-1
 433 0 l 1,9,-1
 361 356 l 1,10,-1
 290 0 l 1,11,-1
 124 0 l 1,12,-1
 0 496 l 1,0,-1
EndSplineSet
Validated: 1
EndChar

StartChar: x
Encoding: 120 120 63
Width: 533
GlyphClass: 1
Flags: W
LayerCount: 2
Fore
SplineSet
184 259 m 1,0,-1
 15 496 l 1,1,-1
 181 496 l 1,2,-1
 267 375 l 1,3,-1
 352 496 l 1,4,-1
 518 496 l 1,5,-1
 349 259 l 1,6,-1
 533 0 l 1,7,-1
 367 0 l 1,8,-1
 267 143 l 1,9,-1
 166 0 l 1,10,-1
 0 0 l 1,11,-1
 184 259 l 1,0,-1
EndSplineSet
Validated: 1
EndChar

StartChar: y
Encoding: 121 121 64
Width: 518
GlyphClass: 1
Flags: W
LayerCount: 2
Fore
SplineSet
0 496 m 1,0,-1
 163 496 l 1,1,-1
 260 186 l 1,2,-1
 355 496 l 1,3,-1
 518 496 l 1,4,-1
 328 0 l 2,5,6
 310 -47 310 -47 292.5 -78 c 128,-1,7
 275 -109 275 -109 251.5 -127.5 c 128,-1,8
 228 -146 228 -146 195 -153.5 c 128,-1,9
 162 -161 162 -161 114 -161 c 2,10,-1
 65 -161 l 1,11,-1
 65 -51 l 1,12,-1
 95 -51 l 2,13,14
 119 -51 119 -51 134 -50 c 128,-1,15
 149 -49 149 -49 158.5 -45 c 128,-1,16
 168 -41 168 -41 173.5 -32.5 c 128,-1,17
 179 -24 179 -24 185 -10 c 2,18,-1
 190 3 l 1,19,-1
 0 496 l 1,20,-1
 0 496 l 1,0,-1
EndSplineSet
Validated: 5
EndChar

StartChar: z
Encoding: 122 122 65
Width: 516
GlyphClass: 1
Flags: W
LayerCount: 2
Fore
SplineSet
496 121 m 1,0,-1
 496 0 l 1,1,-1
 30 0 l 1,2,-1
 30 121 l 1,3,-1
 287 375 l 1,4,-1
 44 375 l 1,5,-1
 44 496 l 1,6,-1
 482 496 l 1,7,-1
 482 375 l 1,8,-1
 226 121 l 1,9,-1
 496 121 l 1,0,-1
EndSplineSet
Validated: 1
EndChar

StartChar: circumflex
Encoding: 710 710 67
AltUni2: 00e998.ffffffff.0 00e998.ffffffff.0
Width: 467
GlyphClass: 1
Flags: W
LayerCount: 2
Fore
SplineSet
37 574 m 1,0,-1
 184 706 l 2,1,2
 194 715 194 715 207 720.5 c 128,-1,3
 220 726 220 726 234 726 c 0,4,5
 261 726 261 726 284 706 c 2,6,-1
 430 574 l 1,7,-1
 302 574 l 1,8,-1
 234 635 l 1,9,-1
 166 574 l 1,10,-1
 37 574 l 1,11,-1
 37 574 l 1,0,-1
EndSplineSet
Validated: 5
Substitution2: "'case' Case-Sensitive Forms lookup 1 subtable" circumflex.case
EndChar

StartChar: caron
Encoding: 711 711 68
AltUni2: 00e999.ffffffff.0 00e999.ffffffff.0
Width: 467
GlyphClass: 1
Flags: W
LayerCount: 2
Fore
SplineSet
37 720 m 1,0,-1
 166 720 l 1,1,-1
 234 659 l 1,2,-1
 302 720 l 1,3,-1
 430 720 l 1,4,-1
 284 587 l 2,5,6
 262 568 262 568 234 568 c 0,7,8
 205 568 205 568 184 587 c 2,9,-1
 37 720 l 1,10,-1
 37 720 l 1,0,-1
EndSplineSet
Validated: 5
Substitution2: "'case' Case-Sensitive Forms lookup 1 subtable" caron.case
EndChar

StartChar: breve
Encoding: 728 728 69
AltUni2: 00e99b.ffffffff.0 00e99b.ffffffff.0
Width: 373
GlyphClass: 1
Flags: W
LayerCount: 2
Fore
SplineSet
142 689 m 1,0,1
 146 673 146 673 161.5 659.5 c 128,-1,2
 177 646 177 646 200 646 c 256,3,4
 223 646 223 646 239 659.5 c 128,-1,5
 255 673 255 673 259 689 c 1,6,-1
 344 689 l 1,7,8
 340 664 340 664 327 642 c 128,-1,9
 314 620 314 620 294.5 603.5 c 128,-1,10
 275 587 275 587 251 578 c 128,-1,11
 227 569 227 569 200 569 c 256,12,13
 173 569 173 569 149 578 c 128,-1,14
 125 587 125 587 106 603.5 c 128,-1,15
 87 620 87 620 74.5 642 c 128,-1,16
 62 664 62 664 57 689 c 1,17,-1
 142 689 l 1,18,-1
 142 689 l 1,0,1
EndSplineSet
Validated: 5
Substitution2: "'case' Case-Sensitive Forms lookup 1 subtable" breve.case
EndChar

StartChar: dotaccent
Encoding: 729 729 70
AltUni2: 00e99c.ffffffff.0 00e99c.ffffffff.0
Width: 201
GlyphClass: 1
Flags: W
LayerCount: 2
Fore
SplineSet
30 648 m 1,0,1
 30 677 30 677 51 698 c 128,-1,2
 72 719 72 719 101 719 c 256,3,4
 130 719 130 719 150.5 698 c 128,-1,5
 171 677 171 677 171 648 c 256,6,7
 171 619 171 619 150.5 598.5 c 128,-1,8
 130 578 130 578 101 578 c 256,9,10
 72 578 72 578 51 598.5 c 128,-1,11
 30 619 30 619 30 648 c 1,12,-1
 30 648 l 1,0,1
EndSplineSet
Validated: 5
Substitution2: "'case' Case-Sensitive Forms lookup 1 subtable" dotaccent.case
EndChar

StartChar: ring
Encoding: 730 730 71
Width: 295
GlyphClass: 1
Flags: W
LayerCount: 2
Fore
SplineSet
147 800 m 1,0,1
 174 800 174 800 198.5 789.5 c 128,-1,2
 223 779 223 779 241 761 c 128,-1,3
 259 743 259 743 269.5 719 c 128,-1,4
 280 695 280 695 280 668 c 256,5,6
 280 641 280 641 269.5 616.5 c 128,-1,7
 259 592 259 592 241 574 c 128,-1,8
 223 556 223 556 198.5 545.5 c 128,-1,9
 174 535 174 535 147 535 c 256,10,11
 120 535 120 535 96 545.5 c 128,-1,12
 72 556 72 556 54 574 c 128,-1,13
 36 592 36 592 25.5 616.5 c 128,-1,14
 15 641 15 641 15 668 c 256,15,16
 15 695 15 695 25.5 719 c 128,-1,17
 36 743 36 743 54 761 c 128,-1,18
 72 779 72 779 96 789.5 c 128,-1,19
 120 800 120 800 147 800 c 1,20,-1
 147 800 l 1,0,1
100 668 m 1,21,22
 100 648 100 648 113.5 634.5 c 128,-1,23
 127 621 127 621 147 621 c 256,24,25
 167 621 167 621 180.5 634.5 c 128,-1,26
 194 648 194 648 194 668 c 256,27,28
 194 688 194 688 180.5 701.5 c 128,-1,29
 167 715 167 715 147 715 c 256,30,31
 127 715 127 715 113.5 701.5 c 128,-1,32
 100 688 100 688 100 668 c 1,33,-1
 100 668 l 1,21,22
EndSplineSet
Validated: 5
Substitution2: "'case' Case-Sensitive Forms lookup 1 subtable" ring.case
EndChar

StartChar: ogonek
Encoding: 731 731 72
AltUni2: 00e99e.ffffffff.0 00e99e.ffffffff.0
Width: 295
GlyphClass: 1
Flags: W
LayerCount: 2
Fore
SplineSet
117 0 m 1,0,-1
 258 0 l 1,1,2
 241 -9 241 -9 224 -17 c 128,-1,3
 207 -25 207 -25 193.5 -33.5 c 128,-1,4
 180 -42 180 -42 171.5 -50.5 c 128,-1,5
 163 -59 163 -59 163 -68 c 0,6,7
 163 -86 163 -86 177.5 -92 c 128,-1,8
 192 -98 192 -98 209 -98 c 0,9,10
 224 -98 224 -98 238 -94.5 c 128,-1,11
 252 -91 252 -91 258 -89 c 1,12,-1
 258 -164 l 1,13,14
 252 -166 252 -166 242.5 -167.5 c 128,-1,15
 233 -169 233 -169 222 -170.5 c 128,-1,16
 211 -172 211 -172 199.5 -173 c 128,-1,17
 188 -174 188 -174 179 -174 c 0,18,19
 139 -174 139 -174 111.5 -165.5 c 128,-1,20
 84 -157 84 -157 67.5 -144 c 128,-1,21
 51 -131 51 -131 44 -115 c 128,-1,22
 37 -99 37 -99 37 -85 c 0,23,24
 37 -68 37 -68 44 -54 c 128,-1,25
 51 -40 51 -40 62.5 -29.5 c 128,-1,26
 74 -19 74 -19 88 -12 c 128,-1,27
 102 -5 102 -5 117 0 c 1,28,-1
 117 0 l 1,0,-1
EndSplineSet
Validated: 5
EndChar

StartChar: quoteleft
Encoding: 8216 8216 73
AltUni2: 00e9a3.ffffffff.0 00e9a3.ffffffff.0
Width: 277
GlyphClass: 1
Flags: W
LayerCount: 2
Fore
SplineSet
41 437 m 1,0,1
 41 453 41 453 48 472 c 2,2,-1
 124 668 l 1,3,-1
 214 668 l 1,4,-1
 161 531 l 1,5,6
 193 523 193 523 214.5 497.5 c 128,-1,7
 236 472 236 472 236 437 c 0,8,9
 236 417 236 417 228.5 399 c 128,-1,10
 221 381 221 381 207.5 367.5 c 128,-1,11
 194 354 194 354 176.5 346.5 c 128,-1,12
 159 339 159 339 139 339 c 0,13,14
 98 339 98 339 69.5 367.5 c 128,-1,15
 41 396 41 396 41 437 c 1,16,-1
 41 437 l 1,0,1
EndSplineSet
Validated: 5
EndChar

StartChar: quoteright
Encoding: 8217 8217 74
AltUni2: 00e9a4.ffffffff.0 00e9a4.ffffffff.0
Width: 277
GlyphClass: 1
Flags: W
LayerCount: 2
Fore
SplineSet
139 680 m 1,0,1
 159 680 159 680 176.5 672.5 c 128,-1,2
 194 665 194 665 207.5 651.5 c 128,-1,3
 221 638 221 638 228.5 620 c 128,-1,4
 236 602 236 602 236 582 c 0,5,6
 236 564 236 564 230 547 c 2,7,-1
 153 351 l 1,8,-1
 63 351 l 1,9,-1
 116 487 l 1,10,11
 84 495 84 495 62.5 521 c 128,-1,12
 41 547 41 547 41 582 c 0,13,14
 41 623 41 623 69.5 651.5 c 128,-1,15
 98 680 98 680 139 680 c 1,16,-1
 139 680 l 1,0,1
EndSplineSet
Validated: 5
EndChar

StartChar: quotesinglbase
Encoding: 8218 8218 75
AltUni2: 00e9a5.ffffffff.0 00e9a5.ffffffff.0
Width: 277
GlyphClass: 1
Flags: W
LayerCount: 2
Fore
SplineSet
139 184 m 1,0,1
 159 184 159 184 176.5 176.5 c 128,-1,2
 194 169 194 169 207.5 155.5 c 128,-1,3
 221 142 221 142 228.5 124 c 128,-1,4
 236 106 236 106 236 86 c 0,5,6
 236 68 236 68 230 51 c 2,7,-1
 153 -146 l 1,8,-1
 63 -146 l 1,9,-1
 116 -9 l 1,10,11
 84 -1 84 -1 62.5 25 c 128,-1,12
 41 51 41 51 41 86 c 0,13,14
 41 127 41 127 69.5 155.5 c 128,-1,15
 98 184 98 184 139 184 c 1,16,-1
 139 184 l 1,0,1
EndSplineSet
Validated: 5
EndChar

StartChar: quotedblleft
Encoding: 8220 8220 76
AltUni2: 00e9a6.ffffffff.0 00e9a6.ffffffff.0
Width: 498
GlyphClass: 1
Flags: W
LayerCount: 2
Fore
SplineSet
48 472 m 1,0,-1
 124 668 l 1,1,-1
 214 668 l 1,2,-1
 161 531 l 1,3,4
 193 523 193 523 214.5 497.5 c 128,-1,5
 236 472 236 472 236 437 c 0,6,7
 236 417 236 417 228.5 399 c 128,-1,8
 221 381 221 381 207.5 367.5 c 128,-1,9
 194 354 194 354 176.5 346.5 c 128,-1,10
 159 339 159 339 139 339 c 0,11,12
 98 339 98 339 69.5 367.5 c 128,-1,13
 41 396 41 396 41 437 c 0,14,15
 41 453 41 453 48 472 c 1,16,-1
 48 472 l 1,0,-1
270 472 m 1,17,-1
 345 668 l 1,18,-1
 436 668 l 1,19,-1
 382 531 l 1,20,21
 414 523 414 523 435.5 497.5 c 128,-1,22
 457 472 457 472 457 437 c 0,23,24
 457 396 457 396 429 367.5 c 128,-1,25
 401 339 401 339 360 339 c 0,26,27
 340 339 340 339 322.5 346.5 c 128,-1,28
 305 354 305 354 291.5 367.5 c 128,-1,29
 278 381 278 381 270.5 399 c 128,-1,30
 263 417 263 417 263 437 c 0,31,32
 263 453 263 453 270 472 c 1,33,-1
 270 472 l 1,17,-1
EndSplineSet
Validated: 5
EndChar

StartChar: quotedblright
Encoding: 8221 8221 77
AltUni2: 00e9a7.ffffffff.0 00e9a7.ffffffff.0
Width: 498
GlyphClass: 1
Flags: W
LayerCount: 2
Fore
SplineSet
41 582 m 1,0,1
 41 623 41 623 69.5 651.5 c 128,-1,2
 98 680 98 680 139 680 c 0,3,4
 159 680 159 680 176.5 672.5 c 128,-1,5
 194 665 194 665 207.5 651.5 c 128,-1,6
 221 638 221 638 228.5 620 c 128,-1,7
 236 602 236 602 236 582 c 0,8,9
 236 564 236 564 230 547 c 2,10,-1
 153 351 l 1,11,-1
 63 351 l 1,12,-1
 116 487 l 1,13,14
 84 495 84 495 62.5 521 c 128,-1,15
 41 547 41 547 41 582 c 1,16,-1
 41 582 l 1,0,1
263 582 m 1,17,18
 263 602 263 602 270.5 620 c 128,-1,19
 278 638 278 638 291.5 651.5 c 128,-1,20
 305 665 305 665 322.5 672.5 c 128,-1,21
 340 680 340 680 360 680 c 0,22,23
 401 680 401 680 429 651.5 c 128,-1,24
 457 623 457 623 457 582 c 0,25,26
 457 564 457 564 451 547 c 2,27,-1
 374 351 l 1,28,-1
 285 351 l 1,29,-1
 338 487 l 1,30,31
 306 495 306 495 284.5 521 c 128,-1,32
 263 547 263 547 263 582 c 1,33,-1
 263 582 l 1,17,18
EndSplineSet
Validated: 5
EndChar

StartChar: quotedblbase
Encoding: 8222 8222 78
AltUni2: 00e9a8.ffffffff.0 00e9a8.ffffffff.0
Width: 498
GlyphClass: 1
Flags: W
LayerCount: 2
Fore
SplineSet
41 86 m 1,0,1
 41 127 41 127 69.5 155.5 c 128,-1,2
 98 184 98 184 139 184 c 0,3,4
 159 184 159 184 176.5 176.5 c 128,-1,5
 194 169 194 169 207.5 155.5 c 128,-1,6
 221 142 221 142 228.5 124 c 128,-1,7
 236 106 236 106 236 86 c 0,8,9
 236 68 236 68 230 51 c 2,10,-1
 153 -146 l 1,11,-1
 63 -146 l 1,12,-1
 116 -9 l 1,13,14
 84 -1 84 -1 62.5 25 c 128,-1,15
 41 51 41 51 41 86 c 1,16,-1
 41 86 l 1,0,1
263 86 m 1,17,18
 263 106 263 106 270.5 124 c 128,-1,19
 278 142 278 142 291.5 155.5 c 128,-1,20
 305 169 305 169 322.5 176.5 c 128,-1,21
 340 184 340 184 360 184 c 0,22,23
 401 184 401 184 429 155.5 c 128,-1,24
 457 127 457 127 457 86 c 0,25,26
 457 68 457 68 451 51 c 2,27,-1
 374 -146 l 1,28,-1
 285 -146 l 1,29,-1
 338 -9 l 1,30,31
 306 -1 306 -1 284.5 25 c 128,-1,32
 263 51 263 51 263 86 c 1,33,-1
 263 86 l 1,17,18
EndSplineSet
Validated: 5
EndChar

StartChar: dagger
Encoding: 8224 8224 79
AltUni2: 00e9a9.ffffffff.0 00e9a9.ffffffff.0
Width: 594
GlyphClass: 1
Flags: W
LayerCount: 2
Fore
SplineSet
41 496 m 1,0,-1
 225 496 l 1,1,-1
 225 668 l 1,2,-1
 369 668 l 1,3,-1
 369 496 l 1,4,-1
 553 496 l 1,5,-1
 553 380 l 1,6,-1
 369 380 l 1,7,-1
 369 0 l 1,8,-1
 225 0 l 1,9,-1
 225 380 l 1,10,-1
 41 380 l 1,11,-1
 41 496 l 1,0,-1
EndSplineSet
Validated: 1
EndChar

StartChar: daggerdbl
Encoding: 8225 8225 80
AltUni2: 00e9aa.ffffffff.0 00e9aa.ffffffff.0
Width: 594
GlyphClass: 1
Flags: W
LayerCount: 2
Fore
SplineSet
41 173 m 1,0,-1
 41 288 l 1,1,-1
 225 288 l 1,2,-1
 225 380 l 1,3,-1
 41 380 l 1,4,-1
 41 496 l 1,5,-1
 225 496 l 1,6,-1
 225 668 l 1,7,-1
 369 668 l 1,8,-1
 369 496 l 1,9,-1
 553 496 l 1,10,-1
 553 380 l 1,11,-1
 369 380 l 1,12,-1
 369 288 l 1,13,-1
 553 288 l 1,14,-1
 553 173 l 1,15,-1
 369 173 l 1,16,-1
 369 0 l 1,17,-1
 225 0 l 1,18,-1
 225 173 l 1,19,-1
 41 173 l 1,0,-1
EndSplineSet
Validated: 1
EndChar

StartChar: bullet
Encoding: 8226 8226 81
Width: 438
GlyphClass: 1
Flags: W
LayerCount: 2
Fore
SplineSet
53 254 m 1,0,1
 53 289 53 289 66 319 c 128,-1,2
 79 349 79 349 101.5 371.5 c 128,-1,3
 124 394 124 394 154.5 407 c 128,-1,4
 185 420 185 420 219 420 c 0,5,6
 254 420 254 420 284 407 c 128,-1,7
 314 394 314 394 336.5 371.5 c 128,-1,8
 359 349 359 349 372 319 c 128,-1,9
 385 289 385 289 385 254 c 0,10,11
 385 220 385 220 372 189.5 c 128,-1,12
 359 159 359 159 336.5 136.5 c 128,-1,13
 314 114 314 114 284 101 c 128,-1,14
 254 88 254 88 219 88 c 0,15,16
 185 88 185 88 154.5 101 c 128,-1,17
 124 114 124 114 101.5 136.5 c 128,-1,18
 79 159 79 159 66 189.5 c 128,-1,19
 53 220 53 220 53 254 c 1,20,-1
 53 254 l 1,0,1
EndSplineSet
Validated: 5
EndChar

StartChar: ellipsis
Encoding: 8230 8230 82
AltUni2: 00e9ac.ffffffff.0 00e9ac.ffffffff.0
Width: 803
GlyphClass: 1
Flags: W
LayerCount: 2
Fore
SplineSet
567 86 m 1,0,1
 567 127 567 127 595.5 155.5 c 128,-1,2
 624 184 624 184 665 184 c 256,3,4
 706 184 706 184 734 155.5 c 128,-1,5
 762 127 762 127 762 86 c 256,6,7
 762 45 762 45 734 16.5 c 128,-1,8
 706 -12 706 -12 665 -12 c 256,9,10
 624 -12 624 -12 595.5 16.5 c 128,-1,11
 567 45 567 45 567 86 c 1,12,-1
 567 86 l 1,0,1
41 86 m 1,13,14
 41 127 41 127 69.5 155.5 c 128,-1,15
 98 184 98 184 139 184 c 0,16,17
 159 184 159 184 176.5 176.5 c 128,-1,18
 194 169 194 169 207.5 155.5 c 128,-1,19
 221 142 221 142 228.5 124 c 128,-1,20
 236 106 236 106 236 86 c 256,21,22
 236 66 236 66 228.5 48 c 128,-1,23
 221 30 221 30 207.5 16.5 c 128,-1,24
 194 3 194 3 176.5 -4.5 c 128,-1,25
 159 -12 159 -12 139 -12 c 0,26,27
 98 -12 98 -12 69.5 16.5 c 128,-1,28
 41 45 41 45 41 86 c 1,29,-1
 41 86 l 1,13,14
305 86 m 1,30,31
 305 127 305 127 332.5 155.5 c 128,-1,32
 360 184 360 184 401 184 c 256,33,34
 442 184 442 184 470.5 155.5 c 128,-1,35
 499 127 499 127 499 86 c 256,36,37
 499 45 499 45 470.5 16.5 c 128,-1,38
 442 -12 442 -12 401 -12 c 256,39,40
 360 -12 360 -12 332.5 16.5 c 128,-1,41
 305 45 305 45 305 86 c 1,42,-1
 305 86 l 1,30,31
EndSplineSet
Validated: 5
EndChar

StartChar: perthousand
Encoding: 8240 8240 83
AltUni2: 00e9ad.ffffffff.0 00e9ad.ffffffff.0
Width: 1440
GlyphClass: 1
Flags: W
LayerCount: 2
Fore
SplineSet
773 382 m 1,0,1
 814 382 814 382 850 366.5 c 128,-1,2
 886 351 886 351 912.5 324.5 c 128,-1,3
 939 298 939 298 954.5 262.5 c 128,-1,4
 970 227 970 227 970 186 c 256,5,6
 970 145 970 145 954.5 109 c 128,-1,7
 939 73 939 73 912.5 46 c 128,-1,8
 886 19 886 19 850 3.5 c 128,-1,9
 814 -12 814 -12 773 -12 c 256,10,11
 732 -12 732 -12 696 3.5 c 128,-1,12
 660 19 660 19 633.5 46 c 128,-1,13
 607 73 607 73 591.5 109 c 128,-1,14
 576 145 576 145 576 186 c 256,15,16
 576 227 576 227 591.5 262.5 c 128,-1,17
 607 298 607 298 633.5 324.5 c 128,-1,18
 660 351 660 351 696 366.5 c 128,-1,19
 732 382 732 382 773 382 c 1,20,-1
 773 382 l 1,0,1
1005 186 m 1,21,22
 1005 227 1005 227 1020.5 262.5 c 128,-1,23
 1036 298 1036 298 1062.5 324.5 c 128,-1,24
 1089 351 1089 351 1125 366.5 c 128,-1,25
 1161 382 1161 382 1202 382 c 256,26,27
 1243 382 1243 382 1279 366.5 c 128,-1,28
 1315 351 1315 351 1341.5 324.5 c 128,-1,29
 1368 298 1368 298 1383.5 262.5 c 128,-1,30
 1399 227 1399 227 1399 186 c 256,31,32
 1399 145 1399 145 1383.5 109 c 128,-1,33
 1368 73 1368 73 1341.5 46 c 128,-1,34
 1315 19 1315 19 1279 3.5 c 128,-1,35
 1243 -12 1243 -12 1202 -12 c 256,36,37
 1161 -12 1161 -12 1125 3.5 c 128,-1,38
 1089 19 1089 19 1062.5 46 c 128,-1,39
 1036 73 1036 73 1020.5 109 c 128,-1,40
 1005 145 1005 145 1005 186 c 1,41,-1
 1005 186 l 1,21,22
238 680 m 1,42,43
 279 680 279 680 314.5 664.5 c 128,-1,44
 350 649 350 649 377 622.5 c 128,-1,45
 404 596 404 596 419.5 560 c 128,-1,46
 435 524 435 524 435 483 c 256,47,48
 435 442 435 442 419.5 406 c 128,-1,49
 404 370 404 370 377 343.5 c 128,-1,50
 350 317 350 317 314.5 301.5 c 128,-1,51
 279 286 279 286 238 286 c 256,52,53
 197 286 197 286 161 301.5 c 128,-1,54
 125 317 125 317 98.5 343.5 c 128,-1,55
 72 370 72 370 56.5 406 c 128,-1,56
 41 442 41 442 41 483 c 256,57,58
 41 524 41 524 56.5 560 c 128,-1,59
 72 596 72 596 98.5 622.5 c 128,-1,60
 125 649 125 649 161 664.5 c 128,-1,61
 197 680 197 680 238 680 c 1,62,-1
 238 680 l 1,42,43
694 186 m 1,63,64
 694 153 694 153 717.5 130 c 128,-1,65
 741 107 741 107 773 107 c 256,66,67
 805 107 805 107 828.5 130 c 128,-1,68
 852 153 852 153 852 186 c 0,69,70
 852 218 852 218 828.5 241 c 128,-1,71
 805 264 805 264 773 264 c 256,72,73
 741 264 741 264 717.5 241 c 128,-1,74
 694 218 694 218 694 186 c 1,75,-1
 694 186 l 1,63,64
1202 107 m 1,76,77
 1234 107 1234 107 1257 130 c 128,-1,78
 1280 153 1280 153 1280 186 c 0,79,80
 1280 218 1280 218 1257 241 c 128,-1,81
 1234 264 1234 264 1202 264 c 0,82,83
 1169 264 1169 264 1146 241 c 128,-1,84
 1123 218 1123 218 1123 186 c 0,85,86
 1123 153 1123 153 1146 130 c 128,-1,87
 1169 107 1169 107 1202 107 c 1,88,-1
 1202 107 l 1,76,77
160 483 m 1,89,90
 160 450 160 450 183 427 c 128,-1,91
 206 404 206 404 238 404 c 0,92,93
 271 404 271 404 294 427 c 128,-1,94
 317 450 317 450 317 483 c 0,95,96
 317 515 317 515 294 538 c 128,-1,97
 271 561 271 561 238 561 c 0,98,99
 206 561 206 561 183 538 c 128,-1,100
 160 515 160 515 160 483 c 1,101,-1
 160 483 l 1,89,90
676 668 m 1,102,-1
 803 668 l 1,103,-1
 335 0 l 1,104,-1
 209 0 l 1,105,-1
 676 668 l 1,102,-1
EndSplineSet
Validated: 5
EndChar

StartChar: guilsinglleft
Encoding: 8249 8249 84
AltUni2: 00e9ae.ffffffff.0 00e9ae.ffffffff.0
Width: 404
GlyphClass: 1
Flags: W
LayerCount: 2
Fore
SplineSet
189 40 m 1,0,-1
 41 250 l 1,1,-1
 189 461 l 1,2,-1
 362 461 l 1,3,-1
 214 250 l 1,4,-1
 363 40 l 1,5,-1
 189 40 l 1,0,-1
EndSplineSet
Validated: 1
EndChar

StartChar: guilsinglright
Encoding: 8250 8250 85
AltUni2: 00e9af.ffffffff.0 00e9af.ffffffff.0
Width: 404
GlyphClass: 1
Flags: W
LayerCount: 2
Fore
SplineSet
41 40 m 1,0,-1
 191 249 l 1,1,-1
 42 460 l 1,2,-1
 216 460 l 1,3,-1
 363 249 l 1,4,-1
 216 40 l 1,5,-1
 41 40 l 1,0,-1
EndSplineSet
Validated: 1
EndChar

StartChar: fraction
Encoding: 8260 8260 86
AltUni2: 00e9b0.ffffffff.0 00e9b0.ffffffff.0
Width: 624
GlyphClass: 1
Flags: W
LayerCount: 2
Fore
SplineSet
609 668 m 1,0,-1
 142 0 l 1,1,-1
 15 0 l 1,2,-1
 483 668 l 1,3,-1
 609 668 l 1,0,-1
EndSplineSet
Validated: 1
EndChar

StartChar: ordfeminine
Encoding: 170 170 87
AltUni2: 00e93d.ffffffff.0 00e93d.ffffffff.0
Width: 395
GlyphClass: 1
Flags: W
LayerCount: 2
Fore
SplineSet
79 550 m 1,0,1
 100 567 100 567 135.5 573.5 c 128,-1,2
 171 580 171 580 203 584 c 2,3,-1
 238 588 l 1,4,-1
 238 594 l 2,5,6
 238 623 238 623 198 623 c 0,7,8
 184 623 184 623 173 618 c 128,-1,9
 162 613 162 613 159 599 c 1,10,-1
 72 630 l 1,11,12
 87 661 87 661 122 676 c 128,-1,13
 157 691 157 691 210 691 c 0,14,15
 274 691 274 691 305.5 664.5 c 128,-1,16
 337 638 337 638 337 578 c 2,17,-1
 337 518 l 2,18,19
 337 492 337 492 337.5 463 c 128,-1,20
 338 434 338 434 342 403 c 1,21,-1
 258 403 l 1,22,-1
 249 435 l 1,23,24
 238 418 238 418 217 406.5 c 128,-1,25
 196 395 196 395 160 395 c 0,26,27
 134 395 134 395 114 403 c 128,-1,28
 94 411 94 411 80.5 424 c 128,-1,29
 67 437 67 437 60 454.5 c 128,-1,30
 53 472 53 472 53 491 c 0,31,32
 53 531 53 531 79 550 c 1,33,-1
 79 550 l 1,0,1
157 495 m 1,34,35
 157 484 157 484 165 475.5 c 128,-1,36
 173 467 173 467 190 467 c 0,37,38
 211 467 211 467 225.5 478 c 128,-1,39
 240 489 240 489 240 509 c 2,40,-1
 240 526 l 1,41,-1
 203 523 l 2,42,43
 176 521 176 521 166.5 513.5 c 128,-1,44
 157 506 157 506 157 495 c 1,45,-1
 157 495 l 1,34,35
EndSplineSet
Validated: 5
EndChar

StartChar: guillemotleft
Encoding: 171 171 88
AltUni2: 00e93e.ffffffff.0 00e93e.ffffffff.0
Width: 669
GlyphClass: 1
Flags: W
LayerCount: 2
Fore
SplineSet
53 251 m 1,0,-1
 201 461 l 1,1,-1
 374 461 l 1,2,-1
 226 251 l 1,3,-1
 375 40 l 1,4,-1
 201 40 l 1,5,-1
 53 251 l 1,0,-1
294 251 m 1,6,-1
 440 461 l 1,7,-1
 615 461 l 1,8,-1
 466 251 l 1,9,-1
 616 40 l 1,10,-1
 440 40 l 1,11,-1
 294 251 l 1,6,-1
EndSplineSet
Validated: 1
EndChar

StartChar: logicalnot
Encoding: 172 172 89
AltUni2: 00e93f.ffffffff.0 00e93f.ffffffff.0
Width: 618
GlyphClass: 1
Flags: W
LayerCount: 2
Fore
SplineSet
565 422 m 1,0,-1
 565 56 l 1,1,-1
 437 56 l 1,2,-1
 437 295 l 1,3,-1
 53 295 l 1,4,-1
 53 422 l 1,5,-1
 565 422 l 1,0,-1
EndSplineSet
Validated: 1
EndChar

StartChar: registered
Encoding: 174 174 90
AltUni2: 00e940.ffffffff.0 00e940.ffffffff.0
Width: 798
GlyphClass: 1
Flags: W
LayerCount: 2
Fore
SplineSet
53 334 m 1,0,1
 53 405 53 405 80 468 c 128,-1,2
 107 531 107 531 154 578 c 128,-1,3
 201 625 201 625 264 652 c 128,-1,4
 327 679 327 679 398 679 c 0,5,6
 470 679 470 679 533 652 c 128,-1,7
 596 625 596 625 643.5 578 c 128,-1,8
 691 531 691 531 718 468 c 128,-1,9
 745 405 745 405 745 334 c 0,10,11
 745 262 745 262 718 199 c 128,-1,12
 691 136 691 136 643.5 89 c 128,-1,13
 596 42 596 42 533 15 c 128,-1,14
 470 -12 470 -12 398 -12 c 0,15,16
 327 -12 327 -12 264 15 c 128,-1,17
 201 42 201 42 154 89 c 128,-1,18
 107 136 107 136 80 199 c 128,-1,19
 53 262 53 262 53 334 c 1,20,-1
 53 334 l 1,0,1
123 334 m 1,21,22
 123 277 123 277 144.5 226.5 c 128,-1,23
 166 176 166 176 203.5 138.5 c 128,-1,24
 241 101 241 101 291 79 c 128,-1,25
 341 57 341 57 398 57 c 256,26,27
 455 57 455 57 505.5 79 c 128,-1,28
 556 101 556 101 593.5 138.5 c 128,-1,29
 631 176 631 176 653 226.5 c 128,-1,30
 675 277 675 277 675 334 c 256,31,32
 675 391 675 391 653 441.5 c 128,-1,33
 631 492 631 492 593.5 529.5 c 128,-1,34
 556 567 556 567 505.5 588.5 c 128,-1,35
 455 610 455 610 398 610 c 256,36,37
 341 610 341 610 291 588.5 c 128,-1,38
 241 567 241 567 203.5 529.5 c 128,-1,39
 166 492 166 492 144.5 441.5 c 128,-1,40
 123 391 123 391 123 334 c 1,41,-1
 123 334 l 1,21,22
241 529 m 1,42,-1
 392 529 l 2,43,44
 428 529 428 529 458.5 524 c 128,-1,45
 489 519 489 519 511.5 506.5 c 128,-1,46
 534 494 534 494 546.5 472 c 128,-1,47
 559 450 559 450 559 415 c 0,48,49
 559 399 559 399 555 383.5 c 128,-1,50
 551 368 551 368 541.5 354 c 128,-1,51
 532 340 532 340 515 328.5 c 128,-1,52
 498 317 498 317 472 310 c 1,53,-1
 579 161 l 1,54,-1
 471 161 l 1,55,-1
 370 300 l 1,56,-1
 338 300 l 1,57,-1
 338 161 l 1,58,-1
 241 161 l 1,59,-1
 241 529 l 1,60,-1
 241 529 l 1,42,-1
390 375 m 1,61,62
 419 375 419 375 438.5 382.5 c 128,-1,63
 458 390 458 390 458 414 c 256,64,65
 458 438 458 438 438.5 445.5 c 128,-1,66
 419 453 419 453 390 453 c 2,67,-1
 338 453 l 1,68,-1
 338 375 l 1,69,-1
 390 375 l 1,70,-1
 390 375 l 1,61,62
EndSplineSet
Validated: 5
EndChar

StartChar: macron
Encoding: 175 175 91
Width: 405
GlyphClass: 1
Flags: W
LayerCount: 2
Fore
SplineSet
53 570 m 1,0,-1
 53 668 l 1,1,-1
 352 668 l 1,2,-1
 352 570 l 1,3,-1
 53 570 l 1,0,-1
EndSplineSet
Validated: 1
Substitution2: "'case' Case-Sensitive Forms lookup 1 subtable" macron.case
EndChar

StartChar: degree
Encoding: 176 176 92
AltUni2: 00e941.ffffffff.0 00e941.ffffffff.0
Width: 404
GlyphClass: 1
Flags: W
LayerCount: 2
Fore
SplineSet
40 517 m 1,0,1
 40 550 40 550 53 579.5 c 128,-1,2
 66 609 66 609 88 631 c 128,-1,3
 110 653 110 653 139.5 666 c 128,-1,4
 169 679 169 679 202 679 c 0,5,6
 236 679 236 679 265.5 666 c 128,-1,7
 295 653 295 653 317 631 c 128,-1,8
 339 609 339 609 351.5 579.5 c 128,-1,9
 364 550 364 550 364 517 c 0,10,11
 364 483 364 483 351.5 453.5 c 128,-1,12
 339 424 339 424 317 402 c 128,-1,13
 295 380 295 380 265.5 367 c 128,-1,14
 236 354 236 354 202 354 c 0,15,16
 169 354 169 354 139.5 367 c 128,-1,17
 110 380 110 380 88 402 c 128,-1,18
 66 424 66 424 53 453.5 c 128,-1,19
 40 483 40 483 40 517 c 1,20,-1
 40 517 l 1,0,1
202 444 m 1,21,22
 233 444 233 444 254 465.5 c 128,-1,23
 275 487 275 487 275 517 c 256,24,25
 275 547 275 547 254 568.5 c 128,-1,26
 233 590 233 590 202 590 c 0,27,28
 172 590 172 590 150.5 568.5 c 128,-1,29
 129 547 129 547 129 517 c 256,30,31
 129 487 129 487 150.5 465.5 c 128,-1,32
 172 444 172 444 202 444 c 1,33,-1
 202 444 l 1,21,22
EndSplineSet
Validated: 5
EndChar

StartChar: plusminus
Encoding: 177 177 93
AltUni2: 00e942.ffffffff.0 00e942.ffffffff.0
Width: 618
GlyphClass: 1
Flags: W
LayerCount: 2
Fore
SplineSet
53 391 m 1,0,-1
 245 391 l 1,1,-1
 245 495 l 1,2,-1
 373 495 l 1,3,-1
 373 391 l 1,4,-1
 565 391 l 1,5,-1
 565 283 l 1,6,-1
 373 283 l 1,7,-1
 373 180 l 1,8,-1
 245 180 l 1,9,-1
 245 283 l 1,10,-1
 53 283 l 1,11,-1
 53 391 l 1,0,-1
53 128 m 1,12,-1
 565 128 l 1,13,-1
 565 0 l 1,14,-1
 53 0 l 1,15,-1
 53 128 l 1,12,-1
EndSplineSet
Validated: 1
EndChar

StartChar: uni00B2
Encoding: 178 178 94
AltUni2: 00e943.ffffffff.0 00e943.ffffffff.0
Width: 407
GlyphClass: 1
Flags: W
LayerCount: 2
Fore
SplineSet
53 484 m 1,0,-1
 89 509 l 2,1,2
 115 527 115 527 143.5 547 c 128,-1,3
 172 567 172 567 196 588.5 c 128,-1,4
 220 610 220 610 235.5 631.5 c 128,-1,5
 251 653 251 653 251 673 c 0,6,7
 251 691 251 691 238.5 700 c 128,-1,8
 226 709 226 709 208 709 c 0,9,10
 186 709 186 709 172.5 697 c 128,-1,11
 159 685 159 685 155 666 c 1,12,-1
 64 699 l 1,13,14
 80 741 80 741 118 763 c 128,-1,15
 156 785 156 785 213 785 c 0,16,17
 243 785 243 785 269 778.5 c 128,-1,18
 295 772 295 772 313.5 758.5 c 128,-1,19
 332 745 332 745 343 725 c 128,-1,20
 354 705 354 705 354 677 c 256,21,22
 354 649 354 649 343 625.5 c 128,-1,23
 332 602 332 602 311 580 c 128,-1,24
 290 558 290 558 260.5 536 c 128,-1,25
 231 514 231 514 195 490 c 1,26,-1
 353 490 l 1,27,-1
 353 403 l 1,28,-1
 53 403 l 1,29,-1
 53 484 l 1,30,-1
 53 484 l 1,0,-1
EndSplineSet
Validated: 5
EndChar

StartChar: uni00B3
Encoding: 179 179 95
AltUni2: 00e944.ffffffff.0 00e944.ffffffff.0
Width: 413
GlyphClass: 1
Flags: W
LayerCount: 2
Fore
SplineSet
53 478 m 1,0,-1
 144 511 l 1,1,2
 151 491 151 491 167.5 481.5 c 128,-1,3
 184 472 184 472 205 472 c 0,4,5
 231 472 231 472 243 483.5 c 128,-1,6
 255 495 255 495 255 512 c 0,7,8
 255 534 255 534 236.5 543 c 128,-1,9
 218 552 218 552 182 552 c 2,10,-1
 167 552 l 1,11,-1
 167 636 l 1,12,-1
 182 636 l 2,13,14
 247 636 247 636 247 674 c 0,15,16
 247 693 247 693 232.5 701 c 128,-1,17
 218 709 218 709 201 709 c 0,18,19
 183 709 183 709 168 700.5 c 128,-1,20
 153 692 153 692 147 675 c 1,21,-1
 58 708 l 1,22,23
 75 746 75 746 113 765.5 c 128,-1,24
 151 785 151 785 205 785 c 0,25,26
 268 785 268 785 309 758.5 c 128,-1,27
 350 732 350 732 350 683 c 0,28,29
 350 653 350 653 335.5 631.5 c 128,-1,30
 321 610 321 610 301 600 c 1,31,32
 328 590 328 590 344 566.5 c 128,-1,33
 360 543 360 543 360 510 c 0,34,35
 360 482 360 482 347.5 460.5 c 128,-1,36
 335 439 335 439 313 424.5 c 128,-1,37
 291 410 291 410 263 402.5 c 128,-1,38
 235 395 235 395 203 395 c 0,39,40
 148 395 148 395 109.5 416.5 c 128,-1,41
 71 438 71 438 53 478 c 1,42,-1
 53 478 l 1,0,-1
EndSplineSet
Validated: 5
EndChar

StartChar: acute
Encoding: 180 180 96
AltUni2: 00e9cb.ffffffff.0 00e9cb.ffffffff.0
Width: 314
GlyphClass: 1
Flags: W
LayerCount: 2
Fore
SplineSet
164 709 m 1,0,1
 167 713 167 713 177 720 c 128,-1,2
 187 727 187 727 205 727 c 0,3,4
 229 727 229 727 245 711 c 128,-1,5
 261 695 261 695 261 671 c 0,6,7
 261 645 261 645 242 629 c 2,8,-1
 167 574 l 1,9,-1
 53 574 l 1,10,-1
 164 709 l 1,11,-1
 164 709 l 1,0,1
EndSplineSet
Validated: 5
Substitution2: "'case' Case-Sensitive Forms lookup 1 subtable" acute.case
EndChar

StartChar: uni03BC
Encoding: 956 956 97
AltUni2: 00e945.ffffffff.0 00e945.ffffffff.0
Width: 570
GlyphClass: 1
Flags: W
LayerCount: 2
Fore
SplineSet
50 -162 m 1,0,-1
 50 495 l 1,1,-1
 202 495 l 1,2,-1
 202 230 l 2,3,4
 202 193 202 193 205.5 169 c 128,-1,5
 209 145 209 145 218 131 c 128,-1,6
 227 117 227 117 241.5 111.5 c 128,-1,7
 256 106 256 106 277 106 c 0,8,9
 325 106 325 106 345.5 133 c 128,-1,10
 366 160 366 160 366 230 c 2,11,-1
 366 495 l 1,12,-1
 519 495 l 1,13,-1
 519 0 l 1,14,-1
 381 0 l 1,15,-1
 368 43 l 1,16,17
 351 14 351 14 327.5 1 c 128,-1,18
 304 -12 304 -12 279 -12 c 0,19,20
 235 -12 235 -12 202 18 c 1,21,-1
 202 -162 l 1,22,-1
 50 -162 l 1,23,-1
 50 -162 l 1,0,-1
EndSplineSet
Validated: 5
EndChar

StartChar: paragraph
Encoding: 182 182 98
AltUni2: 00e946.ffffffff.0 00e946.ffffffff.0
Width: 515
GlyphClass: 1
Flags: W
LayerCount: 2
Fore
SplineSet
24 478 m 1,0,1
 24 517 24 517 39 551.5 c 128,-1,2
 54 586 54 586 79.5 611.5 c 128,-1,3
 105 637 105 637 139.5 652 c 128,-1,4
 174 667 174 667 213 667 c 2,5,-1
 495 667 l 1,6,-1
 495 600 l 1,7,-1
 448 600 l 1,8,-1
 448 -162 l 1,9,-1
 353 -162 l 1,10,-1
 353 600 l 1,11,-1
 261 600 l 1,12,-1
 261 -162 l 1,13,-1
 166 -162 l 1,14,-1
 166 295 l 1,15,16
 136 303 136 303 110 320 c 128,-1,17
 84 337 84 337 65 361 c 128,-1,18
 46 385 46 385 35 415 c 128,-1,19
 24 445 24 445 24 478 c 1,20,-1
 24 478 l 1,0,1
EndSplineSet
Validated: 5
EndChar

StartChar: periodcentered
Encoding: 183 183 99
AltUni2: 00e947.ffffffff.0 00e947.ffffffff.0
Width: 301
GlyphClass: 1
Flags: W
LayerCount: 2
Fore
SplineSet
53 248 m 1,0,1
 53 289 53 289 81.5 317 c 128,-1,2
 110 345 110 345 151 345 c 0,3,4
 171 345 171 345 188.5 337.5 c 128,-1,5
 206 330 206 330 219.5 317 c 128,-1,6
 233 304 233 304 240.5 286 c 128,-1,7
 248 268 248 268 248 248 c 256,8,9
 248 228 248 228 240.5 210 c 128,-1,10
 233 192 233 192 219.5 179 c 128,-1,11
 206 166 206 166 188.5 158.5 c 128,-1,12
 171 151 171 151 151 151 c 0,13,14
 110 151 110 151 81.5 179 c 128,-1,15
 53 207 53 207 53 248 c 1,16,-1
 53 248 l 1,0,1
EndSplineSet
Validated: 5
EndChar

StartChar: cedilla
Encoding: 184 184 100
AltUni2: 00e9cd.ffffffff.0 00e9cd.ffffffff.0
Width: 321
GlyphClass: 1
Flags: W
LayerCount: 2
Fore
SplineSet
73 -174 m 1,0,-1
 89 -124 l 1,1,2
 97 -129 97 -129 114.5 -133 c 128,-1,3
 132 -137 132 -137 150 -137 c 256,4,5
 168 -137 168 -137 181 -131 c 128,-1,6
 194 -125 194 -125 194 -110 c 0,7,8
 194 -98 194 -98 184 -91 c 128,-1,9
 174 -84 174 -84 157 -84 c 0,10,11
 145 -84 145 -84 130 -89 c 0,12,13
 121 -92 121 -92 113 -87 c 0,14,15
 105 -83 105 -83 102.5 -75 c 128,-1,16
 100 -67 100 -67 105 -59 c 2,17,-1
 157 25 l 1,18,-1
 198 0 l 1,19,-1
 168 -48 l 1,20,21
 182 -45 182 -45 202 -45 c 0,22,23
 216 -45 216 -45 231.5 -48 c 128,-1,24
 247 -51 247 -51 259.5 -58.5 c 128,-1,25
 272 -66 272 -66 280 -78 c 128,-1,26
 288 -90 288 -90 288 -107 c 0,27,28
 288 -129 288 -129 277 -144 c 128,-1,29
 266 -159 266 -159 248.5 -168.5 c 128,-1,30
 231 -178 231 -178 208 -182.5 c 128,-1,31
 185 -187 185 -187 161 -187 c 256,32,33
 137 -187 137 -187 114.5 -183.5 c 128,-1,34
 92 -180 92 -180 73 -174 c 1,35,-1
 73 -174 l 1,0,-1
EndSplineSet
Validated: 5
EndChar

StartChar: uni00B9
Encoding: 185 185 101
AltUni2: 00e948.ffffffff.0 00e948.ffffffff.0
Width: 291
GlyphClass: 1
Flags: W
LayerCount: 2
Fore
SplineSet
53 647 m 1,0,-1
 53 734 l 1,1,2
 94 734 94 734 121.5 741 c 128,-1,3
 149 748 149 748 159 779 c 1,4,-1
 238 779 l 1,5,-1
 238 403 l 1,6,-1
 137 403 l 1,7,-1
 137 647 l 1,8,-1
 53 647 l 1,9,-1
 53 647 l 1,0,-1
EndSplineSet
Validated: 5
EndChar

StartChar: ordmasculine
Encoding: 186 186 102
AltUni2: 00e949.ffffffff.0 00e949.ffffffff.0
Width: 409
GlyphClass: 1
Flags: W
LayerCount: 2
Fore
SplineSet
57 542 m 1,0,1
 57 580 57 580 69 607.5 c 128,-1,2
 81 635 81 635 102 653 c 128,-1,3
 123 671 123 671 150.5 680 c 128,-1,4
 178 689 178 689 209 689 c 256,5,6
 240 689 240 689 267.5 680 c 128,-1,7
 295 671 295 671 315.5 653 c 128,-1,8
 336 635 336 635 348 607.5 c 128,-1,9
 360 580 360 580 360 542 c 0,10,11
 360 505 360 505 348 477 c 128,-1,12
 336 449 336 449 315.5 431 c 128,-1,13
 295 413 295 413 267.5 404 c 128,-1,14
 240 395 240 395 209 395 c 256,15,16
 178 395 178 395 150.5 404 c 128,-1,17
 123 413 123 413 102 431 c 128,-1,18
 81 449 81 449 69 477 c 128,-1,19
 57 505 57 505 57 542 c 1,20,-1
 57 542 l 1,0,1
209 472 m 1,21,22
 230 472 230 472 244 489.5 c 128,-1,23
 258 507 258 507 258 542 c 256,24,25
 258 577 258 577 244 594.5 c 128,-1,26
 230 612 230 612 209 612 c 0,27,28
 189 612 189 612 174.5 594.5 c 128,-1,29
 160 577 160 577 160 542 c 256,30,31
 160 507 160 507 174.5 489.5 c 128,-1,32
 189 472 189 472 209 472 c 1,33,-1
 209 472 l 1,21,22
EndSplineSet
Validated: 5
EndChar

StartChar: guillemotright
Encoding: 187 187 103
AltUni2: 00e94a.ffffffff.0 00e94a.ffffffff.0
Width: 669
GlyphClass: 1
Flags: W
LayerCount: 2
Fore
SplineSet
53 40 m 1,0,-1
 203 251 l 1,1,-1
 54 461 l 1,2,-1
 228 461 l 1,3,-1
 375 251 l 1,4,-1
 228 40 l 1,5,-1
 53 40 l 1,0,-1
442 251 m 1,6,-1
 294 461 l 1,7,-1
 468 461 l 1,8,-1
 616 251 l 1,9,-1
 468 40 l 1,10,-1
 294 40 l 1,11,-1
 442 251 l 1,6,-1
EndSplineSet
Validated: 1
EndChar

StartChar: onequarter
Encoding: 188 188 104
AltUni2: 00e94b.ffffffff.0 00e94b.ffffffff.0
Width: 853
GlyphClass: 1
Flags: W
LayerCount: 2
Fore
SplineSet
53 535 m 1,0,-1
 53 623 l 1,1,2
 94 623 94 623 121.5 629.5 c 128,-1,3
 149 636 149 636 159 667 c 1,4,-1
 238 667 l 1,5,-1
 238 292 l 1,6,-1
 137 292 l 1,7,-1
 137 535 l 1,8,-1
 53 535 l 1,9,-1
 53 535 l 1,0,-1
110 0 m 1,10,-1
 578 667 l 1,11,-1
 705 667 l 1,12,-1
 237 0 l 1,13,-1
 110 0 l 1,10,-1
460 152 m 1,14,-1
 641 375 l 1,15,-1
 742 375 l 1,16,-1
 742 161 l 1,17,-1
 800 161 l 1,18,-1
 800 74 l 1,19,-1
 742 74 l 1,20,-1
 742 0 l 1,21,-1
 641 0 l 1,22,-1
 641 74 l 1,23,-1
 460 74 l 1,24,-1
 460 152 l 1,14,-1
641 161 m 1,25,-1
 641 256 l 1,26,-1
 563 161 l 1,27,-1
 641 161 l 1,25,-1
EndSplineSet
Validated: 5
Ligature2: "'frac' Diagonal Fractions lookup 2 subtable" one slash four
EndChar

StartChar: onehalf
Encoding: 189 189 105
AltUni2: 00e94c.ffffffff.0 00e94c.ffffffff.0
Width: 856
GlyphClass: 1
Flags: W
LayerCount: 2
Fore
SplineSet
502 81 m 1,0,1
 527 99 527 99 561 121.5 c 128,-1,2
 595 144 595 144 626 169 c 128,-1,3
 657 194 657 194 678.5 219 c 128,-1,4
 700 244 700 244 700 266 c 0,5,6
 700 287 700 287 687.5 296.5 c 128,-1,7
 675 306 675 306 657 306 c 0,8,9
 634 306 634 306 621 294 c 128,-1,10
 608 282 608 282 603 263 c 1,11,-1
 512 296 l 1,12,13
 528 338 528 338 566 359.5 c 128,-1,14
 604 381 604 381 661 381 c 0,15,16
 691 381 691 381 717 374.5 c 128,-1,17
 743 368 743 368 762 355 c 128,-1,18
 781 342 781 342 792 321.5 c 128,-1,19
 803 301 803 301 803 274 c 0,20,21
 803 246 803 246 791.5 222.5 c 128,-1,22
 780 199 780 199 759.5 177 c 128,-1,23
 739 155 739 155 709.5 133 c 128,-1,24
 680 111 680 111 644 87 c 1,25,-1
 802 87 l 1,26,-1
 802 0 l 1,27,-1
 502 0 l 1,28,-1
 502 81 l 1,29,-1
 502 81 l 1,0,1
53 535 m 1,30,-1
 53 623 l 1,31,32
 94 623 94 623 121.5 629.5 c 128,-1,33
 149 636 149 636 159 667 c 1,34,-1
 238 667 l 1,35,-1
 238 292 l 1,36,-1
 137 292 l 1,37,-1
 137 535 l 1,38,-1
 53 535 l 1,39,-1
 53 535 l 1,30,-1
578 667 m 1,40,-1
 705 667 l 1,41,-1
 237 0 l 1,42,-1
 110 0 l 1,43,-1
 578 667 l 1,40,-1
EndSplineSet
Validated: 5
Ligature2: "'frac' Diagonal Fractions lookup 2 subtable" one slash two
EndChar

StartChar: threequarters
Encoding: 190 190 106
AltUni2: 00e94d.ffffffff.0 00e94d.ffffffff.0
Width: 959
GlyphClass: 1
Flags: W
LayerCount: 2
Fore
SplineSet
144 404 m 1,0,1
 151 385 151 385 167.5 375.5 c 128,-1,2
 184 366 184 366 205 366 c 0,3,4
 231 366 231 366 243 377 c 128,-1,5
 255 388 255 388 255 404 c 0,6,7
 255 427 255 427 236.5 436.5 c 128,-1,8
 218 446 218 446 182 446 c 2,9,-1
 167 446 l 1,10,-1
 167 530 l 1,11,-1
 182 530 l 2,12,13
 247 530 247 530 247 569 c 0,14,15
 247 586 247 586 232.5 594.5 c 128,-1,16
 218 603 218 603 201 603 c 0,17,18
 183 603 183 603 168 594.5 c 128,-1,19
 153 586 153 586 147 569 c 1,20,-1
 58 602 l 1,21,22
 75 640 75 640 113.5 659.5 c 128,-1,23
 152 679 152 679 208 679 c 0,24,25
 269 679 269 679 309.5 652.5 c 128,-1,26
 350 626 350 626 350 577 c 0,27,28
 350 547 350 547 335.5 525.5 c 128,-1,29
 321 504 321 504 301 494 c 1,30,31
 328 484 328 484 344 460.5 c 128,-1,32
 360 437 360 437 360 404 c 0,33,34
 360 377 360 377 347.5 355.5 c 128,-1,35
 335 334 335 334 313 319.5 c 128,-1,36
 291 305 291 305 263 297.5 c 128,-1,37
 235 290 235 290 203 290 c 0,38,39
 148 290 148 290 109.5 311.5 c 128,-1,40
 71 333 71 333 53 372 c 1,41,-1
 144 404 l 1,42,-1
 144 404 l 1,0,1
668 667 m 1,43,-1
 795 667 l 1,44,-1
 327 0 l 1,45,-1
 200 0 l 1,46,-1
 668 667 l 1,43,-1
748 375 m 1,47,-1
 849 375 l 1,48,-1
 849 161 l 1,49,-1
 906 161 l 1,50,-1
 906 74 l 1,51,-1
 849 74 l 1,52,-1
 849 0 l 1,53,-1
 748 0 l 1,54,-1
 748 74 l 1,55,-1
 567 74 l 1,56,-1
 567 152 l 1,57,-1
 748 375 l 1,47,-1
669 161 m 1,58,-1
 748 161 l 1,59,-1
 748 256 l 1,60,-1
 669 161 l 1,58,-1
EndSplineSet
Validated: 5
Ligature2: "'frac' Diagonal Fractions lookup 2 subtable" three slash four
EndChar

StartChar: less
Encoding: 60 60 107
AltUni2: 00e923.ffffffff.0 00e923.ffffffff.0
Width: 573
GlyphClass: 1
Flags: W
LayerCount: 2
Fore
SplineSet
533 510 m 1,0,-1
 533 368 l 1,1,-1
 209 250 l 1,2,-1
 533 130 l 1,3,-1
 533 -12 l 1,4,-1
 40 200 l 1,5,-1
 40 299 l 1,6,-1
 533 510 l 1,0,-1
EndSplineSet
Validated: 1
EndChar

StartChar: equal
Encoding: 61 61 108
AltUni2: 00e924.ffffffff.0 00e924.ffffffff.0
Width: 618
GlyphClass: 1
Flags: W
LayerCount: 2
Fore
SplineSet
53 283 m 1,0,-1
 53 410 l 1,1,-1
 565 410 l 1,2,-1
 565 283 l 1,3,-1
 53 283 l 1,0,-1
565 225 m 1,4,-1
 565 96 l 1,5,-1
 53 96 l 1,6,-1
 53 225 l 1,7,-1
 565 225 l 1,4,-1
EndSplineSet
Validated: 1
EndChar

StartChar: greater
Encoding: 62 62 109
AltUni2: 00e925.ffffffff.0 00e925.ffffffff.0
Width: 573
GlyphClass: 1
Flags: W
LayerCount: 2
Fore
SplineSet
40 368 m 1,0,-1
 40 510 l 1,1,-1
 533 299 l 1,2,-1
 533 200 l 1,3,-1
 40 -12 l 1,4,-1
 40 130 l 1,5,-1
 365 250 l 1,6,-1
 40 368 l 1,0,-1
EndSplineSet
Validated: 1
EndChar

StartChar: question
Encoding: 63 63 110
AltUni2: 00e926.ffffffff.0 00e926.ffffffff.0
Width: 614
GlyphClass: 1
Flags: W
LayerCount: 2
Fore
SplineSet
40 536 m 1,0,1
 68 606 68 606 138.5 643 c 128,-1,2
 209 680 209 680 309 680 c 0,3,4
 358 680 358 680 404 669.5 c 128,-1,5
 450 659 450 659 485.5 638 c 128,-1,6
 521 617 521 617 542.5 585 c 128,-1,7
 564 553 564 553 564 509 c 0,8,9
 564 476 564 476 554.5 451 c 128,-1,10
 545 426 545 426 528 406.5 c 128,-1,11
 511 387 511 387 488 372 c 128,-1,12
 465 357 465 357 438 345 c 0,13,14
 414 334 414 334 396 324 c 128,-1,15
 378 314 378 314 366 303 c 128,-1,16
 354 292 354 292 347.5 277.5 c 128,-1,17
 341 263 341 263 340 243 c 1,18,-1
 186 243 l 1,19,20
 186 278 186 278 191.5 304 c 128,-1,21
 197 330 197 330 210 349.5 c 128,-1,22
 223 369 223 369 243 384.5 c 128,-1,23
 263 400 263 400 291 415 c 2,24,-1
 329 433 l 2,25,26
 344 439 344 439 358 446 c 128,-1,27
 372 453 372 453 383 461 c 128,-1,28
 394 469 394 469 401 479 c 128,-1,29
 408 489 408 489 408 501 c 0,30,31
 408 526 408 526 379.5 542 c 128,-1,32
 351 558 351 558 303 558 c 0,33,34
 258 558 258 558 224 541 c 128,-1,35
 190 524 190 524 177 486 c 1,36,-1
 40 536 l 1,37,-1
 40 536 l 1,0,1
264 183 m 1,38,39
 305 183 305 183 333 155 c 128,-1,40
 361 127 361 127 361 86 c 256,41,42
 361 45 361 45 333 16.5 c 128,-1,43
 305 -12 305 -12 264 -12 c 256,44,45
 223 -12 223 -12 195 16.5 c 128,-1,46
 167 45 167 45 167 86 c 256,47,48
 167 127 167 127 195 155 c 128,-1,49
 223 183 223 183 264 183 c 1,50,-1
 264 183 l 1,38,39
EndSplineSet
Validated: 5
EndChar

StartChar: at
Encoding: 64 64 111
AltUni2: 00e92c.ffffffff.0 00e92c.ffffffff.0
Width: 754
GlyphClass: 1
Flags: W
LayerCount: 2
Fore
SplineSet
35 334 m 1,0,1
 35 405 35 405 62 468 c 128,-1,2
 89 531 89 531 136.5 578 c 128,-1,3
 184 625 184 625 247 652.5 c 128,-1,4
 310 680 310 680 382 680 c 0,5,6
 451 680 451 680 512.5 654.5 c 128,-1,7
 574 629 574 629 619.5 585 c 128,-1,8
 665 541 665 541 692 480.5 c 128,-1,9
 719 420 719 420 719 350 c 2,10,-1
 719 338 l 2,11,12
 717 290 717 290 701.5 255 c 128,-1,13
 686 220 686 220 663.5 197.5 c 128,-1,14
 641 175 641 175 613.5 164 c 128,-1,15
 586 153 586 153 559 153 c 0,16,17
 524 153 524 153 495.5 170 c 128,-1,18
 467 187 467 187 454 219 c 1,19,20
 431 187 431 187 400 171 c 128,-1,21
 369 155 369 155 337 155 c 0,22,23
 311 155 311 155 286 165.5 c 128,-1,24
 261 176 261 176 242 196.5 c 128,-1,25
 223 217 223 217 211.5 247 c 128,-1,26
 200 277 200 277 200 317 c 0,27,28
 200 374 200 374 216 412.5 c 128,-1,29
 232 451 232 451 259 474.5 c 128,-1,30
 286 498 286 498 321 508 c 128,-1,31
 356 518 356 518 394 518 c 0,32,33
 424 518 424 518 454.5 512.5 c 128,-1,34
 485 507 485 507 513 498 c 1,35,-1
 513 309 l 2,36,37
 513 274 513 274 529.5 257 c 128,-1,38
 546 240 546 240 567 240 c 0,39,40
 592 240 592 240 615 264.5 c 128,-1,41
 638 289 638 289 642 343 c 1,42,-1
 642 356 l 2,43,44
 642 411 642 411 621 457.5 c 128,-1,45
 600 504 600 504 564.5 538 c 128,-1,46
 529 572 529 572 481.5 591 c 128,-1,47
 434 610 434 610 380 610 c 0,48,49
 322 610 322 610 272 588 c 128,-1,50
 222 566 222 566 184.5 528 c 128,-1,51
 147 490 147 490 125.5 440 c 128,-1,52
 104 390 104 390 104 333 c 256,53,54
 104 276 104 276 126 225.5 c 128,-1,55
 148 175 148 175 186 138 c 128,-1,56
 224 101 224 101 274.5 79.5 c 128,-1,57
 325 58 325 58 383 58 c 0,58,59
 453 58 453 58 516 94 c 1,60,-1
 516 16 l 1,61,62
 452 -12 452 -12 380 -12 c 0,63,64
 309 -12 309 -12 246 15 c 128,-1,65
 183 42 183 42 136 89 c 128,-1,66
 89 136 89 136 62 199 c 128,-1,67
 35 262 35 262 35 334 c 1,68,-1
 35 334 l 1,0,1
297 319 m 1,69,70
 297 284 297 284 313.5 267 c 128,-1,71
 330 250 330 250 352 250 c 0,72,73
 376 250 376 250 397.5 272 c 128,-1,74
 419 294 419 294 419 339 c 2,75,-1
 419 423 l 1,76,77
 411 425 411 425 401.5 426 c 128,-1,78
 392 427 392 427 382 427 c 0,79,80
 366 427 366 427 351 422.5 c 128,-1,81
 336 418 336 418 324 406 c 128,-1,82
 312 394 312 394 304.5 373 c 128,-1,83
 297 352 297 352 297 319 c 1,84,-1
 297 319 l 1,69,70
EndSplineSet
Validated: 5
EndChar

StartChar: colon
Encoding: 58 58 112
AltUni2: 00e921.ffffffff.0 00e921.ffffffff.0
Width: 277
GlyphClass: 1
Flags: W
LayerCount: 2
Fore
SplineSet
41 86 m 1,0,1
 41 127 41 127 69.5 155 c 128,-1,2
 98 183 98 183 139 183 c 0,3,4
 159 183 159 183 176.5 175.5 c 128,-1,5
 194 168 194 168 207.5 155 c 128,-1,6
 221 142 221 142 228.5 124 c 128,-1,7
 236 106 236 106 236 86 c 256,8,9
 236 66 236 66 228.5 48 c 128,-1,10
 221 30 221 30 207.5 16.5 c 128,-1,11
 194 3 194 3 176.5 -4.5 c 128,-1,12
 159 -12 159 -12 139 -12 c 0,13,14
 98 -12 98 -12 69.5 16.5 c 128,-1,15
 41 45 41 45 41 86 c 1,16,-1
 41 86 l 1,0,1
139 510 m 1,17,18
 159 510 159 510 176.5 502.5 c 128,-1,19
 194 495 194 495 207.5 481.5 c 128,-1,20
 221 468 221 468 228.5 450 c 128,-1,21
 236 432 236 432 236 412 c 256,22,23
 236 392 236 392 228.5 374.5 c 128,-1,24
 221 357 221 357 207.5 344 c 128,-1,25
 194 331 194 331 176.5 323.5 c 128,-1,26
 159 316 159 316 139 316 c 256,27,28
 119 316 119 316 101 323.5 c 128,-1,29
 83 331 83 331 69.5 344 c 128,-1,30
 56 357 56 357 48.5 374.5 c 128,-1,31
 41 392 41 392 41 412 c 0,32,33
 41 453 41 453 69.5 481.5 c 128,-1,34
 98 510 98 510 139 510 c 1,35,-1
 139 510 l 1,17,18
EndSplineSet
Validated: 5
EndChar

StartChar: semicolon
Encoding: 59 59 113
AltUni2: 00e922.ffffffff.0 00e922.ffffffff.0
Width: 277
GlyphClass: 1
Flags: W
LayerCount: 2
Fore
SplineSet
139 183 m 1,0,1
 159 183 159 183 176.5 175.5 c 128,-1,2
 194 168 194 168 207.5 155 c 128,-1,3
 221 142 221 142 228.5 124 c 128,-1,4
 236 106 236 106 236 86 c 0,5,6
 236 67 236 67 230 50 c 2,7,-1
 153 -146 l 1,8,-1
 63 -146 l 1,9,-1
 116 -9 l 1,10,11
 84 -1 84 -1 62.5 25 c 128,-1,12
 41 51 41 51 41 86 c 0,13,14
 41 127 41 127 69.5 155 c 128,-1,15
 98 183 98 183 139 183 c 1,16,-1
 139 183 l 1,0,1
139 510 m 1,17,18
 159 510 159 510 176.5 502.5 c 128,-1,19
 194 495 194 495 207.5 481.5 c 128,-1,20
 221 468 221 468 228.5 450 c 128,-1,21
 236 432 236 432 236 412 c 256,22,23
 236 392 236 392 228.5 374.5 c 128,-1,24
 221 357 221 357 207.5 344 c 128,-1,25
 194 331 194 331 176.5 323.5 c 128,-1,26
 159 316 159 316 139 316 c 256,27,28
 119 316 119 316 101 323.5 c 128,-1,29
 83 331 83 331 69.5 344 c 128,-1,30
 56 357 56 357 48.5 374.5 c 128,-1,31
 41 392 41 392 41 412 c 0,32,33
 41 453 41 453 69.5 481.5 c 128,-1,34
 98 510 98 510 139 510 c 1,35,-1
 139 510 l 1,17,18
EndSplineSet
Validated: 5
EndChar

StartChar: bracketleft
Encoding: 91 91 114
AltUni2: 00e927.ffffffff.0 00e927.ffffffff.0
Width: 333
GlyphClass: 1
Flags: W
LayerCount: 2
Fore
SplineSet
300 668 m 1,0,-1
 300 552 l 1,1,-1
 172 552 l 1,2,-1
 172 -46 l 1,3,-1
 300 -46 l 1,4,-1
 300 -161 l 1,5,-1
 44 -161 l 1,6,-1
 44 668 l 1,7,-1
 300 668 l 1,0,-1
EndSplineSet
Validated: 1
EndChar

StartChar: backslash
Encoding: 92 92 115
AltUni2: 00e928.ffffffff.0 00e928.ffffffff.0
Width: 442
GlyphClass: 1
Flags: W
LayerCount: 2
Fore
SplineSet
427 0 m 1,0,-1
 276 0 l 1,1,-1
 15 668 l 1,2,-1
 168 668 l 1,3,-1
 427 0 l 1,0,-1
EndSplineSet
Validated: 1
EndChar

StartChar: bracketright
Encoding: 93 93 116
AltUni2: 00e929.ffffffff.0 00e929.ffffffff.0
Width: 333
GlyphClass: 1
Flags: W
LayerCount: 2
Fore
SplineSet
33 552 m 1,0,-1
 33 668 l 1,1,-1
 289 668 l 1,2,-1
 289 -161 l 1,3,-1
 33 -161 l 1,4,-1
 33 -46 l 1,5,-1
 161 -46 l 1,6,-1
 161 552 l 1,7,-1
 33 552 l 1,0,-1
EndSplineSet
Validated: 1
EndChar

StartChar: asciicircum
Encoding: 94 94 117
AltUni2: 00e92a.ffffffff.0 00e92a.ffffffff.0
Width: 589
GlyphClass: 1
Flags: W
LayerCount: 2
Fore
SplineSet
238 668 m 1,0,-1
 351 668 l 1,1,-1
 536 312 l 1,2,-1
 393 312 l 1,3,-1
 295 506 l 1,4,-1
 196 312 l 1,5,-1
 53 312 l 1,6,-1
 238 668 l 1,0,-1
EndSplineSet
Validated: 1
EndChar

StartChar: underscore
Encoding: 95 95 118
AltUni2: 00e92b.ffffffff.0 00e92b.ffffffff.0
Width: 430
GlyphClass: 1
Flags: W
LayerCount: 2
Fore
SplineSet
10 -128 m 1,0,-1
 10 0 l 1,1,-1
 420 0 l 1,2,-1
 420 -128 l 1,3,-1
 10 -128 l 1,0,-1
EndSplineSet
Validated: 1
EndChar

StartChar: grave
Encoding: 96 96 119
AltUni2: 00e932.ffffffff.0 00e932.ffffffff.0
Width: 314
GlyphClass: 1
Flags: W
LayerCount: 2
Fore
SplineSet
53 671 m 1,0,1
 53 694 53 694 69.5 711 c 128,-1,2
 86 728 86 728 109 728 c 0,3,4
 130 728 130 728 147 713 c 2,5,-1
 261 574 l 1,6,-1
 147 574 l 1,7,-1
 72 629 l 1,8,9
 53 648 53 648 53 671 c 1,10,-1
 53 671 l 1,0,1
EndSplineSet
Validated: 5
Substitution2: "'case' Case-Sensitive Forms lookup 1 subtable" grave.case
EndChar

StartChar: exclam
Encoding: 33 33 120
AltUni2: 00e90f.ffffffff.0 00e90f.ffffffff.0
Width: 283
GlyphClass: 1
Flags: W
LayerCount: 2
Fore
SplineSet
142 183 m 1,0,1
 162 183 162 183 179.5 175.5 c 128,-1,2
 197 168 197 168 210.5 155 c 128,-1,3
 224 142 224 142 231.5 124 c 128,-1,4
 239 106 239 106 239 86 c 256,5,6
 239 66 239 66 231.5 48 c 128,-1,7
 224 30 224 30 210.5 16.5 c 128,-1,8
 197 3 197 3 179.5 -4.5 c 128,-1,9
 162 -12 162 -12 142 -12 c 0,10,11
 101 -12 101 -12 72.5 16.5 c 128,-1,12
 44 45 44 45 44 86 c 256,13,14
 44 127 44 127 72.5 155 c 128,-1,15
 101 183 101 183 142 183 c 1,16,-1
 142 183 l 1,0,1
44 668 m 1,17,-1
 238 668 l 1,18,-1
 238 495 l 1,19,-1
 196 243 l 1,20,-1
 85 243 l 1,21,-1
 44 495 l 1,22,-1
 44 668 l 1,17,-1
EndSplineSet
Validated: 5
EndChar

StartChar: quotedbl
Encoding: 34 34 121
AltUni2: 00e911.ffffffff.0 00e911.ffffffff.0
Width: 410
GlyphClass: 1
Flags: W
LayerCount: 2
Fore
SplineSet
182 668 m 1,0,-1
 168 434 l 1,1,-1
 54 434 l 1,2,-1
 40 668 l 1,3,-1
 182 668 l 1,0,-1
370 668 m 1,4,-1
 356 434 l 1,5,-1
 243 434 l 1,6,-1
 228 668 l 1,7,-1
 370 668 l 1,4,-1
EndSplineSet
Validated: 1
EndChar

StartChar: numbersign
Encoding: 35 35 122
AltUni2: 00e913.ffffffff.0 00e913.ffffffff.0
Width: 783
GlyphClass: 1
Flags: W
LayerCount: 2
Fore
SplineSet
24 127 m 1,0,-1
 44 266 l 1,1,-1
 172 266 l 1,2,-1
 192 401 l 1,3,-1
 64 401 l 1,4,-1
 84 541 l 1,5,-1
 212 541 l 1,6,-1
 231 668 l 1,7,-1
 371 668 l 1,8,-1
 352 541 l 1,9,-1
 489 541 l 1,10,-1
 508 668 l 1,11,-1
 649 668 l 1,12,-1
 630 541 l 1,13,-1
 759 541 l 1,14,-1
 738 402 l 1,15,-1
 610 402 l 1,16,-1
 591 267 l 1,17,-1
 719 267 l 1,18,-1
 699 127 l 1,19,-1
 570 127 l 1,20,-1
 552 0 l 1,21,-1
 411 0 l 1,22,-1
 429 127 l 1,23,-1
 293 127 l 1,24,-1
 275 0 l 1,25,-1
 134 0 l 1,26,-1
 152 127 l 1,27,-1
 24 127 l 1,0,-1
450 267 m 1,28,-1
 469 401 l 1,29,-1
 332 401 l 1,30,-1
 313 267 l 1,31,-1
 450 267 l 1,28,-1
EndSplineSet
Validated: 1
EndChar

StartChar: dollar
Encoding: 36 36 123
AltUni2: 00e914.ffffffff.0 00e914.ffffffff.0
Width: 619
GlyphClass: 1
Flags: W
LayerCount: 2
Fore
SplineSet
25 157 m 1,0,-1
 169 209 l 1,1,2
 190 136 190 136 272 120 c 1,3,-1
 272 277 l 1,4,-1
 231 286 l 2,5,6
 191 295 191 295 154 309.5 c 128,-1,7
 117 324 117 324 89 346 c 128,-1,8
 61 368 61 368 44.5 399.5 c 128,-1,9
 28 431 28 431 28 474 c 0,10,11
 28 522 28 522 49 558.5 c 128,-1,12
 70 595 70 595 104.5 620 c 128,-1,13
 139 645 139 645 183 659.5 c 128,-1,14
 227 674 227 674 272 678 c 1,15,-1
 272 747 l 1,16,-1
 345 747 l 1,17,-1
 345 678 l 1,18,19
 418 672 418 672 478.5 638 c 128,-1,20
 539 604 539 604 567 535 c 1,21,-1
 424 483 l 1,22,23
 414 508 414 508 394 524 c 128,-1,24
 374 540 374 540 345 548 c 1,25,-1
 345 405 l 1,26,-1
 356 403 l 2,27,28
 397 396 397 396 439.5 384 c 128,-1,29
 482 372 482 372 516.5 350.5 c 128,-1,30
 551 329 551 329 573.5 295 c 128,-1,31
 596 261 596 261 596 209 c 0,32,33
 596 160 596 160 575 121 c 128,-1,34
 554 82 554 82 518.5 54.5 c 128,-1,35
 483 27 483 27 438 10 c 128,-1,36
 393 -7 393 -7 345 -11 c 1,37,-1
 345 -87 l 1,38,-1
 272 -87 l 1,39,-1
 272 -10 l 1,40,41
 178 -2 178 -2 115.5 41.5 c 128,-1,42
 53 85 53 85 25 157 c 1,43,-1
 25 157 l 1,0,-1
434 189 m 1,44,45
 434 216 434 216 410 233 c 128,-1,46
 386 250 386 250 345 261 c 1,47,-1
 345 117 l 1,48,49
 379 121 379 121 406.5 137.5 c 128,-1,50
 434 154 434 154 434 189 c 1,51,-1
 434 189 l 1,44,45
266 421 m 1,52,-1
 272 420 l 1,53,-1
 272 552 l 1,54,55
 236 547 236 547 213 531 c 128,-1,56
 190 515 190 515 190 489 c 256,57,58
 190 463 190 463 210.5 445 c 128,-1,59
 231 427 231 427 266 421 c 1,60,-1
 266 421 l 1,52,-1
EndSplineSet
Validated: 5
EndChar

StartChar: percent
Encoding: 37 37 124
AltUni2: 00e915.ffffffff.0 00e915.ffffffff.0
Width: 977
GlyphClass: 1
Flags: W
LayerCount: 2
Fore
SplineSet
559 186 m 1,0,1
 559 227 559 227 574.5 262.5 c 128,-1,2
 590 298 590 298 616.5 324.5 c 128,-1,3
 643 351 643 351 679 366.5 c 128,-1,4
 715 382 715 382 756 382 c 256,5,6
 797 382 797 382 833 366.5 c 128,-1,7
 869 351 869 351 895.5 324.5 c 128,-1,8
 922 298 922 298 937.5 262.5 c 128,-1,9
 953 227 953 227 953 186 c 256,10,11
 953 145 953 145 937.5 109 c 128,-1,12
 922 73 922 73 895.5 46 c 128,-1,13
 869 19 869 19 833 3.5 c 128,-1,14
 797 -12 797 -12 756 -12 c 256,15,16
 715 -12 715 -12 679 3.5 c 128,-1,17
 643 19 643 19 616.5 46 c 128,-1,18
 590 73 590 73 574.5 109 c 128,-1,19
 559 145 559 145 559 186 c 1,20,-1
 559 186 l 1,0,1
221 680 m 1,21,22
 262 680 262 680 297.5 664.5 c 128,-1,23
 333 649 333 649 360 622 c 128,-1,24
 387 595 387 595 402.5 559 c 128,-1,25
 418 523 418 523 418 482 c 256,26,27
 418 441 418 441 402.5 405.5 c 128,-1,28
 387 370 387 370 360 343.5 c 128,-1,29
 333 317 333 317 297.5 301.5 c 128,-1,30
 262 286 262 286 221 286 c 256,31,32
 180 286 180 286 144 301.5 c 128,-1,33
 108 317 108 317 81.5 343.5 c 128,-1,34
 55 370 55 370 39.5 405.5 c 128,-1,35
 24 441 24 441 24 482 c 256,36,37
 24 523 24 523 39.5 559 c 128,-1,38
 55 595 55 595 81.5 622 c 128,-1,39
 108 649 108 649 144 664.5 c 128,-1,40
 180 680 180 680 221 680 c 1,41,-1
 221 680 l 1,21,22
677 186 m 1,42,43
 677 153 677 153 700.5 130 c 128,-1,44
 724 107 724 107 756 107 c 256,45,46
 788 107 788 107 811.5 130 c 128,-1,47
 835 153 835 153 835 186 c 0,48,49
 835 218 835 218 811.5 241 c 128,-1,50
 788 264 788 264 756 264 c 256,51,52
 724 264 724 264 700.5 241 c 128,-1,53
 677 218 677 218 677 186 c 1,54,-1
 677 186 l 1,42,43
143 482 m 1,55,56
 143 450 143 450 166 427 c 128,-1,57
 189 404 189 404 221 404 c 0,58,59
 254 404 254 404 277 427 c 128,-1,60
 300 450 300 450 300 482 c 0,61,62
 300 515 300 515 277 538 c 128,-1,63
 254 561 254 561 221 561 c 0,64,65
 189 561 189 561 166 538 c 128,-1,66
 143 515 143 515 143 482 c 1,67,-1
 143 482 l 1,55,56
659 668 m 1,68,-1
 786 668 l 1,69,-1
 318 0 l 1,70,-1
 192 0 l 1,71,-1
 659 668 l 1,68,-1
EndSplineSet
Validated: 5
EndChar

StartChar: ampersand
Encoding: 38 38 125
AltUni2: 00e916.ffffffff.0 00e916.ffffffff.0
Width: 702
GlyphClass: 1
Flags: W
LayerCount: 2
Fore
SplineSet
182 385 m 1,0,1
 150 426 150 426 135.5 464 c 128,-1,2
 121 502 121 502 121 536 c 0,3,4
 121 574 121 574 137 605 c 128,-1,5
 153 636 153 636 181 658.5 c 128,-1,6
 209 681 209 681 247 693.5 c 128,-1,7
 285 706 285 706 329 706 c 0,8,9
 365 706 365 706 399.5 692 c 128,-1,10
 434 678 434 678 461 654.5 c 128,-1,11
 488 631 488 631 504.5 599 c 128,-1,12
 521 567 521 567 521 531 c 0,13,14
 521 487 521 487 492.5 440.5 c 128,-1,15
 464 394 464 394 395 352 c 1,16,-1
 489 244 l 1,17,18
 508 274 508 274 522.5 310 c 128,-1,19
 537 346 537 346 546 389 c 1,20,-1
 673 389 l 1,21,22
 661 314 661 314 633 250.5 c 128,-1,23
 605 187 605 187 573 145 c 1,24,-1
 698 0 l 1,25,-1
 522 0 l 1,26,-1
 476 53 l 1,27,28
 419 18 419 18 366.5 2.5 c 128,-1,29
 314 -13 314 -13 266 -13 c 0,30,31
 212 -13 212 -13 167.5 4 c 128,-1,32
 123 21 123 21 91 49.5 c 128,-1,33
 59 78 59 78 41.5 115 c 128,-1,34
 24 152 24 152 24 191 c 0,35,36
 24 245 24 245 61.5 297.5 c 128,-1,37
 99 350 99 350 182 385 c 1,38,-1
 182 385 l 1,0,1
286 112 m 1,39,40
 309 112 309 112 336.5 120.5 c 128,-1,41
 364 129 364 129 392 146 c 1,42,-1
 266 290 l 1,43,44
 221 273 221 273 202 248 c 128,-1,45
 183 223 183 223 183 197 c 0,46,47
 183 163 183 163 212 137.5 c 128,-1,48
 241 112 241 112 286 112 c 1,49,-1
 286 112 l 1,39,40
322 437 m 1,50,51
 360 457 360 457 377 481.5 c 128,-1,52
 394 506 394 506 394 528 c 0,53,54
 394 555 394 555 374 573.5 c 128,-1,55
 354 592 354 592 323 592 c 0,56,57
 297 592 297 592 278.5 577.5 c 128,-1,58
 260 563 260 563 260 537 c 0,59,60
 260 517 260 517 274 491.5 c 128,-1,61
 288 466 288 466 322 437 c 1,62,-1
 322 437 l 1,50,51
EndSplineSet
Validated: 5
EndChar

StartChar: quotesingle
Encoding: 39 39 126
AltUni2: 00e917.ffffffff.0 00e917.ffffffff.0
Width: 222
GlyphClass: 1
Flags: W
LayerCount: 2
Fore
SplineSet
182 668 m 1,0,-1
 168 434 l 1,1,-1
 54 434 l 1,2,-1
 40 668 l 1,3,-1
 182 668 l 1,0,-1
EndSplineSet
Validated: 1
EndChar

StartChar: parenleft
Encoding: 40 40 127
AltUni2: 00e918.ffffffff.0 00e918.ffffffff.0
Width: 366
GlyphClass: 1
Flags: W
LayerCount: 2
Fore
SplineSet
145 668 m 1,0,-1
 289 668 l 1,1,2
 230 579 230 579 203 482 c 128,-1,3
 176 385 176 385 176 276 c 0,4,5
 176 214 176 214 188 155 c 128,-1,6
 200 96 200 96 221 41 c 128,-1,7
 242 -14 242 -14 270 -65 c 128,-1,8
 298 -116 298 -116 331 -161 c 1,9,-1
 180 -161 l 1,10,11
 114 -68 114 -68 74.5 43 c 128,-1,12
 35 154 35 154 35 280 c 0,13,14
 35 385 35 385 63.5 483 c 128,-1,15
 92 581 92 581 145 668 c 1,16,-1
 145 668 l 1,0,-1
EndSplineSet
Validated: 5
EndChar

StartChar: parenright
Encoding: 41 41 128
AltUni2: 00e919.ffffffff.0 00e919.ffffffff.0
Width: 366
GlyphClass: 1
Flags: W
LayerCount: 2
Fore
SplineSet
35 -161 m 1,0,1
 68 -116 68 -116 96.5 -65 c 128,-1,2
 125 -14 125 -14 145.5 41 c 128,-1,3
 166 96 166 96 178 155 c 128,-1,4
 190 214 190 214 190 276 c 0,5,6
 190 385 190 385 163 482 c 128,-1,7
 136 579 136 579 77 668 c 1,8,-1
 221 668 l 1,9,10
 274 581 274 581 302.5 483 c 128,-1,11
 331 385 331 385 331 280 c 0,12,13
 331 154 331 154 292 43 c 128,-1,14
 253 -68 253 -68 187 -161 c 1,15,-1
 35 -161 l 1,16,-1
 35 -161 l 1,0,1
EndSplineSet
Validated: 5
EndChar

StartChar: asterisk
Encoding: 42 42 129
AltUni2: 00e91a.ffffffff.0 00e91a.ffffffff.0
Width: 434
GlyphClass: 1
Flags: W
LayerCount: 2
Fore
SplineSet
288 484 m 1,0,-1
 347 402 l 1,1,-1
 276 351 l 1,2,-1
 217 432 l 1,3,-1
 158 351 l 1,4,-1
 87 402 l 1,5,-1
 146 484 l 1,6,-1
 50 515 l 1,7,-1
 77 598 l 1,8,-1
 173 567 l 1,9,-1
 173 668 l 1,10,-1
 261 668 l 1,11,-1
 261 567 l 1,12,-1
 355 598 l 1,13,-1
 383 515 l 1,14,-1
 288 484 l 1,0,-1
EndSplineSet
Validated: 1
EndChar

StartChar: plus
Encoding: 43 43 130
AltUni2: 00e91b.ffffffff.0 00e91b.ffffffff.0
Width: 618
GlyphClass: 1
Flags: W
LayerCount: 2
Fore
SplineSet
53 312 m 1,0,-1
 245 312 l 1,1,-1
 245 496 l 1,2,-1
 373 496 l 1,3,-1
 373 312 l 1,4,-1
 565 312 l 1,5,-1
 565 184 l 1,6,-1
 373 184 l 1,7,-1
 373 0 l 1,8,-1
 245 0 l 1,9,-1
 245 184 l 1,10,-1
 53 184 l 1,11,-1
 53 312 l 1,0,-1
EndSplineSet
Validated: 1
EndChar

StartChar: comma
Encoding: 44 44 131
AltUni2: 00e91c.ffffffff.0 00e91c.ffffffff.0
Width: 277
GlyphClass: 1
Flags: W
LayerCount: 2
Fore
SplineSet
139 183 m 1,0,1
 159 183 159 183 176.5 175.5 c 128,-1,2
 194 168 194 168 207.5 154.5 c 128,-1,3
 221 141 221 141 228.5 123.5 c 128,-1,4
 236 106 236 106 236 85 c 0,5,6
 236 67 236 67 230 50 c 2,7,-1
 153 -146 l 1,8,-1
 63 -146 l 1,9,-1
 116 -9 l 1,10,11
 84 -1 84 -1 62.5 25 c 128,-1,12
 41 51 41 51 41 86 c 0,13,14
 41 127 41 127 69.5 155 c 128,-1,15
 98 183 98 183 139 183 c 1,16,-1
 139 183 l 1,0,1
EndSplineSet
Validated: 5
EndChar

StartChar: hyphen
Encoding: 45 45 132
AltUni2: 00e91d.ffffffff.0 00e91d.ffffffff.0
Width: 408
GlyphClass: 1
Flags: W
LayerCount: 2
Fore
SplineSet
41 184 m 1,0,-1
 41 313 l 1,1,-1
 367 313 l 1,2,-1
 367 184 l 1,3,-1
 41 184 l 1,0,-1
EndSplineSet
Validated: 1
EndChar

StartChar: period
Encoding: 46 46 133
AltUni2: 00e91e.ffffffff.0 00e91e.ffffffff.0
Width: 277
GlyphClass: 1
Flags: W
LayerCount: 2
Fore
SplineSet
41 86 m 1,0,1
 41 127 41 127 69.5 155 c 128,-1,2
 98 183 98 183 139 183 c 0,3,4
 159 183 159 183 176.5 175.5 c 128,-1,5
 194 168 194 168 207.5 155 c 128,-1,6
 221 142 221 142 228.5 124 c 128,-1,7
 236 106 236 106 236 86 c 256,8,9
 236 66 236 66 228.5 48 c 128,-1,10
 221 30 221 30 207.5 16.5 c 128,-1,11
 194 3 194 3 176.5 -4.5 c 128,-1,12
 159 -12 159 -12 139 -12 c 0,13,14
 98 -12 98 -12 69.5 16.5 c 128,-1,15
 41 45 41 45 41 86 c 1,16,-1
 41 86 l 1,0,1
EndSplineSet
Validated: 5
EndChar

StartChar: slash
Encoding: 47 47 134
AltUni2: 00e91f.ffffffff.0 00e91f.ffffffff.0
Width: 442
GlyphClass: 1
Flags: W
LayerCount: 2
Fore
SplineSet
276 668 m 1,0,-1
 427 668 l 1,1,-1
 168 0 l 1,2,-1
 15 0 l 1,3,-1
 276 668 l 1,0,-1
EndSplineSet
Validated: 1
EndChar

StartChar: braceleft
Encoding: 123 123 135
AltUni2: 00e92d.ffffffff.0 00e92d.ffffffff.0
Width: 370
GlyphClass: 1
Flags: W
LayerCount: 2
Fore
SplineSet
24 193 m 1,0,-1
 24 316 l 1,1,2
 47 316 47 316 61 322.5 c 128,-1,3
 75 329 75 329 82.5 341.5 c 128,-1,4
 90 354 90 354 92 371.5 c 128,-1,5
 94 389 94 389 94 410 c 2,6,-1
 94 506 l 2,7,8
 94 554 94 554 107 585.5 c 128,-1,9
 120 617 120 617 145 635.5 c 128,-1,10
 170 654 170 654 205 661 c 128,-1,11
 240 668 240 668 285 668 c 2,12,-1
 336 668 l 1,13,-1
 336 548 l 1,14,-1
 303 548 l 2,15,16
 271 548 271 548 254.5 540 c 128,-1,17
 238 532 238 532 238 504 c 2,18,-1
 238 381 l 2,19,20
 238 350 238 350 230 328 c 128,-1,21
 222 306 222 306 209 292 c 128,-1,22
 196 278 196 278 179 269.5 c 128,-1,23
 162 261 162 261 144 256 c 1,24,-1
 144 253 l 1,25,26
 162 248 162 248 179 240 c 128,-1,27
 196 232 196 232 209 217.5 c 128,-1,28
 222 203 222 203 230 181.5 c 128,-1,29
 238 160 238 160 238 128 c 2,30,-1
 238 3 l 2,31,32
 238 -25 238 -25 254.5 -33 c 128,-1,33
 271 -41 271 -41 303 -41 c 2,34,-1
 336 -41 l 1,35,-1
 336 -161 l 1,36,-1
 285 -161 l 2,37,38
 240 -161 240 -161 205 -154 c 128,-1,39
 170 -147 170 -147 145 -128.5 c 128,-1,40
 120 -110 120 -110 107 -78.5 c 128,-1,41
 94 -47 94 -47 94 2 c 2,42,-1
 94 97 l 2,43,44
 94 119 94 119 92 137 c 128,-1,45
 90 155 90 155 82.5 167.5 c 128,-1,46
 75 180 75 180 61 186.5 c 128,-1,47
 47 193 47 193 24 193 c 1,48,-1
 24 193 l 1,0,-1
EndSplineSet
Validated: 5
EndChar

StartChar: bar
Encoding: 124 124 136
AltUni2: 00e92e.ffffffff.0 00e92e.ffffffff.0
Width: 234
GlyphClass: 1
Flags: W
LayerCount: 2
Fore
SplineSet
44 -161 m 1,0,-1
 44 668 l 1,1,-1
 190 668 l 1,2,-1
 190 -161 l 1,3,-1
 44 -161 l 1,0,-1
EndSplineSet
Validated: 1
EndChar

StartChar: braceright
Encoding: 125 125 137
AltUni2: 00e92f.ffffffff.0 00e92f.ffffffff.0
Width: 370
GlyphClass: 1
Flags: W
LayerCount: 2
Fore
SplineSet
34 668 m 1,0,-1
 86 668 l 2,1,2
 131 668 131 668 166 661 c 128,-1,3
 201 654 201 654 226 635.5 c 128,-1,4
 251 617 251 617 264 585.5 c 128,-1,5
 277 554 277 554 277 506 c 2,6,-1
 277 410 l 2,7,8
 277 389 277 389 279 371.5 c 128,-1,9
 281 354 281 354 288.5 341.5 c 128,-1,10
 296 329 296 329 309.5 322.5 c 128,-1,11
 323 316 323 316 346 316 c 1,12,-1
 346 193 l 1,13,14
 323 193 323 193 309.5 186.5 c 128,-1,15
 296 180 296 180 288.5 167.5 c 128,-1,16
 281 155 281 155 279 137 c 128,-1,17
 277 119 277 119 277 97 c 2,18,-1
 277 2 l 2,19,20
 277 -47 277 -47 264 -78.5 c 128,-1,21
 251 -110 251 -110 226 -128.5 c 128,-1,22
 201 -147 201 -147 166 -154 c 128,-1,23
 131 -161 131 -161 86 -161 c 2,24,-1
 34 -161 l 1,25,-1
 34 -41 l 1,26,-1
 68 -41 l 2,27,28
 100 -41 100 -41 116.5 -33 c 128,-1,29
 133 -25 133 -25 133 3 c 2,30,-1
 133 128 l 2,31,32
 133 160 133 160 140.5 181.5 c 128,-1,33
 148 203 148 203 161 217.5 c 128,-1,34
 174 232 174 232 191 240 c 128,-1,35
 208 248 208 248 226 253 c 1,36,-1
 226 256 l 1,37,38
 208 261 208 261 191 269.5 c 128,-1,39
 174 278 174 278 161 292 c 128,-1,40
 148 306 148 306 140.5 328 c 128,-1,41
 133 350 133 350 133 381 c 2,42,-1
 133 504 l 2,43,44
 133 532 133 532 116.5 540 c 128,-1,45
 100 548 100 548 68 548 c 2,46,-1
 34 548 l 1,47,-1
 34 668 l 1,48,-1
 34 668 l 1,0,-1
EndSplineSet
Validated: 5
EndChar

StartChar: asciitilde
Encoding: 126 126 138
AltUni2: 00e930.ffffffff.0 00e930.ffffffff.0
Width: 533
GlyphClass: 1
Flags: W
LayerCount: 2
Fore
SplineSet
176 350 m 1,0,1
 204 350 204 350 227.5 340.5 c 128,-1,2
 251 331 251 331 271.5 320 c 128,-1,3
 292 309 292 309 310.5 299.5 c 128,-1,4
 329 290 329 290 347 290 c 0,5,6
 356 290 356 290 363.5 293 c 128,-1,7
 371 296 371 296 377 305 c 128,-1,8
 383 314 383 314 386 329.5 c 128,-1,9
 389 345 389 345 387 370 c 1,10,-1
 493 333 l 1,11,12
 490 294 490 294 482 263.5 c 128,-1,13
 474 233 474 233 458.5 211.5 c 128,-1,14
 443 190 443 190 418.5 178.5 c 128,-1,15
 394 167 394 167 359 167 c 0,16,17
 333 167 333 167 310.5 176.5 c 128,-1,18
 288 186 288 186 267.5 197 c 128,-1,19
 247 208 247 208 227 217.5 c 128,-1,20
 207 227 207 227 186 227 c 0,21,22
 177 227 177 227 169 224 c 128,-1,23
 161 221 161 221 155.5 212 c 128,-1,24
 150 203 150 203 147 187.5 c 128,-1,25
 144 172 144 172 145 146 c 1,26,-1
 40 184 l 1,27,28
 45 261 45 261 75 305.5 c 128,-1,29
 105 350 105 350 176 350 c 1,30,-1
 176 350 l 1,0,1
EndSplineSet
Validated: 37
EndChar

StartChar: exclamdown
Encoding: 161 161 139
AltUni2: 00e931.ffffffff.0 00e931.ffffffff.0
Width: 283
GlyphClass: 1
Flags: W
LayerCount: 2
Fore
SplineSet
44 421 m 1,0,1
 44 462 44 462 72.5 490.5 c 128,-1,2
 101 519 101 519 142 519 c 0,3,4
 162 519 162 519 179.5 511.5 c 128,-1,5
 197 504 197 504 210.5 490.5 c 128,-1,6
 224 477 224 477 231.5 459 c 128,-1,7
 239 441 239 441 239 421 c 256,8,9
 239 401 239 401 231.5 383.5 c 128,-1,10
 224 366 224 366 210.5 353 c 128,-1,11
 197 340 197 340 179.5 332.5 c 128,-1,12
 162 325 162 325 142 325 c 256,13,14
 122 325 122 325 104 332.5 c 128,-1,15
 86 340 86 340 72.5 353 c 128,-1,16
 59 366 59 366 51.5 383.5 c 128,-1,17
 44 401 44 401 44 421 c 1,18,-1
 44 421 l 1,0,1
45 12 m 1,19,-1
 86 265 l 1,20,-1
 197 265 l 1,21,-1
 238 12 l 1,22,-1
 238 -161 l 1,23,-1
 45 -161 l 1,24,-1
 45 12 l 1,19,-1
EndSplineSet
Validated: 5
EndChar

StartChar: cent
Encoding: 162 162 140
AltUni2: 00e933.ffffffff.0 00e933.ffffffff.0
Width: 520
GlyphClass: 1
Flags: W
LayerCount: 2
Fore
SplineSet
244 508 m 1,0,-1
 244 571 l 1,1,-1
 317 571 l 1,2,-1
 317 507 l 1,3,4
 372 500 372 500 422.5 470.5 c 128,-1,5
 473 441 473 441 502 379 c 1,6,-1
 375 334 l 1,7,8
 366 357 366 357 351 370 c 128,-1,9
 336 383 336 383 318 388 c 1,10,-1
 318 109 l 1,11,12
 357 118 357 118 376 152 c 1,13,-1
 500 107 l 1,14,15
 468 50 468 50 418.5 23.5 c 128,-1,16
 369 -3 369 -3 317 -10 c 1,17,-1
 317 -87 l 1,18,-1
 244 -87 l 1,19,-1
 244 -11 l 1,20,21
 137 0 137 0 80.5 70 c 128,-1,22
 24 140 24 140 24 251 c 0,23,24
 24 305 24 305 40 349.5 c 128,-1,25
 56 394 56 394 84.5 427.5 c 128,-1,26
 113 461 113 461 154 481.5 c 128,-1,27
 195 502 195 502 244 508 c 1,28,-1
 244 508 l 1,0,-1
244 115 m 1,29,-1
 244 383 l 1,30,31
 216 370 216 370 197.5 338.5 c 128,-1,32
 179 307 179 307 179 250 c 0,33,34
 179 190 179 190 198 158.5 c 128,-1,35
 217 127 217 127 244 115 c 1,36,-1
 244 115 l 1,29,-1
EndSplineSet
Validated: 5
EndChar

StartChar: sterling
Encoding: 163 163 141
AltUni2: 00e934.ffffffff.0 00e934.ffffffff.0
Width: 617
GlyphClass: 1
Flags: W
LayerCount: 2
Fore
SplineSet
50 104 m 1,0,1
 80 118 80 118 102.5 133 c 128,-1,2
 125 148 125 148 141 165 c 128,-1,3
 157 182 157 182 165 203 c 128,-1,4
 173 224 173 224 173 251 c 0,5,6
 173 274 173 274 163 295 c 1,7,-1
 50 295 l 1,8,-1
 50 368 l 1,9,-1
 125 368 l 1,10,11
 108 399 108 399 95 432.5 c 128,-1,12
 82 466 82 466 82 503 c 0,13,14
 82 550 82 550 104 583.5 c 128,-1,15
 126 617 126 617 161.5 638 c 128,-1,16
 197 659 197 659 242.5 669 c 128,-1,17
 288 679 288 679 334 679 c 0,18,19
 421 679 421 679 488.5 641.5 c 128,-1,20
 556 604 556 604 585 536 c 1,21,-1
 449 486 l 1,22,23
 438 525 438 525 405 541.5 c 128,-1,24
 372 558 372 558 336 558 c 0,25,26
 295 558 295 558 268.5 540 c 128,-1,27
 242 522 242 522 242 490 c 256,28,29
 242 458 242 458 257.5 428.5 c 128,-1,30
 273 399 273 399 290 368 c 1,31,-1
 450 368 l 1,32,-1
 450 295 l 1,33,-1
 324 295 l 1,34,35
 331 277 331 277 331 255 c 0,36,37
 331 213 331 213 300 177.5 c 128,-1,38
 269 142 269 142 226 115 c 1,39,40
 247 127 247 127 268 130.5 c 128,-1,41
 289 134 289 134 310 134 c 0,42,43
 329 134 329 134 348 130.5 c 128,-1,44
 367 127 367 127 385 123.5 c 128,-1,45
 403 120 403 120 420 116.5 c 128,-1,46
 437 113 437 113 453 113 c 0,47,48
 480 113 480 113 505 121 c 128,-1,49
 530 129 530 129 556 144 c 1,50,-1
 600 23 l 1,51,52
 565 6 565 6 527 -3 c 128,-1,53
 489 -12 489 -12 440 -12 c 0,54,55
 413 -12 413 -12 388 -6.5 c 128,-1,56
 363 -1 363 -1 338 6 c 128,-1,57
 313 13 313 13 289 18.5 c 128,-1,58
 265 24 265 24 240 24 c 0,59,60
 218 24 218 24 183.5 18 c 128,-1,61
 149 12 149 12 105 -12 c 1,62,-1
 50 104 l 1,63,-1
 50 104 l 1,0,1
EndSplineSet
Validated: 5
EndChar

StartChar: currency
Encoding: 164 164 142
AltUni2: 00e935.ffffffff.0 00e935.ffffffff.0
Width: 596
GlyphClass: 1
Flags: W
LayerCount: 2
Fore
SplineSet
120 194 m 1,0,1
 100 221 100 221 89.5 253 c 128,-1,2
 79 285 79 285 79 321 c 0,3,4
 79 356 79 356 89.5 387.5 c 128,-1,5
 100 419 100 419 120 446 c 1,6,-1
 53 513 l 1,7,-1
 105 565 l 1,8,-1
 172 498 l 1,9,10
 199 518 199 518 231 528.5 c 128,-1,11
 263 539 263 539 298 539 c 0,12,13
 334 539 334 539 365.5 528.5 c 128,-1,14
 397 518 397 518 424 498 c 1,15,-1
 491 565 l 1,16,-1
 543 513 l 1,17,-1
 476 446 l 1,18,19
 516 391 516 391 516 321 c 0,20,21
 516 285 516 285 505.5 253 c 128,-1,22
 495 221 495 221 476 194 c 1,23,-1
 543 127 l 1,24,-1
 491 75 l 1,25,-1
 424 142 l 1,26,27
 369 102 369 102 298 102 c 256,28,29
 227 102 227 102 172 142 c 1,30,-1
 105 75 l 1,31,-1
 53 127 l 1,32,-1
 120 194 l 1,33,-1
 120 194 l 1,0,1
298 221 m 1,34,35
 318 221 318 221 336 229 c 128,-1,36
 354 237 354 237 367.5 250.5 c 128,-1,37
 381 264 381 264 389 282 c 128,-1,38
 397 300 397 300 397 321 c 0,39,40
 397 341 397 341 389 359 c 128,-1,41
 381 377 381 377 367.5 390.5 c 128,-1,42
 354 404 354 404 336 411.5 c 128,-1,43
 318 419 318 419 298 419 c 0,44,45
 256 419 256 419 227.5 390.5 c 128,-1,46
 199 362 199 362 199 321 c 0,47,48
 199 279 199 279 227.5 250 c 128,-1,49
 256 221 256 221 298 221 c 1,50,-1
 298 221 l 1,34,35
EndSplineSet
Validated: 5
EndChar

StartChar: yen
Encoding: 165 165 143
AltUni2: 00e936.ffffffff.0 00e936.ffffffff.0
Width: 687
GlyphClass: 1
Flags: W
LayerCount: 2
Fore
SplineSet
194 667 m 1,0,-1
 343 411 l 1,1,-1
 492 667 l 1,2,-1
 677 667 l 1,3,-1
 438 286 l 1,4,-1
 552 286 l 1,5,-1
 552 212 l 1,6,-1
 422 212 l 1,7,-1
 422 149 l 1,8,-1
 552 149 l 1,9,-1
 552 75 l 1,10,-1
 422 75 l 1,11,-1
 422 0 l 1,12,-1
 265 0 l 1,13,-1
 265 75 l 1,14,-1
 136 75 l 1,15,-1
 136 149 l 1,16,-1
 265 149 l 1,17,-1
 265 212 l 1,18,-1
 136 212 l 1,19,-1
 136 286 l 1,20,-1
 249 286 l 1,21,-1
 10 667 l 1,22,-1
 194 667 l 1,0,-1
EndSplineSet
Validated: 1
EndChar

StartChar: brokenbar
Encoding: 166 166 144
AltUni2: 00e937.ffffffff.0 00e937.ffffffff.0
Width: 216
GlyphClass: 1
Flags: W
LayerCount: 2
Fore
SplineSet
172 668 m 1,0,-1
 172 358 l 1,1,-1
 44 358 l 1,2,-1
 44 668 l 1,3,-1
 172 668 l 1,0,-1
44 -161 m 1,4,-1
 44 150 l 1,5,-1
 172 150 l 1,6,-1
 172 -161 l 1,7,-1
 44 -161 l 1,4,-1
EndSplineSet
Validated: 1
EndChar

StartChar: section
Encoding: 167 167 145
AltUni2: 00e938.ffffffff.0 00e938.ffffffff.0
Width: 578
GlyphClass: 1
Flags: W
LayerCount: 2
Fore
SplineSet
107 421 m 1,0,1
 89 444 89 444 78.5 470.5 c 128,-1,2
 68 497 68 497 68 527 c 0,3,4
 68 565 68 565 85.5 593.5 c 128,-1,5
 103 622 103 622 132 641 c 128,-1,6
 161 660 161 660 200 670 c 128,-1,7
 239 680 239 680 282 680 c 0,8,9
 312 680 312 680 342 674.5 c 128,-1,10
 372 669 372 669 400 656 c 128,-1,11
 428 643 428 643 451 621.5 c 128,-1,12
 474 600 474 600 489 568 c 1,13,-1
 359 521 l 1,14,15
 357 526 357 526 352.5 533.5 c 128,-1,16
 348 541 348 541 339 548 c 128,-1,17
 330 555 330 555 316 560 c 128,-1,18
 302 565 302 565 281 565 c 0,19,20
 251 565 251 565 234 556 c 128,-1,21
 217 547 217 547 217 531 c 0,22,23
 217 514 217 514 233 501 c 128,-1,24
 249 488 249 488 278 474 c 2,25,-1
 400 414 l 2,26,27
 472 379 472 379 511.5 342 c 128,-1,28
 551 305 551 305 551 248 c 0,29,30
 551 206 551 206 526.5 172 c 128,-1,31
 502 138 502 138 458 114 c 1,32,33
 479 91 479 91 490.5 64.5 c 128,-1,34
 502 38 502 38 502 5 c 0,35,36
 502 -36 502 -36 485.5 -69 c 128,-1,37
 469 -102 469 -102 439 -125 c 128,-1,38
 409 -148 409 -148 367.5 -160.5 c 128,-1,39
 326 -173 326 -173 277 -173 c 0,40,41
 196 -173 196 -173 141.5 -136 c 128,-1,42
 87 -99 87 -99 64 -35 c 1,43,-1
 194 12 l 1,44,45
 203 -23 203 -23 225.5 -39.5 c 128,-1,46
 248 -56 248 -56 281 -56 c 256,47,48
 314 -56 314 -56 332.5 -42.5 c 128,-1,49
 351 -29 351 -29 351 -7 c 0,50,51
 351 16 351 16 332 34 c 128,-1,52
 313 52 313 52 277 69 c 2,53,-1
 162 125 l 2,54,55
 95 157 95 157 58 197.5 c 128,-1,56
 21 238 21 238 21 295 c 0,57,58
 21 333 21 333 45 365.5 c 128,-1,59
 69 398 69 398 107 421 c 1,60,-1
 107 421 l 1,0,1
231 246 m 1,61,-1
 356 184 l 1,62,63
 376 193 376 193 387 203.5 c 128,-1,64
 398 214 398 214 398 230 c 0,65,66
 398 253 398 253 376.5 267 c 128,-1,67
 355 281 355 281 321 298 c 2,68,-1
 211 352 l 1,69,70
 170 332 170 332 170 307 c 0,71,72
 170 287 170 287 187 273.5 c 128,-1,73
 204 260 204 260 231 246 c 1,74,-1
 231 246 l 1,61,-1
EndSplineSet
Validated: 5
EndChar

StartChar: dieresis
Encoding: 168 168 146
Width: 452
GlyphClass: 1
Flags: W
LayerCount: 2
Fore
SplineSet
59 648 m 1,0,1
 59 677 59 677 80 698 c 128,-1,2
 101 719 101 719 130 719 c 256,3,4
 159 719 159 719 179.5 698 c 128,-1,5
 200 677 200 677 200 648 c 256,6,7
 200 619 200 619 179.5 598.5 c 128,-1,8
 159 578 159 578 130 578 c 256,9,10
 101 578 101 578 80 598.5 c 128,-1,11
 59 619 59 619 59 648 c 1,12,-1
 59 648 l 1,0,1
253 648 m 1,13,14
 253 677 253 677 274 698 c 128,-1,15
 295 719 295 719 324 719 c 256,16,17
 353 719 353 719 373 698 c 128,-1,18
 393 677 393 677 393 648 c 256,19,20
 393 619 393 619 373 598.5 c 128,-1,21
 353 578 353 578 324 578 c 256,22,23
 295 578 295 578 274 598.5 c 128,-1,24
 253 619 253 619 253 648 c 1,25,-1
 253 648 l 1,13,14
EndSplineSet
Validated: 5
Substitution2: "'case' Case-Sensitive Forms lookup 1 subtable" dieresis.case
EndChar

StartChar: copyright
Encoding: 169 169 147
AltUni2: 00e93a.ffffffff.0 00e93a.ffffffff.0
Width: 798
GlyphClass: 1
Flags: W
LayerCount: 2
Fore
SplineSet
53 334 m 1,0,1
 53 405 53 405 80 468 c 128,-1,2
 107 531 107 531 154 578 c 128,-1,3
 201 625 201 625 264 652 c 128,-1,4
 327 679 327 679 398 679 c 0,5,6
 470 679 470 679 533 652 c 128,-1,7
 596 625 596 625 643.5 578 c 128,-1,8
 691 531 691 531 718 468 c 128,-1,9
 745 405 745 405 745 334 c 0,10,11
 745 262 745 262 718 199 c 128,-1,12
 691 136 691 136 643.5 89 c 128,-1,13
 596 42 596 42 533 15 c 128,-1,14
 470 -12 470 -12 398 -12 c 0,15,16
 327 -12 327 -12 264 15 c 128,-1,17
 201 42 201 42 154 89 c 128,-1,18
 107 136 107 136 80 199 c 128,-1,19
 53 262 53 262 53 334 c 1,20,-1
 53 334 l 1,0,1
398 57 m 1,21,22
 455 57 455 57 505.5 79 c 128,-1,23
 556 101 556 101 593.5 138.5 c 128,-1,24
 631 176 631 176 653 226.5 c 128,-1,25
 675 277 675 277 675 334 c 256,26,27
 675 391 675 391 653 441.5 c 128,-1,28
 631 492 631 492 593.5 529.5 c 128,-1,29
 556 567 556 567 505.5 588.5 c 128,-1,30
 455 610 455 610 398 610 c 256,31,32
 341 610 341 610 291 588.5 c 128,-1,33
 241 567 241 567 203.5 529.5 c 128,-1,34
 166 492 166 492 144.5 441.5 c 128,-1,35
 123 391 123 391 123 334 c 256,36,37
 123 277 123 277 144.5 226.5 c 128,-1,38
 166 176 166 176 203.5 138.5 c 128,-1,39
 241 101 241 101 291 79 c 128,-1,40
 341 57 341 57 398 57 c 1,41,-1
 398 57 l 1,21,22
401 522 m 1,42,43
 424 522 424 522 448 517 c 128,-1,44
 472 512 472 512 493.5 501 c 128,-1,45
 515 490 515 490 533.5 472 c 128,-1,46
 552 454 552 454 564 428 c 1,47,-1
 472 394 l 1,48,49
 463 417 463 417 446 427 c 128,-1,50
 429 437 429 437 407 437 c 0,51,52
 392 437 392 437 378.5 431.5 c 128,-1,53
 365 426 365 426 354 413.5 c 128,-1,54
 343 401 343 401 336.5 381.5 c 128,-1,55
 330 362 330 362 330 334 c 0,56,57
 330 305 330 305 336.5 285 c 128,-1,58
 343 265 343 265 354 253 c 128,-1,59
 365 241 365 241 379 235.5 c 128,-1,60
 393 230 393 230 407 230 c 0,61,62
 454 230 454 230 473 264 c 1,63,-1
 563 231 l 1,64,65
 535 183 535 183 490 164 c 128,-1,66
 445 145 445 145 401 145 c 0,67,68
 313 145 313 145 265.5 197 c 128,-1,69
 218 249 218 249 218 334 c 0,70,71
 218 376 218 376 231.5 411 c 128,-1,72
 245 446 245 446 269 470.5 c 128,-1,73
 293 495 293 495 327 508.5 c 128,-1,74
 361 522 361 522 401 522 c 1,75,-1
 401 522 l 1,42,43
EndSplineSet
Validated: 5
EndChar

StartChar: questiondown
Encoding: 191 191 148
AltUni2: 00e94e.ffffffff.0 00e94e.ffffffff.0
Width: 614
GlyphClass: 1
Flags: W
LayerCount: 2
Fore
SplineSet
176 162 m 1,0,1
 200 173 200 173 218 182.5 c 128,-1,2
 236 192 236 192 248 203.5 c 128,-1,3
 260 215 260 215 266.5 229.5 c 128,-1,4
 273 244 273 244 274 265 c 1,5,-1
 428 265 l 1,6,7
 428 230 428 230 422.5 204 c 128,-1,8
 417 178 417 178 404 157.5 c 128,-1,9
 391 137 391 137 370 121 c 128,-1,10
 349 105 349 105 318 89 c 0,11,12
 301 80 301 80 281.5 72 c 128,-1,13
 262 64 262 64 245 55 c 128,-1,14
 228 46 228 46 217 35 c 128,-1,15
 206 24 206 24 206 10 c 0,16,17
 206 -18 206 -18 233.5 -34.5 c 128,-1,18
 261 -51 261 -51 308 -51 c 256,19,20
 355 -51 355 -51 389.5 -34.5 c 128,-1,21
 424 -18 424 -18 437 20 c 1,22,-1
 574 -30 l 1,23,24
 546 -99 546 -99 475.5 -136 c 128,-1,25
 405 -173 405 -173 306 -173 c 0,26,27
 257 -173 257 -173 210.5 -162.5 c 128,-1,28
 164 -152 164 -152 128.5 -131 c 128,-1,29
 93 -110 93 -110 71.5 -78 c 128,-1,30
 50 -46 50 -46 50 -2 c 0,31,32
 50 31 50 31 59.5 55.5 c 128,-1,33
 69 80 69 80 86 99.5 c 128,-1,34
 103 119 103 119 126 134 c 128,-1,35
 149 149 149 149 176 162 c 1,36,-1
 176 162 l 1,0,1
253 421 m 1,37,38
 253 441 253 441 260.5 459 c 128,-1,39
 268 477 268 477 281.5 490.5 c 128,-1,40
 295 504 295 504 312.5 511.5 c 128,-1,41
 330 519 330 519 350 519 c 0,42,43
 391 519 391 519 419 490.5 c 128,-1,44
 447 462 447 462 447 421 c 256,45,46
 447 380 447 380 419 352 c 128,-1,47
 391 324 391 324 350 324 c 0,48,49
 330 324 330 324 312.5 331.5 c 128,-1,50
 295 339 295 339 281.5 352 c 128,-1,51
 268 365 268 365 260.5 383 c 128,-1,52
 253 401 253 401 253 421 c 1,53,-1
 253 421 l 1,37,38
EndSplineSet
Validated: 5
EndChar

StartChar: grave.case
Encoding: 65539 -1 149
Width: 249
GlyphClass: 1
Flags: W
LayerCount: 2
Fore
SplineSet
-20 829 m 1,0,1
 -20 851 -20 851 -3 868 c 128,-1,2
 14 885 14 885 36 885 c 0,3,4
 57 885 57 885 74 870 c 2,5,6
 74 870 74 870 79.5 864 c 128,-1,7
 85 858 85 858 94 848 c 128,-1,8
 103 838 103 838 114 825.5 c 128,-1,9
 125 813 125 813 137 800 c 0,10,11
 164 770 164 770 199 731 c 1,12,-1
 74 731 l 1,13,-1
 0 786 l 2,14,15
 -10 796 -10 796 -15 805.5 c 128,-1,16
 -20 815 -20 815 -20 829 c 1,17,-1
 -20 829 l 1,0,1
EndSplineSet
Validated: 5
EndChar

StartChar: acute.case
Encoding: 65540 -1 150
Width: 199
GlyphClass: 1
Flags: W
LayerCount: 2
Fore
SplineSet
44 731 m 1,0,1
 77 768 77 768 104 798 c 0,2,3
 115 811 115 811 125.5 822.5 c 128,-1,4
 136 834 136 834 144 844 c 0,5,6
 154 855 154 855 163 865 c 2,7,-1
 168 870 l 2,8,9
 185 885 185 885 206 885 c 0,10,11
 229 885 229 885 245.5 868.5 c 128,-1,12
 262 852 262 852 262 829 c 0,13,14
 262 815 262 815 257 805 c 128,-1,15
 252 795 252 795 243 786 c 2,16,-1
 169 731 l 1,17,-1
 44 731 l 1,18,-1
 44 731 l 1,0,1
EndSplineSet
Validated: 5
EndChar

StartChar: circumflex.case
Encoding: 65541 -1 151
Width: 395
GlyphClass: 1
Flags: W
LayerCount: 2
Fore
SplineSet
148 864 m 1,0,1
 158 872 158 872 170.5 877.5 c 128,-1,2
 183 883 183 883 197 883 c 0,3,4
 225 883 225 883 246 864 c 2,5,-1
 394 731 l 1,6,-1
 265 731 l 1,7,-1
 197 792 l 1,8,-1
 130 731 l 1,9,-1
 1 731 l 1,10,-1
 148 864 l 1,11,-1
 148 864 l 1,0,1
EndSplineSet
Validated: 5
EndChar

StartChar: germandbls
Encoding: 223 223 153
AltUni2: 00e96c.ffffffff.0 00e96c.ffffffff.0
Width: 629
GlyphClass: 1
Flags: W
LayerCount: 2
Fore
SplineSet
44 0 m 1,0,-1
 44 435 l 2,1,2
 44 503 44 503 63 550 c 128,-1,3
 82 597 82 597 117.5 625.5 c 128,-1,4
 153 654 153 654 204 666.5 c 128,-1,5
 255 679 255 679 319 679 c 0,6,7
 370 679 370 679 413.5 667 c 128,-1,8
 457 655 457 655 489 632 c 128,-1,9
 521 609 521 609 539 574 c 128,-1,10
 557 539 557 539 557 493 c 0,11,12
 557 451 557 451 540.5 419 c 128,-1,13
 524 387 524 387 504 370 c 1,14,15
 544 349 544 349 571.5 308 c 128,-1,16
 599 267 599 267 599 204 c 0,17,18
 599 149 599 149 581 108.5 c 128,-1,19
 563 68 563 68 531 41 c 128,-1,20
 499 14 499 14 454.5 1 c 128,-1,21
 410 -12 410 -12 357 -12 c 0,22,23
 347 -12 347 -12 338 -12 c 128,-1,24
 329 -12 329 -12 319 -11 c 1,25,-1
 278 123 l 1,26,27
 311 114 311 114 345 114 c 0,28,29
 364 114 364 114 382 119.5 c 128,-1,30
 400 125 400 125 413.5 135.5 c 128,-1,31
 427 146 427 146 435 162 c 128,-1,32
 443 178 443 178 443 198 c 0,33,34
 443 253 443 253 406 275.5 c 128,-1,35
 369 298 369 298 309 298 c 2,36,-1
 278 298 l 1,37,-1
 278 415 l 1,38,-1
 304 415 l 2,39,40
 410 415 410 415 410 486 c 0,41,42
 410 516 410 516 387.5 536 c 128,-1,43
 365 556 365 556 315 556 c 0,44,45
 279 556 279 556 256 548 c 128,-1,46
 233 540 233 540 220 523.5 c 128,-1,47
 207 507 207 507 202 482 c 128,-1,48
 197 457 197 457 197 424 c 2,49,-1
 197 0 l 1,50,-1
 44 0 l 1,51,-1
 44 0 l 1,0,-1
EndSplineSet
Validated: 5
EndChar

StartChar: AE
Encoding: 198 198 154
AltUni2: 00e953.ffffffff.0 00e953.ffffffff.0
Width: 1016
GlyphClass: 1
Flags: W
LayerCount: 2
Fore
SplineSet
5 0 m 1,0,-1
 481 667 l 1,1,-1
 994 667 l 1,2,-1
 994 528 l 1,3,-1
 639 528 l 1,4,-1
 639 413 l 1,5,-1
 857 413 l 1,6,-1
 857 275 l 1,7,-1
 639 275 l 1,8,-1
 639 139 l 1,9,-1
 994 139 l 1,10,-1
 994 0 l 1,11,-1
 481 0 l 1,12,-1
 481 119 l 1,13,-1
 257 119 l 1,14,-1
 177 0 l 1,15,-1
 5 0 l 1,0,-1
341 247 m 1,16,-1
 481 247 l 1,17,-1
 481 453 l 1,18,-1
 341 247 l 1,16,-1
EndSplineSet
Validated: 1
EndChar

StartChar: florin
Encoding: 402 402 156
AltUni2: 00e997.ffffffff.0 00e997.ffffffff.0
Width: 377
GlyphClass: 1
Flags: W
LayerCount: 2
Fore
SplineSet
15 381 m 1,0,-1
 15 496 l 1,1,-1
 97 496 l 1,2,-1
 97 578 l 2,3,4
 97 622 97 622 108 651 c 128,-1,5
 119 680 119 680 142.5 697.5 c 128,-1,6
 166 715 166 715 202 722 c 128,-1,7
 238 729 238 729 288 729 c 2,8,-1
 357 729 l 1,9,-1
 357 608 l 1,10,-1
 315 608 l 2,11,12
 275 608 275 608 262 600 c 128,-1,13
 249 592 249 592 249 564 c 2,14,-1
 249 496 l 1,15,-1
 357 496 l 1,16,-1
 357 381 l 1,17,-1
 249 381 l 1,18,-1
 249 -16 l 2,19,20
 249 -76 249 -76 225 -112.5 c 128,-1,21
 201 -149 201 -149 164 -163 c 0,22,23
 151 -168 151 -168 132.5 -170 c 128,-1,24
 114 -172 114 -172 93 -172 c 0,25,26
 52 -172 52 -172 15 -164 c 1,27,-1
 15 -31 l 1,28,29
 32 -34 32 -34 48.5 -33 c 128,-1,30
 65 -32 65 -32 75 -26 c 0,31,32
 89 -17 89 -17 93 -2.5 c 128,-1,33
 97 12 97 12 97 39 c 2,34,-1
 97 381 l 1,35,-1
 15 381 l 1,36,-1
 15 381 l 1,0,-1
EndSplineSet
Validated: 37
EndChar

StartChar: integral
Encoding: 8747 8747 157
AltUni2: 00e9bf.ffffffff.0 00e9bf.ffffffff.0
Width: 486
GlyphClass: 1
Flags: W
LayerCount: 2
Fore
SplineSet
41 -84 m 1,0,1
 42 -61 42 -61 58 -45.5 c 128,-1,2
 74 -30 74 -30 97 -30 c 0,3,4
 121 -30 121 -30 137.5 -46.5 c 128,-1,5
 154 -63 154 -63 154 -86 c 0,6,7
 154 -96 154 -96 151 -105 c 1,8,9
 168 -97 168 -97 174 -71 c 128,-1,10
 180 -45 180 -45 180 2 c 0,11,12
 180 14 180 14 179.5 40 c 128,-1,13
 179 66 179 66 178 101 c 128,-1,14
 177 136 177 136 176 176 c 128,-1,15
 175 216 175 216 174.5 255.5 c 128,-1,16
 174 295 174 295 173 329.5 c 128,-1,17
 172 364 172 364 172 388 c 0,18,19
 171 475 171 475 185 531.5 c 128,-1,20
 199 588 199 588 223 621 c 128,-1,21
 247 654 247 654 278.5 667 c 128,-1,22
 310 680 310 680 346 680 c 0,23,24
 364 680 364 680 382 673.5 c 128,-1,25
 400 667 400 667 414 655 c 128,-1,26
 428 643 428 643 436.5 626.5 c 128,-1,27
 445 610 445 610 445 590 c 0,28,29
 444 567 444 567 428 551.5 c 128,-1,30
 412 536 412 536 389 536 c 0,31,32
 365 536 365 536 349 552.5 c 128,-1,33
 333 569 333 569 333 592 c 0,34,35
 333 602 333 602 336 611 c 1,36,37
 307 597 307 597 307 504 c 0,38,39
 307 493 307 493 307.5 466.5 c 128,-1,40
 308 440 308 440 309 405 c 128,-1,41
 310 370 310 370 311 330 c 128,-1,42
 312 290 312 290 312.5 251 c 128,-1,43
 313 212 313 212 314 177 c 128,-1,44
 315 142 315 142 315 118 c 0,45,46
 316 31 316 31 302 -25.5 c 128,-1,47
 288 -82 288 -82 264 -115 c 128,-1,48
 240 -148 240 -148 208.5 -161 c 128,-1,49
 177 -174 177 -174 141 -174 c 0,50,51
 124 -174 124 -174 106.5 -166.5 c 128,-1,52
 89 -159 89 -159 74.5 -146.5 c 128,-1,53
 60 -134 60 -134 50.5 -118 c 128,-1,54
 41 -102 41 -102 41 -84 c 1,55,-1
 41 -84 l 1,0,1
EndSplineSet
Validated: 37
EndChar

StartChar: approxequal
Encoding: 8776 8776 158
AltUni2: 00e9c0.ffffffff.0 00e9c0.ffffffff.0
Width: 532
GlyphClass: 1
Flags: W
LayerCount: 2
Fore
SplineSet
175 243 m 1,0,1
 204 243 204 243 227.5 233.5 c 128,-1,2
 251 224 251 224 271.5 212.5 c 128,-1,3
 292 201 292 201 310.5 191.5 c 128,-1,4
 329 182 329 182 347 182 c 0,5,6
 362 182 362 182 374 194 c 128,-1,7
 386 206 386 206 387 244 c 1,8,-1
 491 206 l 1,9,10
 484 137 484 137 454.5 98 c 128,-1,11
 425 59 425 59 359 59 c 0,12,13
 333 59 333 59 310.5 68 c 128,-1,14
 288 77 288 77 267 88.5 c 128,-1,15
 246 100 246 100 226 109 c 128,-1,16
 206 118 206 118 185 118 c 0,17,18
 169 118 169 118 157.5 106.5 c 128,-1,19
 146 95 146 95 145 57 c 1,20,-1
 41 95 l 1,21,22
 48 164 48 164 78 203.5 c 128,-1,23
 108 243 108 243 175 243 c 1,24,-1
 175 243 l 1,0,1
175 441 m 1,25,26
 204 441 204 441 227.5 431.5 c 128,-1,27
 251 422 251 422 271.5 410.5 c 128,-1,28
 292 399 292 399 310.5 389.5 c 128,-1,29
 329 380 329 380 347 380 c 0,30,31
 362 380 362 380 374 391.5 c 128,-1,32
 386 403 386 403 387 441 c 1,33,-1
 491 404 l 1,34,35
 484 335 484 335 454.5 296 c 128,-1,36
 425 257 425 257 359 257 c 0,37,38
 333 257 333 257 310.5 266.5 c 128,-1,39
 288 276 288 276 267 287 c 128,-1,40
 246 298 246 298 226 307.5 c 128,-1,41
 206 317 206 317 185 317 c 0,42,43
 169 317 169 317 157.5 305.5 c 128,-1,44
 146 294 146 294 145 256 c 1,45,-1
 41 294 l 1,46,47
 48 362 48 362 78 401.5 c 128,-1,48
 108 441 108 441 175 441 c 1,49,-1
 175 441 l 1,25,26
EndSplineSet
Validated: 5
EndChar

StartChar: notequal
Encoding: 8800 8800 159
AltUni2: 00e9c1.ffffffff.0 00e9c1.ffffffff.0
Width: 594
GlyphClass: 1
Flags: W
LayerCount: 2
Fore
SplineSet
41 410 m 1,0,-1
 335 410 l 1,1,-1
 394 495 l 1,2,-1
 547 495 l 1,3,-1
 487 410 l 1,4,-1
 553 410 l 1,5,-1
 553 283 l 1,6,-1
 397 283 l 1,7,-1
 357 225 l 1,8,-1
 553 225 l 1,9,-1
 553 96 l 1,10,-1
 268 96 l 1,11,-1
 200 0 l 1,12,-1
 47 0 l 1,13,-1
 114 96 l 1,14,-1
 41 96 l 1,15,-1
 41 225 l 1,16,-1
 204 225 l 1,17,-1
 245 283 l 1,18,-1
 41 283 l 1,19,-1
 41 410 l 1,0,-1
EndSplineSet
Validated: 1
EndChar

StartChar: lessequal
Encoding: 8804 8804 160
AltUni2: 00e9c2.ffffffff.0 00e9c2.ffffffff.0
Width: 594
GlyphClass: 1
Flags: W
LayerCount: 2
Fore
SplineSet
553 510 m 1,0,-1
 553 381 l 1,1,-1
 216 324 l 1,2,-1
 553 265 l 1,3,-1
 553 136 l 1,4,-1
 41 260 l 1,5,-1
 41 386 l 1,6,-1
 553 510 l 1,0,-1
41 0 m 1,7,-1
 41 128 l 1,8,-1
 553 128 l 1,9,-1
 553 0 l 1,10,-1
 41 0 l 1,7,-1
EndSplineSet
Validated: 1
EndChar

StartChar: greaterequal
Encoding: 8805 8805 161
AltUni2: 00e9c3.ffffffff.0 00e9c3.ffffffff.0
Width: 594
GlyphClass: 1
Flags: W
LayerCount: 2
Fore
SplineSet
41 510 m 1,0,-1
 553 386 l 1,1,-1
 553 260 l 1,2,-1
 41 136 l 1,3,-1
 41 265 l 1,4,-1
 378 324 l 1,5,-1
 41 381 l 1,6,-1
 41 510 l 1,0,-1
553 128 m 1,7,-1
 553 0 l 1,8,-1
 41 0 l 1,9,-1
 41 128 l 1,10,-1
 553 128 l 1,7,-1
EndSplineSet
Validated: 1
EndChar

StartChar: lozenge
Encoding: 9674 9674 162
AltUni2: 00e9c4.ffffffff.0 00e9c4.ffffffff.0
Width: 607
GlyphClass: 1
Flags: W
LayerCount: 2
Fore
SplineSet
566 313 m 1,0,-1
 304 -91 l 1,1,-1
 41 313 l 1,2,-1
 304 716 l 1,3,-1
 566 313 l 1,0,-1
179 313 m 1,4,-1
 304 124 l 1,5,-1
 428 313 l 1,6,-1
 304 502 l 1,7,-1
 179 313 l 1,4,-1
EndSplineSet
Validated: 1
EndChar

StartChar: summation
Encoding: 8721 8721 163
AltUni2: 00e9b9.ffffffff.0 00e9b9.ffffffff.0
Width: 617
GlyphClass: 1
Flags: W
LayerCount: 2
Fore
SplineSet
278 254 m 1,0,-1
 41 540 l 1,1,-1
 41 668 l 1,2,-1
 576 668 l 1,3,-1
 576 540 l 1,4,-1
 211 540 l 1,5,-1
 450 254 l 1,6,-1
 211 -34 l 1,7,-1
 576 -34 l 1,8,-1
 576 -162 l 1,9,-1
 41 -162 l 1,10,-1
 41 -34 l 1,11,-1
 278 254 l 1,0,-1
EndSplineSet
Validated: 1
EndChar

StartChar: minus
Encoding: 8722 8722 164
AltUni2: 00e9ba.ffffffff.0 00e9ba.ffffffff.0
Width: 594
GlyphClass: 1
Flags: W
LayerCount: 2
Fore
SplineSet
41 184 m 1,0,-1
 41 312 l 1,1,-1
 553 312 l 1,2,-1
 553 184 l 1,3,-1
 41 184 l 1,0,-1
EndSplineSet
Validated: 1
EndChar

StartChar: uni2215
Encoding: 8725 8725 165
AltUni2: 00e9bb.ffffffff.0 00e9bb.ffffffff.0
Width: 651
GlyphClass: 1
Flags: W
LayerCount: 2
Fore
SplineSet
636 668 m 1,0,-1
 168 0 l 1,1,-1
 15 0 l 1,2,-1
 483 668 l 1,3,-1
 636 668 l 1,0,-1
EndSplineSet
Validated: 1
EndChar

StartChar: uni2219
Encoding: 8729 8729 166
AltUni2: 00e9bc.ffffffff.0 00e9bc.ffffffff.0
Width: 277
GlyphClass: 1
Flags: W
LayerCount: 2
Fore
SplineSet
41 255 m 1,0,1
 41 296 41 296 69.5 323.5 c 128,-1,2
 98 351 98 351 139 351 c 0,3,4
 179 351 179 351 207.5 323.5 c 128,-1,5
 236 296 236 296 236 255 c 0,6,7
 236 235 236 235 228.5 217 c 128,-1,8
 221 199 221 199 207.5 185.5 c 128,-1,9
 194 172 194 172 176.5 164.5 c 128,-1,10
 159 157 159 157 139 157 c 0,11,12
 98 157 98 157 69.5 185.5 c 128,-1,13
 41 214 41 214 41 255 c 1,14,-1
 41 255 l 1,0,1
EndSplineSet
Validated: 5
EndChar

StartChar: radical
Encoding: 8730 8730 167
AltUni2: 00e9bd.ffffffff.0 00e9bd.ffffffff.0
Width: 709
GlyphClass: 1
Flags: W
LayerCount: 2
Fore
SplineSet
668 668 m 1,0,-1
 449 -162 l 1,1,-1
 293 -162 l 1,2,-1
 183 93 l 1,3,-1
 41 93 l 1,4,-1
 41 225 l 1,5,-1
 274 225 l 1,6,-1
 354 29 l 1,7,-1
 524 668 l 1,8,-1
 668 668 l 1,0,-1
EndSplineSet
Validated: 1
EndChar

StartChar: infinity
Encoding: 8734 8734 168
AltUni2: 00e9be.ffffffff.0 00e9be.ffffffff.0
Width: 749
GlyphClass: 1
Flags: W
LayerCount: 2
Fore
SplineSet
217 412 m 1,0,1
 267 412 267 412 305 390.5 c 128,-1,2
 343 369 343 369 374 336 c 1,3,4
 406 369 406 369 444 390.5 c 128,-1,5
 482 412 482 412 532 412 c 0,6,7
 569 412 569 412 601 400.5 c 128,-1,8
 633 389 633 389 657 368 c 128,-1,9
 681 347 681 347 694.5 318 c 128,-1,10
 708 289 708 289 708 255 c 0,11,12
 708 220 708 220 695 191 c 128,-1,13
 682 162 682 162 658.5 141 c 128,-1,14
 635 120 635 120 603.5 108.5 c 128,-1,15
 572 97 572 97 536 97 c 0,16,17
 482 97 482 97 443.5 120 c 128,-1,18
 405 143 405 143 374 176 c 1,19,20
 343 143 343 143 305 120 c 128,-1,21
 267 97 267 97 213 97 c 0,22,23
 177 97 177 97 145.5 108.5 c 128,-1,24
 114 120 114 120 90.5 141 c 128,-1,25
 67 162 67 162 54 191 c 128,-1,26
 41 220 41 220 41 255 c 0,27,28
 41 289 41 289 54.5 318 c 128,-1,29
 68 347 68 347 92 368 c 128,-1,30
 116 389 116 389 148 400.5 c 128,-1,31
 180 412 180 412 217 412 c 1,32,-1
 217 412 l 1,0,1
441 256 m 1,33,34
 458 235 458 235 479.5 219.5 c 128,-1,35
 501 204 501 204 529 204 c 0,36,37
 555 204 555 204 571.5 218.5 c 128,-1,38
 588 233 588 233 588 256 c 256,39,40
 588 279 588 279 570.5 292.5 c 128,-1,41
 553 306 553 306 527 306 c 256,42,43
 501 306 501 306 479.5 291 c 128,-1,44
 458 276 458 276 441 256 c 1,45,-1
 441 256 l 1,33,34
220 204 m 1,46,47
 248 204 248 204 269.5 219.5 c 128,-1,48
 291 235 291 235 308 256 c 1,49,50
 291 276 291 276 269.5 291 c 128,-1,51
 248 306 248 306 222 306 c 256,52,53
 196 306 196 306 178.5 292.5 c 128,-1,54
 161 279 161 279 161 256 c 256,55,56
 161 233 161 233 177.5 218.5 c 128,-1,57
 194 204 194 204 220 204 c 1,58,-1
 220 204 l 1,46,47
EndSplineSet
Validated: 5
EndChar

StartChar: uni03A9
Encoding: 937 937 169
AltUni2: 00e9b4.ffffffff.0 00e9b4.ffffffff.0
Width: 668
GlyphClass: 1
Flags: W
LayerCount: 2
Fore
SplineSet
178 115 m 1,0,-1
 178 139 l 1,1,2
 116 178 116 178 78.5 243 c 128,-1,3
 41 308 41 308 41 386 c 0,4,5
 41 447 41 447 64 500.5 c 128,-1,6
 87 554 87 554 127 594 c 128,-1,7
 167 634 167 634 220 657 c 128,-1,8
 273 680 273 680 334 680 c 256,9,10
 395 680 395 680 448.5 657 c 128,-1,11
 502 634 502 634 541.5 594 c 128,-1,12
 581 554 581 554 604 500.5 c 128,-1,13
 627 447 627 447 627 386 c 0,14,15
 627 308 627 308 589.5 243 c 128,-1,16
 552 178 552 178 490 139 c 1,17,-1
 490 115 l 1,18,-1
 627 115 l 1,19,-1
 627 0 l 1,20,-1
 359 0 l 1,21,-1
 359 223 l 1,22,23
 390 228 390 228 417 243 c 128,-1,24
 444 258 444 258 463.5 280.5 c 128,-1,25
 483 303 483 303 494 331.5 c 128,-1,26
 505 360 505 360 505 392 c 0,27,28
 505 428 505 428 491.5 459 c 128,-1,29
 478 490 478 490 455 513.5 c 128,-1,30
 432 537 432 537 400.5 550.5 c 128,-1,31
 369 564 369 564 334 564 c 0,32,33
 298 564 298 564 267 550.5 c 128,-1,34
 236 537 236 537 212.5 513.5 c 128,-1,35
 189 490 189 490 175.5 459 c 128,-1,36
 162 428 162 428 162 392 c 0,37,38
 162 360 162 360 173.5 331.5 c 128,-1,39
 185 303 185 303 204.5 280.5 c 128,-1,40
 224 258 224 258 251 243 c 128,-1,41
 278 228 278 228 309 223 c 1,42,-1
 309 0 l 1,43,-1
 41 0 l 1,44,-1
 41 115 l 1,45,-1
 178 115 l 1,46,-1
 178 115 l 1,0,-1
EndSplineSet
Validated: 5
EndChar

StartChar: estimated
Encoding: 8494 8494 170
AltUni2: 00e9b5.ffffffff.0 00e9b5.ffffffff.0
Width: 604
GlyphClass: 1
Flags: W
LayerCount: 2
Fore
SplineSet
41 249 m 1,0,1
 41 303 41 303 61.5 350.5 c 128,-1,2
 82 398 82 398 117.5 433.5 c 128,-1,3
 153 469 153 469 201 489.5 c 128,-1,4
 249 510 249 510 303 510 c 256,5,6
 357 510 357 510 404 489.5 c 128,-1,7
 451 469 451 469 486.5 433.5 c 128,-1,8
 522 398 522 398 542.5 350.5 c 128,-1,9
 563 303 563 303 563 249 c 1,10,-1
 178 249 l 1,11,-1
 178 104 l 1,12,13
 203 82 203 82 235 70 c 128,-1,14
 267 58 267 58 303 58 c 0,15,16
 347 58 347 58 385.5 77 c 128,-1,17
 424 96 424 96 450 128 c 1,18,-1
 518 103 l 1,19,20
 483 51 483 51 426.5 19.5 c 128,-1,21
 370 -12 370 -12 303 -12 c 0,22,23
 249 -12 249 -12 201 8.5 c 128,-1,24
 153 29 153 29 117.5 64.5 c 128,-1,25
 82 100 82 100 61.5 147.5 c 128,-1,26
 41 195 41 195 41 249 c 1,27,-1
 41 249 l 1,0,1
178 315 m 1,28,-1
 426 315 l 1,29,-1
 426 394 l 1,30,31
 401 416 401 416 369.5 428 c 128,-1,32
 338 440 338 440 303 440 c 0,33,34
 267 440 267 440 235 428 c 128,-1,35
 203 416 203 416 178 394 c 1,36,-1
 178 315 l 1,37,-1
 178 315 l 1,28,-1
EndSplineSet
Validated: 5
EndChar

StartChar: partialdiff
Encoding: 8706 8706 171
AltUni2: 00e9b6.ffffffff.0 00e9b6.ffffffff.0
Width: 597
GlyphClass: 1
Flags: W
LayerCount: 2
Fore
SplineSet
41 212 m 1,0,1
 41 258 41 258 58.5 298.5 c 128,-1,2
 76 339 76 339 106.5 369.5 c 128,-1,3
 137 400 137 400 178 417.5 c 128,-1,4
 219 435 219 435 265 435 c 0,5,6
 300 435 300 435 328 427.5 c 128,-1,7
 356 420 356 420 378 408.5 c 128,-1,8
 400 397 400 397 416 383 c 128,-1,9
 432 369 432 369 442 356 c 1,10,11
 439 403 439 403 424.5 442 c 128,-1,12
 410 481 410 481 379 509 c 128,-1,13
 348 537 348 537 297.5 550.5 c 128,-1,14
 247 564 247 564 172 560 c 1,15,-1
 172 680 l 1,16,17
 197 680 197 680 235 679.5 c 128,-1,18
 273 679 273 679 316 670 c 128,-1,19
 359 661 359 661 401.5 640 c 128,-1,20
 444 619 444 619 478.5 578.5 c 128,-1,21
 513 538 513 538 534.5 474 c 128,-1,22
 556 410 556 410 556 315 c 0,23,24
 556 271 556 271 551 228 c 128,-1,25
 546 185 546 185 529 143 c 0,26,27
 510 97 510 97 482 67 c 128,-1,28
 454 37 454 37 422 19.5 c 128,-1,29
 390 2 390 2 355.5 -5 c 128,-1,30
 321 -12 321 -12 289 -12 c 0,31,32
 239 -12 239 -12 194 2.5 c 128,-1,33
 149 17 149 17 115 45 c 128,-1,34
 81 73 81 73 61 115 c 128,-1,35
 41 157 41 157 41 212 c 1,36,-1
 41 212 l 1,0,1
296 107 m 1,37,38
 317 107 317 107 336 115 c 128,-1,39
 355 123 355 123 369 137.5 c 128,-1,40
 383 152 383 152 391 171 c 128,-1,41
 399 190 399 190 399 211 c 0,42,43
 399 233 399 233 391 252 c 128,-1,44
 383 271 383 271 369 285 c 128,-1,45
 355 299 355 299 336 307 c 128,-1,46
 317 315 317 315 296 315 c 256,47,48
 275 315 275 315 256 307 c 128,-1,49
 237 299 237 299 222.5 285 c 128,-1,50
 208 271 208 271 200 252 c 128,-1,51
 192 233 192 233 192 211 c 0,52,53
 192 190 192 190 200 171 c 128,-1,54
 208 152 208 152 222.5 137.5 c 128,-1,55
 237 123 237 123 256 115 c 128,-1,56
 275 107 275 107 296 107 c 1,57,-1
 296 107 l 1,37,38
EndSplineSet
Validated: 37
EndChar

StartChar: uni0394
Encoding: 916 916 172
AltUni2: 00e9b7.ffffffff.0 00e9b7.ffffffff.0
Width: 715
GlyphClass: 1
Flags: W
LayerCount: 2
Fore
SplineSet
674 0 m 1,0,-1
 41 0 l 1,1,-1
 357 680 l 1,2,-1
 674 0 l 1,0,-1
229 115 m 1,3,-1
 485 115 l 1,4,-1
 357 418 l 1,5,-1
 229 115 l 1,3,-1
EndSplineSet
Validated: 1
EndChar

StartChar: product
Encoding: 8719 8719 173
AltUni2: 00e9b8.ffffffff.0 00e9b8.ffffffff.0
Width: 614
GlyphClass: 1
Flags: W
LayerCount: 2
Fore
SplineSet
41 668 m 1,0,-1
 573 668 l 1,1,-1
 573 -161 l 1,2,-1
 445 -161 l 1,3,-1
 445 552 l 1,4,-1
 169 552 l 1,5,-1
 169 -161 l 1,6,-1
 41 -161 l 1,7,-1
 41 668 l 1,0,-1
EndSplineSet
Validated: 1
EndChar

StartChar: pi
Encoding: 960 960 174
AltUni2: 00e9a0.ffffffff.0 00e9a0.ffffffff.0
Width: 671
GlyphClass: 1
Flags: W
LayerCount: 2
Fore
SplineSet
41 380 m 1,0,-1
 41 496 l 1,1,-1
 630 496 l 1,2,-1
 630 380 l 1,3,-1
 542 380 l 1,4,-1
 542 151 l 2,5,6
 542 122 542 122 553.5 113.5 c 128,-1,7
 565 105 565 105 597 105 c 2,8,-1
 630 105 l 1,9,-1
 630 0 l 1,10,-1
 552 0 l 2,11,12
 514 0 514 0 487.5 4.5 c 128,-1,13
 461 9 461 9 444.5 22 c 128,-1,14
 428 35 428 35 421 58 c 128,-1,15
 414 81 414 81 414 118 c 2,16,-1
 414 380 l 1,17,-1
 260 380 l 1,18,-1
 260 0 l 1,19,-1
 132 0 l 1,20,-1
 132 380 l 1,21,-1
 41 380 l 1,22,-1
 41 380 l 1,0,-1
EndSplineSet
Validated: 5
EndChar

StartChar: hungarumlaut
Encoding: 733 733 175
AltUni2: 00e9c5.ffffffff.0 00e9c5.ffffffff.0
Width: 490
GlyphClass: 1
Flags: W
LayerCount: 2
Fore
SplineSet
37 574 m 1,0,-1
 146 707 l 2,1,2
 148 708 148 708 157.5 717.5 c 128,-1,3
 167 727 167 727 189 727 c 0,4,5
 213 727 213 727 229 711 c 128,-1,6
 245 695 245 695 245 671 c 0,7,8
 245 645 245 645 226 629 c 2,9,-1
 151 574 l 1,10,-1
 37 574 l 1,11,-1
 37 574 l 1,0,-1
239 574 m 1,12,-1
 348 707 l 2,13,14
 350 708 350 708 359.5 717.5 c 128,-1,15
 369 727 369 727 391 727 c 0,16,17
 415 727 415 727 431 711 c 128,-1,18
 447 695 447 695 447 671 c 0,19,20
 447 645 447 645 428 629 c 2,21,-1
 353 574 l 1,22,-1
 239 574 l 1,23,-1
 239 574 l 1,12,-1
EndSplineSet
Validated: 5
Substitution2: "'case' Case-Sensitive Forms lookup 1 subtable" hungarumlaut.case
EndChar

StartChar: tilde
Encoding: 732 732 176
AltUni2: 00e99f.ffffffff.0 00e99f.ffffffff.0
Width: 444
GlyphClass: 1
Flags: W
LayerCount: 2
Fore
SplineSet
162 689 m 1,0,1
 186 689 186 689 202.5 682.5 c 128,-1,2
 219 676 219 676 232.5 668.5 c 128,-1,3
 246 661 246 661 258.5 654.5 c 128,-1,4
 271 648 271 648 286 648 c 0,5,6
 300 648 300 648 309.5 653 c 128,-1,7
 319 658 319 658 329 669 c 0,8,9
 347 689 347 689 365 689 c 0,10,11
 391 689 391 689 402.5 669 c 128,-1,12
 414 649 414 649 401 626 c 0,13,14
 385 598 385 598 354.5 583.5 c 128,-1,15
 324 569 324 569 292 569 c 0,16,17
 256 569 256 569 224 585 c 0,18,19
 206 594 206 594 195.5 600 c 128,-1,20
 185 606 185 606 172 607 c 0,21,22
 154 608 154 608 141.5 599.5 c 128,-1,23
 129 591 129 591 126 574 c 1,24,-1
 37 574 l 1,25,26
 46 629 46 629 77 659 c 128,-1,27
 108 689 108 689 162 689 c 1,28,-1
 162 689 l 1,0,1
EndSplineSet
Validated: 37
Substitution2: "'case' Case-Sensitive Forms lookup 1 subtable" tilde.case
EndChar

StartChar: endash
Encoding: 8211 8211 177
Width: 508
GlyphClass: 1
Flags: W
LayerCount: 2
Fore
SplineSet
41 185 m 1,0,-1
 41 313 l 1,1,-1
 467 313 l 1,2,-1
 467 185 l 1,3,-1
 41 185 l 1,0,-1
EndSplineSet
Validated: 1
EndChar

StartChar: emdash
Encoding: 8212 8212 178
Width: 842
GlyphClass: 1
Flags: W
LayerCount: 2
Fore
SplineSet
41 185 m 1,0,-1
 41 313 l 1,1,-1
 801 313 l 1,2,-1
 801 185 l 1,3,-1
 41 185 l 1,0,-1
EndSplineSet
Validated: 1
EndChar

StartChar: trademark
Encoding: 8482 8482 179
AltUni2: 00e9b3.ffffffff.0 00e9b3.ffffffff.0
Width: 935
GlyphClass: 1
Flags: W
LayerCount: 2
Fore
SplineSet
41 668 m 1,0,-1
 391 668 l 1,1,-1
 391 575 l 1,2,-1
 271 575 l 1,3,-1
 271 301 l 1,4,-1
 162 301 l 1,5,-1
 162 575 l 1,6,-1
 41 575 l 1,7,-1
 41 668 l 1,0,-1
588 668 m 1,8,-1
 654 432 l 1,9,-1
 721 668 l 1,10,-1
 894 668 l 1,11,-1
 894 301 l 1,12,-1
 787 301 l 1,13,-1
 787 558 l 1,14,-1
 703 301 l 1,15,-1
 606 301 l 1,16,-1
 522 558 l 1,17,-1
 522 301 l 1,18,-1
 415 301 l 1,19,-1
 415 668 l 1,20,-1
 588 668 l 1,8,-1
EndSplineSet
Validated: 1
EndChar

StartChar: dotlessi
Encoding: 305 305 180
AltUni2: 00e98d.ffffffff.0 00e98d.ffffffff.0
Width: 301
GlyphClass: 1
Flags: W
LayerCount: 2
Fore
SplineSet
271 496 m 1,0,-1
 271 0 l 1,1,-1
 118 0 l 1,2,-1
 118 381 l 1,3,-1
 24 381 l 1,4,-1
 24 496 l 1,5,-1
 271 496 l 1,0,-1
EndSplineSet
Validated: 1
EndChar

StartChar: Euro
Encoding: 8364 8364 181
AltUni2: 00e9b1.ffffffff.0 00e9b1.ffffffff.0
Width: 728
GlyphClass: 1
Flags: W
LayerCount: 2
Fore
SplineSet
81 440 m 1,0,-1
 141 440 l 1,1,2
 167 552 167 552 244 616 c 128,-1,3
 321 680 321 680 436 680 c 0,4,5
 522 680 522 680 585.5 638 c 128,-1,6
 649 596 649 596 684 525 c 1,7,-1
 555 478 l 1,8,9
 535 516 535 516 501.5 533 c 128,-1,10
 468 550 468 550 431 550 c 0,11,12
 386 550 386 550 351 521.5 c 128,-1,13
 316 493 316 493 298 440 c 1,14,-1
 484 440 l 1,15,-1
 443 366 l 1,16,-1
 283 366 l 1,17,18
 282 358 282 358 281.5 350 c 128,-1,19
 281 342 281 342 281 334 c 256,20,21
 281 326 281 326 281.5 319 c 128,-1,22
 282 312 282 312 282 305 c 1,23,-1
 409 305 l 1,24,-1
 369 231 l 1,25,-1
 296 231 l 1,26,27
 314 175 314 175 350 146.5 c 128,-1,28
 386 118 386 118 433 118 c 0,29,30
 468 118 468 118 503.5 133 c 128,-1,31
 539 148 539 148 559 189 c 1,32,-1
 687 142 l 1,33,34
 651 70 651 70 585 29 c 128,-1,35
 519 -12 519 -12 432 -12 c 0,36,37
 315 -12 315 -12 239.5 52 c 128,-1,38
 164 116 164 116 140 231 c 1,39,-1
 42 231 l 1,40,-1
 82 305 l 1,41,-1
 131 305 l 1,42,-1
 131 366 l 1,43,-1
 41 366 l 1,44,-1
 81 440 l 1,45,-1
 81 440 l 1,0,-1
EndSplineSet
Validated: 5
EndChar

StartChar: uni2113
Encoding: 8467 8467 182
AltUni2: 00e9b2.ffffffff.0 00e9b2.ffffffff.0
Width: 504
GlyphClass: 1
Flags: W
LayerCount: 2
Fore
SplineSet
106 265 m 1,0,-1
 106 452 l 2,1,2
 106 514 106 514 120 557.5 c 128,-1,3
 134 601 134 601 159 628 c 128,-1,4
 184 655 184 655 219 667.5 c 128,-1,5
 254 680 254 680 297 680 c 0,6,7
 375 680 375 680 419 641.5 c 128,-1,8
 463 603 463 603 463 532 c 0,9,10
 463 492 463 492 448 458 c 128,-1,11
 433 424 433 424 407 392.5 c 128,-1,12
 381 361 381 361 345.5 331.5 c 128,-1,13
 310 302 310 302 268 272 c 2,14,-1
 257 264 l 1,15,-1
 257 191 l 2,16,17
 257 146 257 146 272 128 c 128,-1,18
 287 110 287 110 319 110 c 0,19,20
 342 110 342 110 361.5 119 c 128,-1,21
 381 128 381 128 398 141 c 1,22,-1
 455 52 l 1,23,24
 444 42 444 42 427.5 30.5 c 128,-1,25
 411 19 411 19 389.5 9.5 c 128,-1,26
 368 0 368 0 342 -6 c 128,-1,27
 316 -12 316 -12 285 -12 c 0,28,29
 248 -12 248 -12 215 -3 c 128,-1,30
 182 6 182 6 158 26 c 128,-1,31
 134 46 134 46 120 78 c 128,-1,32
 106 110 106 110 106 157 c 1,33,-1
 41 112 l 1,34,-1
 41 218 l 1,35,-1
 106 265 l 1,36,-1
 106 265 l 1,0,-1
257 373 m 1,37,-1
 261 376 l 2,38,39
 297 403 297 403 318 441 c 128,-1,40
 339 479 339 479 339 521 c 0,41,42
 339 573 339 573 299 573 c 0,43,44
 276 573 276 573 266.5 555 c 128,-1,45
 257 537 257 537 257 501 c 2,46,-1
 257 373 l 1,47,-1
 257 373 l 1,37,-1
EndSplineSet
Validated: 5
EndChar

StartChar: Lslash
Encoding: 321 321 183
AltUni2: 00e98e.ffffffff.0 00e98e.ffffffff.0
Width: 586
GlyphClass: 1
Flags: W
LayerCount: 2
Fore
SplineSet
13 178 m 1,0,-1
 13 300 l 1,1,-1
 93 347 l 1,2,-1
 93 668 l 1,3,-1
 251 668 l 1,4,-1
 251 441 l 1,5,-1
 411 538 l 1,6,-1
 411 416 l 1,7,-1
 251 321 l 1,8,-1
 251 139 l 1,9,-1
 571 139 l 1,10,-1
 571 0 l 1,11,-1
 93 0 l 1,12,-1
 93 226 l 1,13,-1
 13 178 l 1,0,-1
EndSplineSet
Validated: 1
EndChar

StartChar: lslash
Encoding: 322 322 184
AltUni2: 00e98f.ffffffff.0 00e98f.ffffffff.0
Width: 322
GlyphClass: 1
Flags: W
LayerCount: 2
Fore
SplineSet
5 195 m 1,0,-1
 5 317 l 1,1,-1
 59 349 l 1,2,-1
 59 668 l 1,3,-1
 212 668 l 1,4,-1
 212 440 l 1,5,-1
 319 505 l 1,6,-1
 319 383 l 1,7,-1
 212 319 l 1,8,-1
 212 179 l 2,9,10
 212 145 212 145 225.5 134.5 c 128,-1,11
 239 124 239 124 277 124 c 2,12,-1
 319 124 l 1,13,-1
 319 0 l 1,14,-1
 224 0 l 2,15,16
 178 0 178 0 146.5 5.5 c 128,-1,17
 115 11 115 11 95.5 26 c 128,-1,18
 76 41 76 41 67.5 68.5 c 128,-1,19
 59 96 59 96 59 139 c 2,20,-1
 59 228 l 1,21,-1
 5 195 l 1,22,-1
 5 195 l 1,0,-1
EndSplineSet
Validated: 5
EndChar

StartChar: oslash
Encoding: 248 248 185
AltUni2: 00e985.ffffffff.0 00e985.ffffffff.0
Width: 573
GlyphClass: 1
Flags: W
LayerCount: 2
Fore
SplineSet
287 510 m 1,0,1
 325 510 325 510 360.5 501.5 c 128,-1,2
 396 493 396 493 427 476 c 1,3,-1
 469 524 l 1,4,-1
 525 476 l 1,5,-1
 486 431 l 1,6,7
 515 399 515 399 532 354.5 c 128,-1,8
 549 310 549 310 549 250 c 0,9,10
 549 183 549 183 527 133.5 c 128,-1,11
 505 84 505 84 469 51.5 c 128,-1,12
 433 19 433 19 385.5 3.5 c 128,-1,13
 338 -12 338 -12 287 -12 c 0,14,15
 246 -12 246 -12 208 -2.5 c 128,-1,16
 170 7 170 7 138 27 c 1,17,-1
 92 -26 l 1,18,-1
 36 22 l 1,19,-1
 82 75 l 1,20,21
 55 107 55 107 39.5 150 c 128,-1,22
 24 193 24 193 24 250 c 0,23,24
 24 317 24 317 45.5 366 c 128,-1,25
 67 415 67 415 103.5 447 c 128,-1,26
 140 479 140 479 187.5 494.5 c 128,-1,27
 235 510 235 510 287 510 c 1,28,-1
 287 510 l 1,0,1
287 106 m 1,29,30
 333 106 333 106 363.5 139 c 128,-1,31
 394 172 394 172 394 250 c 0,32,33
 394 270 394 270 392 286 c 128,-1,34
 390 302 390 302 386 316 c 1,35,-1
 223 126 l 1,36,37
 249 106 249 106 287 106 c 1,38,-1
 287 106 l 1,29,30
185 194 m 1,39,-1
 342 377 l 1,40,41
 318 392 318 392 287 392 c 0,42,43
 265 392 265 392 245 384.5 c 128,-1,44
 225 377 225 377 210.5 360 c 128,-1,45
 196 343 196 343 187.5 316 c 128,-1,46
 179 289 179 289 179 250 c 0,47,48
 179 218 179 218 185 194 c 1,49,-1
 185 194 l 1,39,-1
EndSplineSet
Validated: 5
EndChar

StartChar: Oslash
Encoding: 216 216 186
AltUni2: 00e965.ffffffff.0 00e965.ffffffff.0
Width: 763
GlyphClass: 1
Flags: W
LayerCount: 2
Fore
SplineSet
380 679 m 1,0,1
 437 679 437 679 486.5 665.5 c 128,-1,2
 536 652 536 652 578 626 c 1,3,-1
 623 679 l 1,4,-1
 679 631 l 1,5,-1
 635 579 l 1,6,7
 680 534 680 534 704 471.5 c 128,-1,8
 728 409 728 409 728 334 c 0,9,10
 728 256 728 256 702.5 192 c 128,-1,11
 677 128 677 128 631 83 c 128,-1,12
 585 38 585 38 521 13 c 128,-1,13
 457 -12 457 -12 380 -12 c 0,14,15
 321 -12 321 -12 269.5 3 c 128,-1,16
 218 18 218 18 176 46 c 1,17,-1
 126 -12 l 1,18,-1
 70 36 l 1,19,-1
 120 95 l 1,20,21
 79 140 79 140 57 200.5 c 128,-1,22
 35 261 35 261 35 334 c 0,23,24
 35 412 35 412 60 475.5 c 128,-1,25
 85 539 85 539 131 584 c 128,-1,26
 177 629 177 629 240.5 654 c 128,-1,27
 304 679 304 679 380 679 c 1,28,-1
 380 679 l 1,0,1
380 118 m 1,29,30
 417 118 417 118 449.5 132 c 128,-1,31
 482 146 482 146 506.5 173 c 128,-1,32
 531 200 531 200 545.5 240.5 c 128,-1,33
 560 281 560 281 560 334 c 0,34,35
 560 408 560 408 532 459 c 1,36,-1
 272 157 l 1,37,38
 320 118 320 118 380 118 c 1,39,-1
 380 118 l 1,29,30
226 217 m 1,40,-1
 483 516 l 1,41,42
 461 533 461 533 435 541 c 128,-1,43
 409 549 409 549 380 549 c 0,44,45
 344 549 344 549 311.5 535 c 128,-1,46
 279 521 279 521 255 494 c 128,-1,47
 231 467 231 467 216.5 427 c 128,-1,48
 202 387 202 387 202 334 c 0,49,50
 202 299 202 299 208.5 270 c 128,-1,51
 215 241 215 241 226 217 c 1,52,-1
 226 217 l 1,40,-1
EndSplineSet
Validated: 5
EndChar

StartChar: Thorn
Encoding: 222 222 187
AltUni2: 00e96b.ffffffff.0 00e96b.ffffffff.0
Width: 623
GlyphClass: 1
Flags: W
LayerCount: 2
Fore
SplineSet
44 667 m 1,0,-1
 203 667 l 1,1,-1
 203 562 l 1,2,-1
 291 562 l 2,3,4
 356 562 356 562 411 552.5 c 128,-1,5
 466 543 466 543 506.5 518.5 c 128,-1,6
 547 494 547 494 570 451.5 c 128,-1,7
 593 409 593 409 593 343 c 0,8,9
 593 278 593 278 570 236.5 c 128,-1,10
 547 195 547 195 506.5 171 c 128,-1,11
 466 147 466 147 411 137.5 c 128,-1,12
 356 128 356 128 291 128 c 2,13,-1
 203 128 l 1,14,-1
 203 0 l 1,15,-1
 44 0 l 1,16,-1
 44 667 l 1,17,-1
 44 667 l 1,0,-1
203 425 m 1,18,-1
 203 269 l 1,19,-1
 296 269 l 2,20,21
 323 269 323 269 346.5 271.5 c 128,-1,22
 370 274 370 274 388 282 c 128,-1,23
 406 290 406 290 416 305.5 c 128,-1,24
 426 321 426 321 426 346 c 0,25,26
 426 373 426 373 416 388.5 c 128,-1,27
 406 404 406 404 388 412 c 128,-1,28
 370 420 370 420 346.5 422.5 c 128,-1,29
 323 425 323 425 296 425 c 2,30,-1
 203 425 l 1,31,-1
 203 425 l 1,18,-1
EndSplineSet
Validated: 5
EndChar

StartChar: ae
Encoding: 230 230 189
AltUni2: 00e973.ffffffff.0 00e973.ffffffff.0
Width: 878
GlyphClass: 1
Flags: W
LayerCount: 2
Fore
SplineSet
19 135 m 1,0,1
 19 166 19 166 32.5 195.5 c 128,-1,2
 46 225 46 225 83 248.5 c 128,-1,3
 120 272 120 272 184 286 c 128,-1,4
 248 300 248 300 348 300 c 1,5,-1
 348 329 l 2,6,7
 348 372 348 372 326.5 389.5 c 128,-1,8
 305 407 305 407 265 407 c 0,9,10
 233 407 233 407 210 392.5 c 128,-1,11
 187 378 187 378 179 348 c 1,12,-1
 51 394 l 1,13,14
 76 444 76 444 134 477 c 128,-1,15
 192 510 192 510 278 510 c 0,16,17
 331 510 331 510 372 499 c 128,-1,18
 413 488 413 488 442 462 c 1,19,20
 510 510 510 510 600 510 c 0,21,22
 662 510 662 510 711 487.5 c 128,-1,23
 760 465 760 465 793.5 425.5 c 128,-1,24
 827 386 827 386 843.5 330.5 c 128,-1,25
 860 275 860 275 856 209 c 1,26,-1
 488 209 l 1,27,28
 490 183 490 183 500 163.5 c 128,-1,29
 510 144 510 144 526 131.5 c 128,-1,30
 542 119 542 119 561.5 112.5 c 128,-1,31
 581 106 581 106 602 106 c 0,32,33
 638 106 638 106 663.5 116 c 128,-1,34
 689 126 689 126 704 143 c 1,35,-1
 824 99 l 1,36,37
 785 41 785 41 726.5 14.5 c 128,-1,38
 668 -12 668 -12 607 -12 c 0,39,40
 541 -12 541 -12 489 8.5 c 128,-1,41
 437 29 437 29 400 67 c 1,42,43
 395 62 395 62 391 57 c 128,-1,44
 387 52 387 52 382 47 c 0,45,46
 350 15 350 15 298.5 -0.5 c 128,-1,47
 247 -16 247 -16 190 -11 c 0,48,49
 155 -8 155 -8 124 2.5 c 128,-1,50
 93 13 93 13 69.5 31 c 128,-1,51
 46 49 46 49 32.5 75 c 128,-1,52
 19 101 19 101 19 135 c 1,53,-1
 19 135 l 1,0,1
487 299 m 1,54,-1
 714 299 l 1,55,56
 712 347 712 347 680.5 371.5 c 128,-1,57
 649 396 649 396 604 396 c 0,58,59
 562 396 562 396 528 373 c 128,-1,60
 494 350 494 350 487 299 c 1,61,-1
 487 299 l 1,54,-1
176 148 m 1,62,63
 176 124 176 124 196 107.5 c 128,-1,64
 216 91 216 91 246 91 c 0,65,66
 269 91 269 91 288 96.5 c 128,-1,67
 307 102 307 102 321 115.5 c 128,-1,68
 335 129 335 129 343 151.5 c 128,-1,69
 351 174 351 174 351 208 c 2,70,-1
 351 209 l 1,71,72
 268 210 268 210 222 198.5 c 128,-1,73
 176 187 176 187 176 148 c 1,74,-1
 176 148 l 1,62,63
EndSplineSet
Validated: 37
EndChar

StartChar: eth
Encoding: 240 240 190
AltUni2: 00e97d.ffffffff.0 00e97d.ffffffff.0
Width: 585
GlyphClass: 1
Flags: W
LayerCount: 2
Fore
SplineSet
253 452 m 1,0,1
 303 452 303 452 336.5 439 c 128,-1,2
 370 426 370 426 396 403 c 1,3,4
 395 449 395 449 379 485 c 128,-1,5
 363 521 363 521 334 547 c 1,6,-1
 271 483 l 1,7,-1
 223 530 l 1,8,-1
 276 583 l 1,9,10
 228 604 228 604 163 604 c 1,11,-1
 163 726 l 1,12,13
 229 726 229 726 279.5 713.5 c 128,-1,14
 330 701 330 701 370 678 c 1,15,-1
 426 734 l 1,16,-1
 474 686 l 1,17,-1
 426 639 l 1,18,19
 429 637 429 637 432 634 c 128,-1,20
 435 631 435 631 437 629 c 0,21,22
 504 562 504 562 529 486 c 128,-1,23
 554 410 554 410 554 318 c 0,24,25
 554 249 554 249 538.5 188.5 c 128,-1,26
 523 128 523 128 490.5 83.5 c 128,-1,27
 458 39 458 39 407.5 13.5 c 128,-1,28
 357 -12 357 -12 286 -12 c 0,29,30
 229 -12 229 -12 181 4.5 c 128,-1,31
 133 21 133 21 98 51 c 128,-1,32
 63 81 63 81 43.5 124 c 128,-1,33
 24 167 24 167 24 220 c 0,34,35
 24 271 24 271 43 313.5 c 128,-1,36
 62 356 62 356 93.5 386.5 c 128,-1,37
 125 417 125 417 166.5 434.5 c 128,-1,38
 208 452 208 452 253 452 c 1,39,-1
 253 452 l 1,0,1
286 101 m 1,40,41
 335 101 335 101 364.5 133.5 c 128,-1,42
 394 166 394 166 394 220 c 256,43,44
 394 274 394 274 364 306 c 128,-1,45
 334 338 334 338 286 338 c 0,46,47
 236 338 236 338 208 305 c 128,-1,48
 180 272 180 272 180 220 c 0,49,50
 180 166 180 166 208 133.5 c 128,-1,51
 236 101 236 101 286 101 c 1,52,-1
 286 101 l 1,40,41
EndSplineSet
Validated: 5
EndChar

StartChar: thorn
Encoding: 254 254 191
AltUni2: 00e98b.ffffffff.0 00e98b.ffffffff.0
Width: 596
GlyphClass: 1
Flags: W
LayerCount: 2
Fore
SplineSet
50 668 m 1,0,-1
 202 668 l 1,1,-1
 202 428 l 1,2,3
 214 448 214 448 231.5 463.5 c 128,-1,4
 249 479 249 479 269.5 489.5 c 128,-1,5
 290 500 290 500 311.5 505 c 128,-1,6
 333 510 333 510 353 510 c 0,7,8
 401 510 401 510 441 491.5 c 128,-1,9
 481 473 481 473 510.5 439 c 128,-1,10
 540 405 540 405 556 356 c 128,-1,11
 572 307 572 307 572 247 c 0,12,13
 572 186 572 186 556 138 c 128,-1,14
 540 90 540 90 510.5 56.5 c 128,-1,15
 481 23 481 23 441 5.5 c 128,-1,16
 401 -12 401 -12 353 -12 c 0,17,18
 333 -12 333 -12 311.5 -7 c 128,-1,19
 290 -2 290 -2 269.5 8.5 c 128,-1,20
 249 19 249 19 231.5 34.5 c 128,-1,21
 214 50 214 50 202 70 c 1,22,-1
 202 -161 l 1,23,-1
 50 -161 l 1,24,-1
 50 668 l 1,25,-1
 50 668 l 1,0,-1
305 106 m 1,26,27
 327 106 327 106 347 115 c 128,-1,28
 367 124 367 124 382 142 c 128,-1,29
 397 160 397 160 405.5 186.5 c 128,-1,30
 414 213 414 213 414 247 c 256,31,32
 414 281 414 281 405.5 308 c 128,-1,33
 397 335 397 335 382 353.5 c 128,-1,34
 367 372 367 372 347 382 c 128,-1,35
 327 392 327 392 305 392 c 256,36,37
 283 392 283 392 263 384 c 128,-1,38
 243 376 243 376 228 359 c 128,-1,39
 213 342 213 342 204 315.5 c 128,-1,40
 195 289 195 289 195 251 c 0,41,42
 195 174 195 174 227.5 140 c 128,-1,43
 260 106 260 106 305 106 c 1,44,-1
 305 106 l 1,26,27
EndSplineSet
Validated: 5
EndChar

StartChar: uni02C9
Encoding: 713 713 192
Width: 373
GlyphClass: 1
Flags: W
LayerCount: 2
Fore
SplineSet
37 550 m 1,0,-1
 37 648 l 1,1,-1
 336 648 l 1,2,-1
 336 550 l 1,3,-1
 37 550 l 1,0,-1
EndSplineSet
Validated: 1
EndChar

StartChar: breve.case
Encoding: 65546 -1 194
Width: 330
GlyphClass: 1
Flags: W
LayerCount: 2
Fore
SplineSet
111 851 m 1,0,1
 115 835 115 835 130.5 821.5 c 128,-1,2
 146 808 146 808 169 808 c 256,3,4
 192 808 192 808 208 821.5 c 128,-1,5
 224 835 224 835 228 851 c 1,6,-1
 313 851 l 1,7,8
 309 826 309 826 296 804 c 128,-1,9
 283 782 283 782 263.5 765.5 c 128,-1,10
 244 749 244 749 220 740 c 128,-1,11
 196 731 196 731 169 731 c 256,12,13
 142 731 142 731 118 740 c 128,-1,14
 94 749 94 749 75 765.5 c 128,-1,15
 56 782 56 782 43.5 804 c 128,-1,16
 31 826 31 826 26 851 c 1,17,-1
 111 851 l 1,18,-1
 111 851 l 1,0,1
EndSplineSet
Validated: 5
EndChar

StartChar: tilde.case
Encoding: 65548 -1 196
Width: 366
GlyphClass: 1
Flags: W
LayerCount: 2
Fore
SplineSet
123 849 m 1,0,1
 147 849 147 849 163.5 842.5 c 128,-1,2
 180 836 180 836 193.5 828.5 c 128,-1,3
 207 821 207 821 219.5 814.5 c 128,-1,4
 232 808 232 808 247 808 c 0,5,6
 261 808 261 808 270.5 813 c 128,-1,7
 280 818 280 818 290 829 c 0,8,9
 308 849 308 849 326 849 c 0,10,11
 352 849 352 849 363.5 829 c 128,-1,12
 375 809 375 809 362 786 c 0,13,14
 346 758 346 758 315.5 743.5 c 128,-1,15
 285 729 285 729 253 729 c 0,16,17
 217 729 217 729 185 745 c 0,18,19
 167 754 167 754 156.5 760 c 128,-1,20
 146 766 146 766 133 767 c 0,21,22
 115 768 115 768 102.5 759.5 c 128,-1,23
 90 751 90 751 87 734 c 1,24,-1
 -2 734 l 1,25,26
 7 789 7 789 38 819 c 128,-1,27
 69 849 69 849 123 849 c 1,28,-1
 123 849 l 1,0,1
EndSplineSet
Validated: 37
EndChar

StartChar: multiply
Encoding: 215 215 198
AltUni2: 00e964.ffffffff.0 00e964.ffffffff.0
Width: 539
GlyphClass: 1
Flags: W
LayerCount: 2
Fore
SplineSet
359 248 m 1,0,-1
 495 112 l 1,1,-1
 404 22 l 1,2,-1
 270 158 l 1,3,-1
 135 22 l 1,4,-1
 44 112 l 1,5,-1
 180 248 l 1,6,-1
 41 385 l 1,7,-1
 132 476 l 1,8,-1
 270 337 l 1,9,-1
 407 476 l 1,10,-1
 498 385 l 1,11,-1
 359 248 l 1,0,-1
EndSplineSet
Validated: 1
EndChar

StartChar: divide
Encoding: 247 247 199
AltUni2: 00e984.ffffffff.0 00e984.ffffffff.0
Width: 594
GlyphClass: 1
Flags: W
LayerCount: 2
Fore
SplineSet
218 431 m 1,0,1
 218 464 218 464 241.5 487 c 128,-1,2
 265 510 265 510 297 510 c 256,3,4
 329 510 329 510 352.5 487 c 128,-1,5
 376 464 376 464 376 431 c 256,6,7
 376 398 376 398 352.5 374.5 c 128,-1,8
 329 351 329 351 297 351 c 256,9,10
 265 351 265 351 241.5 374.5 c 128,-1,11
 218 398 218 398 218 431 c 1,12,-1
 218 431 l 1,0,1
297 147 m 1,13,14
 329 147 329 147 352.5 123.5 c 128,-1,15
 376 100 376 100 376 68 c 0,16,17
 376 35 376 35 352.5 11.5 c 128,-1,18
 329 -12 329 -12 297 -12 c 256,19,20
 265 -12 265 -12 241.5 11.5 c 128,-1,21
 218 35 218 35 218 68 c 0,22,23
 218 100 218 100 241.5 123.5 c 128,-1,24
 265 147 265 147 297 147 c 1,25,-1
 297 147 l 1,13,14
553 314 m 1,26,-1
 553 186 l 1,27,-1
 41 186 l 1,28,-1
 41 314 l 1,29,-1
 553 314 l 1,26,-1
EndSplineSet
Validated: 5
EndChar

StartChar: OE
Encoding: 338 338 200
AltUni2: 00e990.ffffffff.0 00e990.ffffffff.0
Width: 1061
GlyphClass: 1
Flags: W
LayerCount: 2
Fore
SplineSet
381 680 m 1,0,1
 483 680 483 680 561 637 c 1,2,-1
 561 668 l 1,3,-1
 1039 668 l 1,4,-1
 1039 528 l 1,5,-1
 683 528 l 1,6,-1
 683 413 l 1,7,-1
 901 413 l 1,8,-1
 901 275 l 1,9,-1
 683 275 l 1,10,-1
 683 139 l 1,11,-1
 1039 139 l 1,12,-1
 1039 0 l 1,13,-1
 561 0 l 1,14,-1
 561 31 l 1,15,16
 483 -12 483 -12 381 -12 c 0,17,18
 304 -12 304 -12 240.5 12.5 c 128,-1,19
 177 37 177 37 131 82.5 c 128,-1,20
 85 128 85 128 60 192 c 128,-1,21
 35 256 35 256 35 334 c 256,22,23
 35 412 35 412 60 476 c 128,-1,24
 85 540 85 540 131 585 c 128,-1,25
 177 630 177 630 240.5 655 c 128,-1,26
 304 680 304 680 381 680 c 1,27,-1
 381 680 l 1,0,1
381 118 m 1,28,29
 418 118 418 118 450.5 132 c 128,-1,30
 483 146 483 146 507.5 173 c 128,-1,31
 532 200 532 200 546.5 240.5 c 128,-1,32
 561 281 561 281 561 334 c 256,33,34
 561 387 561 387 546.5 427.5 c 128,-1,35
 532 468 532 468 507.5 495 c 128,-1,36
 483 522 483 522 450.5 535.5 c 128,-1,37
 418 549 418 549 381 549 c 0,38,39
 345 549 345 549 312.5 535.5 c 128,-1,40
 280 522 280 522 255.5 495 c 128,-1,41
 231 468 231 468 216.5 427.5 c 128,-1,42
 202 387 202 387 202 334 c 256,43,44
 202 281 202 281 216.5 240.5 c 128,-1,45
 231 200 231 200 255.5 173 c 128,-1,46
 280 146 280 146 312.5 132 c 128,-1,47
 345 118 345 118 381 118 c 1,48,-1
 381 118 l 1,28,29
EndSplineSet
Validated: 5
EndChar

StartChar: oe
Encoding: 339 339 201
AltUni2: 00e991.ffffffff.0 00e991.ffffffff.0
Width: 937
GlyphClass: 1
Flags: W
LayerCount: 2
Fore
SplineSet
287 510 m 1,0,1
 340 510 340 510 389 493 c 128,-1,2
 438 476 438 476 475 441 c 1,3,4
 511 474 511 474 558.5 492 c 128,-1,5
 606 510 606 510 660 510 c 0,6,7
 722 510 722 510 770.5 487.5 c 128,-1,8
 819 465 819 465 852.5 425 c 128,-1,9
 886 385 886 385 902.5 330 c 128,-1,10
 919 275 919 275 915 209 c 1,11,-1
 547 209 l 1,12,13
 549 183 549 183 559.5 163.5 c 128,-1,14
 570 144 570 144 585.5 131.5 c 128,-1,15
 601 119 601 119 620.5 112.5 c 128,-1,16
 640 106 640 106 661 106 c 0,17,18
 698 106 698 106 723 116 c 128,-1,19
 748 126 748 126 763 143 c 1,20,-1
 884 99 l 1,21,22
 845 41 845 41 786.5 14.5 c 128,-1,23
 728 -12 728 -12 666 -12 c 0,24,25
 545 -12 545 -12 473 55 c 1,26,27
 436 20 436 20 387.5 4 c 128,-1,28
 339 -12 339 -12 287 -12 c 256,29,30
 235 -12 235 -12 187.5 3.5 c 128,-1,31
 140 19 140 19 103.5 51.5 c 128,-1,32
 67 84 67 84 45.5 133.5 c 128,-1,33
 24 183 24 183 24 250 c 256,34,35
 24 317 24 317 45.5 366 c 128,-1,36
 67 415 67 415 103.5 447 c 128,-1,37
 140 479 140 479 187.5 494.5 c 128,-1,38
 235 510 235 510 287 510 c 1,39,-1
 287 510 l 1,0,1
287 106 m 1,40,41
 333 106 333 106 363.5 139 c 128,-1,42
 394 172 394 172 394 250 c 0,43,44
 394 289 394 289 385.5 316 c 128,-1,45
 377 343 377 343 362.5 360 c 128,-1,46
 348 377 348 377 328.5 384.5 c 128,-1,47
 309 392 309 392 287 392 c 256,48,49
 265 392 265 392 245 384.5 c 128,-1,50
 225 377 225 377 210.5 360 c 128,-1,51
 196 343 196 343 187.5 316 c 128,-1,52
 179 289 179 289 179 250 c 0,53,54
 179 172 179 172 209.5 139 c 128,-1,55
 240 106 240 106 287 106 c 1,56,-1
 287 106 l 1,40,41
547 299 m 1,57,-1
 773 299 l 1,58,59
 772 347 772 347 740.5 371.5 c 128,-1,60
 709 396 709 396 664 396 c 0,61,62
 621 396 621 396 587.5 373 c 128,-1,63
 554 350 554 350 547 299 c 1,64,-1
 547 299 l 1,57,-1
EndSplineSet
Validated: 37
EndChar

StartChar: Aring
Encoding: 197 197 205
Width: 690
GlyphClass: 1
Flags: W
LayerCount: 2
Fore
SplineSet
345 861 m 1,0,1
 372 861 372 861 396.5 850.5 c 128,-1,2
 421 840 421 840 439 822 c 128,-1,3
 457 804 457 804 467.5 780 c 128,-1,4
 478 756 478 756 478 729 c 256,5,6
 478 702 478 702 467.5 677.5 c 128,-1,7
 457 653 457 653 439 635 c 128,-1,8
 421 617 421 617 396.5 606.5 c 128,-1,9
 372 596 372 596 345 596 c 256,10,11
 318 596 318 596 294 606.5 c 128,-1,12
 270 617 270 617 252 635 c 128,-1,13
 234 653 234 653 223.5 677.5 c 128,-1,14
 213 702 213 702 213 729 c 256,15,16
 213 756 213 756 223.5 780 c 128,-1,17
 234 804 234 804 252 822 c 128,-1,18
 270 840 270 840 294 850.5 c 128,-1,19
 318 861 318 861 345 861 c 1,20,-1
 345 861 l 1,21,-1
 345 861 l 1,0,1
298 729 m 1,22,23
 298 709 298 709 311.5 695.5 c 128,-1,24
 325 682 325 682 345 682 c 256,25,26
 365 682 365 682 378.5 695.5 c 128,-1,27
 392 709 392 709 392 729 c 256,28,29
 392 749 392 749 378.5 762.5 c 128,-1,30
 365 776 365 776 345 776 c 256,31,32
 325 776 325 776 311.5 762.5 c 128,-1,33
 298 749 298 749 298 729 c 1,34,-1
 298 729 l 1,35,-1
 298 729 l 1,22,23
432 668 m 1,36,-1
 685 0 l 1,37,-1
 513 0 l 1,38,-1
 473 119 l 1,39,-1
 217 119 l 1,40,-1
 177 0 l 1,41,-1
 5 0 l 1,42,-1
 258 668 l 1,43,-1
 432 668 l 1,36,-1
430 247 m 1,44,-1
 344 501 l 1,45,-1
 260 247 l 1,46,-1
 430 247 l 1,44,-1
EndSplineSet
Validated: 5
EndChar

StartChar: Ccedilla
Encoding: 199 199 213
Width: 681
GlyphClass: 1
Flags: W
LayerCount: 2
Fore
SplineSet
266 -124 m 1,0,1
 274 -129 274 -129 291.5 -133 c 128,-1,2
 309 -137 309 -137 327 -137 c 256,3,4
 345 -137 345 -137 358 -131 c 128,-1,5
 371 -125 371 -125 371 -110 c 0,6,7
 371 -98 371 -98 361 -91 c 128,-1,8
 351 -84 351 -84 334 -84 c 0,9,10
 322 -84 322 -84 307 -89 c 0,11,12
 298 -92 298 -92 290 -87 c 0,13,14
 282 -83 282 -83 279.5 -75 c 128,-1,15
 277 -67 277 -67 282 -59 c 2,16,-1
 334 25 l 1,17,-1
 375 0 l 1,18,-1
 345 -48 l 1,19,20
 359 -45 359 -45 379 -45 c 0,21,22
 393 -45 393 -45 408.5 -48 c 128,-1,23
 424 -51 424 -51 436.5 -58.5 c 128,-1,24
 449 -66 449 -66 457 -78 c 128,-1,25
 465 -90 465 -90 465 -107 c 0,26,27
 465 -129 465 -129 454 -144 c 128,-1,28
 443 -159 443 -159 425.5 -168.5 c 128,-1,29
 408 -178 408 -178 385 -182.5 c 128,-1,30
 362 -187 362 -187 338 -187 c 256,31,32
 314 -187 314 -187 291.5 -183.5 c 128,-1,33
 269 -180 269 -180 250 -174 c 1,34,-1
 250 -174 l 1,35,-1
 266 -124 l 1,0,1
373 680 m 1,36,37
 468 680 468 680 538.5 638 c 128,-1,38
 609 596 609 596 647 525 c 1,39,-1
 507 474 l 1,40,41
 484 515 484 515 446.5 532.5 c 128,-1,42
 409 550 409 550 368 550 c 0,43,44
 333 550 333 550 303 535.5 c 128,-1,45
 273 521 273 521 250.5 493 c 128,-1,46
 228 465 228 465 215 425 c 128,-1,47
 202 385 202 385 202 334 c 0,48,49
 202 282 202 282 215 241.5 c 128,-1,50
 228 201 228 201 250.5 173.5 c 128,-1,51
 273 146 273 146 303.5 132 c 128,-1,52
 334 118 334 118 370 118 c 0,53,54
 389 118 389 118 409 121.5 c 128,-1,55
 429 125 429 125 448 133.5 c 128,-1,56
 467 142 467 142 483.5 156.5 c 128,-1,57
 500 171 500 171 512 193 c 1,58,-1
 651 142 l 1,59,60
 610 70 610 70 537 29 c 128,-1,61
 464 -12 464 -12 369 -12 c 0,62,63
 291 -12 291 -12 229 12 c 128,-1,64
 167 36 167 36 124 81 c 128,-1,65
 81 126 81 126 58 190 c 128,-1,66
 35 254 35 254 35 334 c 0,67,68
 35 413 35 413 58.5 477 c 128,-1,69
 82 541 82 541 126 586 c 128,-1,70
 170 631 170 631 232.5 655.5 c 128,-1,71
 295 680 295 680 373 680 c 1,72,-1
 373 680 l 1,73,-1
 373 680 l 1,36,37
EndSplineSet
Validated: 5
EndChar

StartChar: ccedilla
Encoding: 231 231 214
Width: 520
GlyphClass: 1
Flags: W
LayerCount: 2
Fore
SplineSet
182 -123 m 1,0,1
 190 -128 190 -128 207.5 -132 c 128,-1,2
 225 -136 225 -136 243 -136 c 256,3,4
 261 -136 261 -136 274 -130 c 128,-1,5
 287 -124 287 -124 287 -109 c 0,6,7
 287 -97 287 -97 277 -90 c 128,-1,8
 267 -83 267 -83 250 -83 c 0,9,10
 238 -83 238 -83 223 -88 c 0,11,12
 214 -91 214 -91 206 -86 c 0,13,14
 198 -82 198 -82 195.5 -74 c 128,-1,15
 193 -66 193 -66 198 -58 c 2,16,-1
 250 26 l 1,17,-1
 291 1 l 1,18,-1
 261 -47 l 1,19,20
 275 -44 275 -44 295 -44 c 0,21,22
 309 -44 309 -44 324.5 -47 c 128,-1,23
 340 -50 340 -50 352.5 -57.5 c 128,-1,24
 365 -65 365 -65 373 -77 c 128,-1,25
 381 -89 381 -89 381 -106 c 0,26,27
 381 -128 381 -128 370 -143 c 128,-1,28
 359 -158 359 -158 341.5 -167.5 c 128,-1,29
 324 -177 324 -177 301 -181.5 c 128,-1,30
 278 -186 278 -186 254 -186 c 256,31,32
 230 -186 230 -186 207.5 -182.5 c 128,-1,33
 185 -179 185 -179 166 -173 c 1,34,-1
 166 -173 l 1,35,-1
 182 -123 l 1,0,1
278 510 m 1,36,37
 310 510 310 510 342.5 503.5 c 128,-1,38
 375 497 375 497 404.5 482 c 128,-1,39
 434 467 434 467 459.5 442 c 128,-1,40
 485 417 485 417 502 380 c 1,41,-1
 375 334 l 1,42,43
 363 366 363 366 339.5 379 c 128,-1,44
 316 392 316 392 287 392 c 0,45,46
 266 392 266 392 246.5 384.5 c 128,-1,47
 227 377 227 377 212 360.5 c 128,-1,48
 197 344 197 344 188 316.5 c 128,-1,49
 179 289 179 289 179 250 c 0,50,51
 179 210 179 210 188.5 182 c 128,-1,52
 198 154 198 154 213 137.5 c 128,-1,53
 228 121 228 121 247.5 113.5 c 128,-1,54
 267 106 267 106 287 106 c 0,55,56
 319 106 319 106 341 118.5 c 128,-1,57
 363 131 363 131 376 153 c 1,58,-1
 500 108 l 1,59,60
 481 74 481 74 455 51 c 128,-1,61
 429 28 429 28 399.5 14 c 128,-1,62
 370 0 370 0 339 -6 c 128,-1,63
 308 -12 308 -12 278 -12 c 0,64,65
 217 -12 217 -12 169.5 7 c 128,-1,66
 122 26 122 26 89.5 60.5 c 128,-1,67
 57 95 57 95 40.5 143.5 c 128,-1,68
 24 192 24 192 24 251 c 256,69,70
 24 310 24 310 42.5 357.5 c 128,-1,71
 61 405 61 405 94.5 439 c 128,-1,72
 128 473 128 473 174.5 491.5 c 128,-1,73
 221 510 221 510 278 510 c 1,74,-1
 278 510 l 1,75,-1
 278 510 l 1,36,37
EndSplineSet
Validated: 5
EndChar

StartChar: Eth
Encoding: 208 208 231
Width: 769
GlyphClass: 1
Flags: W
LayerCount: 2
Fore
SplineSet
13 275 m 1,0,-1
 13 412 l 1,1,-1
 131 412 l 1,2,-1
 131 668 l 1,3,-1
 351 668 l 2,4,5
 433 668 433 668 503.5 651.5 c 128,-1,6
 574 635 574 635 626 596 c 128,-1,7
 678 557 678 557 708 493 c 128,-1,8
 738 429 738 429 738 334 c 0,9,10
 738 238 738 238 708 174 c 128,-1,11
 678 110 678 110 626 71.5 c 128,-1,12
 574 33 574 33 503.5 16.5 c 128,-1,13
 433 0 433 0 351 0 c 2,14,-1
 131 0 l 1,15,-1
 131 275 l 1,16,-1
 13 275 l 1,17,-1
 13 275 l 1,0,-1
289 275 m 1,18,-1
 289 133 l 1,19,-1
 354 133 l 2,20,21
 397 133 397 133 437 139.5 c 128,-1,22
 477 146 477 146 507.5 167.5 c 128,-1,23
 538 189 538 189 556.5 228.5 c 128,-1,24
 575 268 575 268 575 334 c 256,25,26
 575 400 575 400 556.5 440 c 128,-1,27
 538 480 538 480 507.5 501.5 c 128,-1,28
 477 523 477 523 437 530 c 128,-1,29
 397 537 397 537 354 537 c 2,30,-1
 289 537 l 1,31,-1
 289 412 l 1,32,-1
 366 412 l 1,33,-1
 366 275 l 1,34,-1
 289 275 l 1,35,-1
 289 275 l 1,18,-1
EndSplineSet
Validated: 5
EndChar

StartChar: one.tf
Encoding: 65551 -1 233
Width: 632
GlyphClass: 1
Flags: W
LayerCount: 2
Fore
SplineSet
101 448 m 1,0,-1
 101 571 l 1,1,2
 140 571 140 571 169.5 573.5 c 128,-1,3
 199 576 199 576 221 586 c 128,-1,4
 243 596 243 596 259.5 615 c 128,-1,5
 276 634 276 634 289 668 c 1,6,-1
 404 668 l 1,7,-1
 404 124 l 1,8,-1
 532 124 l 1,9,-1
 532 0 l 1,10,-1
 101 0 l 1,11,-1
 101 124 l 1,12,-1
 253 124 l 1,13,-1
 253 448 l 1,14,-1
 101 448 l 1,15,-1
 101 448 l 1,0,-1
EndSplineSet
Validated: 5
Substitution2: "'pnum' Proportional Numbers lookup 4 subtable" one
EndChar

StartChar: ogonek.case
Encoding: 65560 -1 242
Width: 263
GlyphClass: 1
Flags: W
LayerCount: 2
Fore
SplineSet
113 0 m 1,0,-1
 254 0 l 1,1,2
 239 -2 239 -2 222.5 -8 c 128,-1,3
 206 -14 206 -14 192 -23 c 128,-1,4
 178 -32 178 -32 168.5 -43.5 c 128,-1,5
 159 -55 159 -55 159 -68 c 0,6,7
 159 -86 159 -86 173.5 -92 c 128,-1,8
 188 -98 188 -98 205 -98 c 0,9,10
 220 -98 220 -98 234 -94.5 c 128,-1,11
 248 -91 248 -91 254 -89 c 1,12,-1
 254 -164 l 1,13,14
 248 -166 248 -166 238.5 -167.5 c 128,-1,15
 229 -169 229 -169 218 -170.5 c 128,-1,16
 207 -172 207 -172 195.5 -173 c 128,-1,17
 184 -174 184 -174 175 -174 c 0,18,19
 135 -174 135 -174 107.5 -165.5 c 128,-1,20
 80 -157 80 -157 63.5 -144 c 128,-1,21
 47 -131 47 -131 40 -115 c 128,-1,22
 33 -99 33 -99 33 -85 c 0,23,24
 33 -68 33 -68 40 -54 c 128,-1,25
 47 -40 47 -40 58.5 -29.5 c 128,-1,26
 70 -19 70 -19 84 -12 c 128,-1,27
 98 -5 98 -5 113 0 c 1,28,-1
 113 0 l 1,0,-1
EndSplineSet
Validated: 5
EndChar

StartChar: eogonek
Encoding: 281 281 246
Width: 566
GlyphClass: 1
Flags: W
LayerCount: 2
Fore
SplineSet
290 510 m 1,0,1
 351 510 351 510 400 487.5 c 128,-1,2
 449 465 449 465 482 425.5 c 128,-1,3
 515 386 515 386 531.5 331 c 128,-1,4
 548 276 548 276 544 210 c 1,5,-1
 177 210 l 1,6,7
 179 184 179 184 189.5 164.5 c 128,-1,8
 200 145 200 145 215.5 132 c 128,-1,9
 231 119 231 119 251 112.5 c 128,-1,10
 271 106 271 106 292 106 c 0,11,12
 327 106 327 106 352.5 116 c 128,-1,13
 378 126 378 126 392 143 c 1,14,-1
 513 99 l 1,15,16
 491 67 491 67 462 44.5 c 128,-1,17
 433 22 433 22 400 8 c 0,18,19
 366 -9 366 -9 339 -27.5 c 128,-1,20
 312 -46 312 -46 312 -68 c 0,21,22
 312 -86 312 -86 326.5 -92 c 128,-1,23
 341 -98 341 -98 358 -98 c 0,24,25
 373 -98 373 -98 387 -94.5 c 128,-1,26
 401 -91 401 -91 407 -89 c 1,27,-1
 407 -164 l 1,28,29
 401 -166 401 -166 391.5 -167.5 c 128,-1,30
 382 -169 382 -169 371 -170.5 c 128,-1,31
 360 -172 360 -172 348.5 -173 c 128,-1,32
 337 -174 337 -174 328 -174 c 0,33,34
 288 -174 288 -174 260.5 -165.5 c 128,-1,35
 233 -157 233 -157 216.5 -144 c 128,-1,36
 200 -131 200 -131 193 -115 c 128,-1,37
 186 -99 186 -99 186 -85 c 0,38,39
 186 -57 186 -57 203.5 -38 c 128,-1,40
 221 -19 221 -19 244 -8 c 1,41,42
 195 -1 195 -1 154 20 c 128,-1,43
 113 41 113 41 84.5 74 c 128,-1,44
 56 107 56 107 40 151.5 c 128,-1,45
 24 196 24 196 24 251 c 0,46,47
 24 310 24 310 45 358 c 128,-1,48
 66 406 66 406 102.5 440 c 128,-1,49
 139 474 139 474 187.5 492 c 128,-1,50
 236 510 236 510 290 510 c 1,51,-1
 290 510 l 1,0,1
177 300 m 1,52,-1
 403 300 l 1,53,54
 401 348 401 348 370 372.5 c 128,-1,55
 339 397 339 397 294 397 c 0,56,57
 251 397 251 397 217.5 374 c 128,-1,58
 184 351 184 351 177 300 c 1,59,-1
 177 300 l 1,52,-1
EndSplineSet
Validated: 37
EndChar

StartChar: uni0326
Encoding: 806 806 252
Width: 0
GlyphClass: 4
Flags: W
LayerCount: 2
Fore
SplineSet
-256 -206 m 1,0,1
 -208 -206 -208 -206 -181 -190 c 128,-1,2
 -154 -174 -154 -174 -154 -145 c 0,3,4
 -154 -124 -154 -124 -173.5 -108 c 128,-1,5
 -193 -92 -193 -92 -222 -85 c 1,6,-1
 -120 -45 l 1,7,8
 -73 -64 -73 -64 -54.5 -89 c 128,-1,9
 -36 -114 -36 -114 -36 -141 c 0,10,11
 -36 -188 -36 -188 -79.5 -219.5 c 128,-1,12
 -123 -251 -123 -251 -204 -251 c 1,13,-1
 -256 -206 l 1,14,-1
 -256 -206 l 1,0,1
EndSplineSet
Validated: 5
EndChar

StartChar: Hbar
Encoding: 294 294 257
Width: 740
GlyphClass: 1
Flags: W
LayerCount: 2
Fore
SplineSet
75 594 m 1,0,-1
 75 668 l 1,1,-1
 233 668 l 1,2,-1
 233 594 l 1,3,-1
 508 594 l 1,4,-1
 508 668 l 1,5,-1
 666 668 l 1,6,-1
 665 594 l 1,7,-1
 725 594 l 1,8,-1
 725 496 l 1,9,-1
 666 496 l 1,10,-1
 666 0 l 1,11,-1
 508 0 l 1,12,-1
 508 274 l 1,13,-1
 233 274 l 1,14,-1
 233 0 l 1,15,-1
 75 0 l 1,16,-1
 75 496 l 1,17,-1
 15 496 l 1,18,-1
 15 594 l 1,19,-1
 75 594 l 1,0,-1
233 496 m 1,20,-1
 233 413 l 1,21,-1
 508 413 l 1,22,-1
 508 496 l 1,23,-1
 233 496 l 1,20,-1
EndSplineSet
Validated: 1
EndChar

StartChar: hbar
Encoding: 295 295 258
Width: 590
GlyphClass: 1
Flags: W
LayerCount: 2
Fore
SplineSet
220 555 m 1,0,-1
 220 430 l 1,1,2
 228 444 228 444 242.5 458 c 128,-1,3
 257 472 257 472 276.5 483.5 c 128,-1,4
 296 495 296 495 320.5 502.5 c 128,-1,5
 345 510 345 510 373 510 c 0,6,7
 421 510 421 510 453 496.5 c 128,-1,8
 485 483 485 483 504.5 456.5 c 128,-1,9
 524 430 524 430 532 391 c 128,-1,10
 540 352 540 352 540 302 c 2,11,-1
 540 0 l 1,12,-1
 388 0 l 1,13,-1
 388 264 l 2,14,15
 388 290 388 290 386.5 313.5 c 128,-1,16
 385 337 385 337 377.5 354.5 c 128,-1,17
 370 372 370 372 354.5 382 c 128,-1,18
 339 392 339 392 312 392 c 0,19,20
 264 392 264 392 242 357.5 c 128,-1,21
 220 323 220 323 220 255 c 2,22,-1
 220 0 l 1,23,-1
 68 0 l 1,24,-1
 68 555 l 1,25,-1
 -26 555 l 1,26,-1
 -26 633 l 1,27,-1
 68 633 l 1,28,-1
 68 698 l 1,29,-1
 220 698 l 1,30,-1
 220 633 l 1,31,-1
 343 633 l 1,32,-1
 343 555 l 1,33,-1
 220 555 l 1,34,-1
 220 555 l 1,0,-1
EndSplineSet
Validated: 5
EndChar

StartChar: uni0123
Encoding: 291 291 259
Width: 597
GlyphClass: 1
Flags: W
LayerCount: 2
Fore
SplineSet
434 523 m 1,0,1
 434 523 434 523 434 523 c 129,-1,2
 434 523 434 523 434 523 c 257,3,4
 434 523 434 523 434 523 c 129,-1,5
 434 523 434 523 434 523 c 1,6,-1
 434 523 l 1,7,8
 434 523 434 523 434 523 c 129,-1,9
 434 523 434 523 434 523 c 257,10,11
 434 523 434 523 434 523 c 129,-1,12
 434 523 434 523 434 523 c 1,13,-1
 434 523 l 1,14,-1
 434 523 l 1,15,-1
 434 523 l 1,0,1
415 496 m 1,16,-1
 546 496 l 1,17,-1
 546 37 l 2,18,19
 546 -26 546 -26 528.5 -71 c 128,-1,20
 511 -116 511 -116 478 -145.5 c 128,-1,21
 445 -175 445 -175 398 -189 c 128,-1,22
 351 -203 351 -203 293 -203 c 0,23,24
 262 -203 262 -203 230.5 -197.5 c 128,-1,25
 199 -192 199 -192 169.5 -178.5 c 128,-1,26
 140 -165 140 -165 115 -142 c 128,-1,27
 90 -119 90 -119 73 -85 c 1,28,-1
 197 -40 l 1,29,30
 211 -67 211 -67 237 -77 c 128,-1,31
 263 -87 263 -87 289 -87 c 0,32,33
 335 -87 335 -87 365 -65.5 c 128,-1,34
 395 -44 395 -44 395 7 c 2,35,-1
 395 96 l 1,36,37
 363 56 363 56 321.5 37 c 128,-1,38
 280 18 280 18 238 18 c 0,39,40
 198 18 198 18 159.5 34.5 c 128,-1,41
 121 51 121 51 91 82 c 128,-1,42
 61 113 61 113 42.5 157.5 c 128,-1,43
 24 202 24 202 24 259 c 0,44,45
 24 324 24 324 42 371.5 c 128,-1,46
 60 419 60 419 89.5 450 c 128,-1,47
 119 481 119 481 156.5 496 c 128,-1,48
 194 511 194 511 233 511 c 0,49,50
 281 511 281 511 323.5 490 c 128,-1,51
 366 469 366 469 395 428 c 1,52,-1
 395 428 l 1,53,-1
 415 496 l 1,16,-1
292 136 m 1,54,55
 314 136 314 136 334 142 c 128,-1,56
 354 148 354 148 369 163 c 128,-1,57
 384 178 384 178 392.5 202.5 c 128,-1,58
 401 227 401 227 401 263 c 256,59,60
 401 299 401 299 392.5 324 c 128,-1,61
 384 349 384 349 369 364 c 128,-1,62
 354 379 354 379 334 385.5 c 128,-1,63
 314 392 314 392 292 392 c 0,64,65
 247 392 247 392 214.5 362 c 128,-1,66
 182 332 182 332 182 267 c 0,67,68
 182 201 182 201 214.5 168.5 c 128,-1,69
 247 136 247 136 292 136 c 1,70,-1
 292 136 l 1,71,-1
 292 136 l 1,54,55
EndSplineSet
Validated: 5
EndChar

StartChar: caron.salt
Encoding: 65561 -1 262
Width: 205
GlyphClass: 1
Flags: W
LayerCount: 2
Fore
SplineSet
64 641 m 1,0,1
 68 664 68 664 85.5 676 c 128,-1,2
 103 688 103 688 120 688 c 0,3,4
 146 688 146 688 160.5 669.5 c 128,-1,5
 175 651 175 651 175 631 c 0,6,7
 175 622 175 622 172 614 c 2,8,-1
 120 496 l 1,9,-1
 40 496 l 1,10,-1
 64 641 l 1,11,-1
 64 641 l 1,0,1
EndSplineSet
Validated: 5
EndChar

StartChar: dcroat
Encoding: 273 273 268
Width: 593
GlyphClass: 1
Flags: W
LayerCount: 2
Fore
SplineSet
243 510 m 1,0,1
 263 510 263 510 285 505 c 128,-1,2
 307 500 307 500 327 489.5 c 128,-1,3
 347 479 347 479 364.5 464 c 128,-1,4
 382 449 382 449 394 428 c 1,5,-1
 394 555 l 1,6,-1
 243 555 l 1,7,-1
 243 633 l 1,8,-1
 394 633 l 1,9,-1
 394 698 l 1,10,-1
 546 698 l 1,11,-1
 546 633 l 1,12,-1
 612 633 l 1,13,-1
 612 555 l 1,14,-1
 546 555 l 1,15,-1
 546 194 l 2,16,17
 546 156 546 156 549 105.5 c 128,-1,18
 552 55 552 55 563 0 c 1,19,-1
 418 0 l 1,20,-1
 398 67 l 1,21,22
 366 24 366 24 325 6 c 128,-1,23
 284 -12 284 -12 243 -12 c 0,24,25
 195 -12 195 -12 155 6.5 c 128,-1,26
 115 25 115 25 85.5 59.5 c 128,-1,27
 56 94 56 94 40 142.5 c 128,-1,28
 24 191 24 191 24 252 c 256,29,30
 24 313 24 313 40 361 c 128,-1,31
 56 409 56 409 85.5 442 c 128,-1,32
 115 475 115 475 155 492.5 c 128,-1,33
 195 510 195 510 243 510 c 1,34,-1
 243 510 l 1,0,1
292 106 m 1,35,36
 314 106 314 106 334 114 c 128,-1,37
 354 122 354 122 369 139 c 128,-1,38
 384 156 384 156 392.5 183 c 128,-1,39
 401 210 401 210 401 249 c 0,40,41
 401 287 401 287 392.5 314 c 128,-1,42
 384 341 384 341 369 358.5 c 128,-1,43
 354 376 354 376 334 384 c 128,-1,44
 314 392 314 392 292 392 c 0,45,46
 247 392 247 392 214.5 356.5 c 128,-1,47
 182 321 182 321 182 252 c 256,48,49
 182 183 182 183 214.5 144.5 c 128,-1,50
 247 106 247 106 292 106 c 1,51,-1
 292 106 l 1,35,36
EndSplineSet
Validated: 5
EndChar

StartChar: aogonek
Encoding: 261 261 287
Width: 548
GlyphClass: 1
Flags: W
LayerCount: 2
Fore
SplineSet
515 0 m 1,0,1
 498 -9 498 -9 481 -17 c 128,-1,2
 464 -25 464 -25 450.5 -33.5 c 128,-1,3
 437 -42 437 -42 428.5 -50.5 c 128,-1,4
 420 -59 420 -59 420 -68 c 0,5,6
 420 -86 420 -86 434.5 -92 c 128,-1,7
 449 -98 449 -98 466 -98 c 0,8,9
 481 -98 481 -98 495 -94.5 c 128,-1,10
 509 -91 509 -91 515 -89 c 1,11,-1
 515 -164 l 1,12,13
 509 -166 509 -166 499.5 -167.5 c 128,-1,14
 490 -169 490 -169 479 -170.5 c 128,-1,15
 468 -172 468 -172 456.5 -173 c 128,-1,16
 445 -174 445 -174 436 -174 c 0,17,18
 396 -174 396 -174 368.5 -165.5 c 128,-1,19
 341 -157 341 -157 324.5 -144 c 128,-1,20
 308 -131 308 -131 301 -115 c 128,-1,21
 294 -99 294 -99 294 -85 c 0,22,23
 294 -68 294 -68 301 -54 c 128,-1,24
 308 -40 308 -40 319.5 -29.5 c 128,-1,25
 331 -19 331 -19 345 -12 c 128,-1,26
 359 -5 359 -5 374 0 c 1,27,-1
 374 0 l 1,28,-1
 515 0 l 1,0,1
19 134 m 1,29,30
 19 179 19 179 43.5 210.5 c 128,-1,31
 68 242 68 242 111.5 262 c 128,-1,32
 155 282 155 282 215.5 293.5 c 128,-1,33
 276 305 276 305 348 310 c 1,34,-1
 348 329 l 2,35,36
 348 372 348 372 326.5 389.5 c 128,-1,37
 305 407 305 407 265 407 c 0,38,39
 233 407 233 407 210 392.5 c 128,-1,40
 187 378 187 378 179 348 c 1,41,-1
 51 394 l 1,42,43
 76 444 76 444 134 477 c 128,-1,44
 192 510 192 510 278 510 c 0,45,46
 331 510 331 510 372 499 c 128,-1,47
 413 488 413 488 441 463 c 128,-1,48
 469 438 469 438 483.5 398.5 c 128,-1,49
 498 359 498 359 498 303 c 2,50,-1
 498 194 l 2,51,52
 498 170 498 170 499.5 142.5 c 128,-1,53
 501 115 501 115 503 89 c 128,-1,54
 505 63 505 63 508 39.5 c 128,-1,55
 511 16 511 16 515 0 c 1,56,-1
 374 0 l 1,57,-1
 356 60 l 1,58,59
 328 21 328 21 286 4.5 c 128,-1,60
 244 -12 244 -12 190 -12 c 0,61,62
 155 -12 155 -12 124 -2 c 128,-1,63
 93 8 93 8 69.5 27 c 128,-1,64
 46 46 46 46 32.5 73 c 128,-1,65
 19 100 19 100 19 134 c 1,66,-1
 19 134 l 1,67,-1
 19 134 l 1,29,30
246 92 m 1,68,69
 269 92 269 92 288 97.5 c 128,-1,70
 307 103 307 103 321 116 c 128,-1,71
 335 129 335 129 343 151.5 c 128,-1,72
 351 174 351 174 351 208 c 2,73,-1
 351 220 l 1,74,75
 312 217 312 217 279.5 212 c 128,-1,76
 247 207 247 207 224 198.5 c 128,-1,77
 201 190 201 190 188.5 177.5 c 128,-1,78
 176 165 176 165 176 145 c 0,79,80
 176 121 176 121 196 106.5 c 128,-1,81
 216 92 216 92 246 92 c 1,82,-1
 246 92 l 1,83,-1
 246 92 l 1,68,69
EndSplineSet
Validated: 5
EndChar

StartChar: ugrave
Encoding: 249 249 296
Width: 570
GlyphClass: 1
Flags: W
LayerCount: 2
Fore
SplineSet
50 198 m 1,0,-1
 50 496 l 1,1,-1
 202 496 l 1,2,-1
 202 236 l 2,3,4
 202 209 202 209 203.5 185.5 c 128,-1,5
 205 162 205 162 212.5 144.5 c 128,-1,6
 220 127 220 127 235 116.5 c 128,-1,7
 250 106 250 106 278 106 c 0,8,9
 326 106 326 106 346 136 c 128,-1,10
 366 166 366 166 366 235 c 2,11,-1
 366 496 l 1,12,-1
 519 496 l 1,13,-1
 519 0 l 1,14,-1
 387 0 l 1,15,-1
 366 70 l 1,16,17
 344 33 344 33 311.5 10.5 c 128,-1,18
 279 -12 279 -12 222 -12 c 0,19,20
 173 -12 173 -12 139.5 2 c 128,-1,21
 106 16 106 16 86.5 42.5 c 128,-1,22
 67 69 67 69 58.5 108 c 128,-1,23
 50 147 50 147 50 198 c 1,24,-1
 50 198 l 1,0,-1
191 728 m 1,25,26
 212 728 212 728 229 713 c 2,27,-1
 234 708 l 2,28,29
 242 698 242 698 251 687 c 0,30,31
 259 677 259 677 268.5 665.5 c 128,-1,32
 278 654 278 654 289 641 c 0,33,34
 312 611 312 611 343 574 c 1,35,-1
 229 574 l 1,36,-1
 154 629 l 2,37,38
 145 638 145 638 140 648 c 128,-1,39
 135 658 135 658 135 672 c 0,40,41
 135 695 135 695 151.5 711.5 c 128,-1,42
 168 728 168 728 191 728 c 1,43,-1
 191 728 l 1,25,26
EndSplineSet
Validated: 5
EndChar

StartChar: Scedilla
Encoding: 350 350 324
Width: 619
GlyphClass: 1
Flags: W
LayerCount: 2
Fore
SplineSet
237 -124 m 1,0,1
 245 -129 245 -129 262.5 -133 c 128,-1,2
 280 -137 280 -137 298 -137 c 256,3,4
 316 -137 316 -137 329 -131 c 128,-1,5
 342 -125 342 -125 342 -110 c 0,6,7
 342 -98 342 -98 332 -91 c 128,-1,8
 322 -84 322 -84 305 -84 c 0,9,10
 293 -84 293 -84 278 -89 c 0,11,12
 269 -92 269 -92 261 -87 c 0,13,14
 253 -83 253 -83 250.5 -75 c 128,-1,15
 248 -67 248 -67 253 -59 c 2,16,-1
 305 25 l 1,17,-1
 346 0 l 1,18,-1
 316 -48 l 1,19,20
 330 -45 330 -45 350 -45 c 0,21,22
 364 -45 364 -45 379.5 -48 c 128,-1,23
 395 -51 395 -51 407.5 -58.5 c 128,-1,24
 420 -66 420 -66 428 -78 c 128,-1,25
 436 -90 436 -90 436 -107 c 0,26,27
 436 -129 436 -129 425 -144 c 128,-1,28
 414 -159 414 -159 396.5 -168.5 c 128,-1,29
 379 -178 379 -178 356 -182.5 c 128,-1,30
 333 -187 333 -187 309 -187 c 256,31,32
 285 -187 285 -187 262.5 -183.5 c 128,-1,33
 240 -180 240 -180 221 -174 c 1,34,-1
 221 -174 l 1,35,-1
 237 -124 l 1,0,1
169 209 m 1,36,37
 183 161 183 161 221 138 c 128,-1,38
 259 115 259 115 315 115 c 0,39,40
 336 115 336 115 357.5 118.5 c 128,-1,41
 379 122 379 122 396 130.5 c 128,-1,42
 413 139 413 139 423.5 152.5 c 128,-1,43
 434 166 434 166 434 185 c 0,44,45
 434 220 434 220 400 239 c 128,-1,46
 366 258 366 258 312 269 c 2,47,-1
 231 285 l 2,48,49
 190 293 190 293 153 307.5 c 128,-1,50
 116 322 116 322 88.5 344.5 c 128,-1,51
 61 367 61 367 44.5 398.5 c 128,-1,52
 28 430 28 430 28 473 c 0,53,54
 28 527 28 527 53.5 566 c 128,-1,55
 79 605 79 605 119.5 630.5 c 128,-1,56
 160 656 160 656 210.5 668 c 128,-1,57
 261 680 261 680 311 680 c 0,58,59
 352 680 352 680 391 672 c 128,-1,60
 430 664 430 664 464 646.5 c 128,-1,61
 498 629 498 629 524.5 601.5 c 128,-1,62
 551 574 551 574 567 535 c 1,63,-1
 424 483 l 1,64,65
 410 517 410 517 377.5 535 c 128,-1,66
 345 553 345 553 297 553 c 0,67,68
 251 553 251 553 220.5 536.5 c 128,-1,69
 190 520 190 520 190 489 c 0,70,71
 190 463 190 463 210.5 445.5 c 128,-1,72
 231 428 231 428 266 421 c 2,73,-1
 356 403 l 2,74,75
 397 395 397 395 439.5 383 c 128,-1,76
 482 371 482 371 516.5 349.5 c 128,-1,77
 551 328 551 328 573.5 294.5 c 128,-1,78
 596 261 596 261 596 209 c 0,79,80
 596 156 596 156 571.5 114.5 c 128,-1,81
 547 73 547 73 507 45 c 128,-1,82
 467 17 467 17 416.5 2.5 c 128,-1,83
 366 -12 366 -12 314 -12 c 0,84,85
 204 -12 204 -12 130 32 c 128,-1,86
 56 76 56 76 25 157 c 1,87,-1
 169 209 l 1,88,-1
 169 209 l 1,89,-1
 169 209 l 1,36,37
EndSplineSet
Validated: 5
EndChar

StartChar: scedilla
Encoding: 351 351 325
Width: 534
GlyphClass: 1
Flags: W
LayerCount: 2
Fore
SplineSet
189 -124 m 1,0,1
 197 -129 197 -129 214.5 -133 c 128,-1,2
 232 -137 232 -137 250 -137 c 256,3,4
 268 -137 268 -137 281 -131 c 128,-1,5
 294 -125 294 -125 294 -110 c 0,6,7
 294 -98 294 -98 284 -91 c 128,-1,8
 274 -84 274 -84 257 -84 c 0,9,10
 245 -84 245 -84 230 -89 c 0,11,12
 221 -92 221 -92 213 -87 c 0,13,14
 205 -83 205 -83 202.5 -75 c 128,-1,15
 200 -67 200 -67 205 -59 c 2,16,-1
 257 25 l 1,17,-1
 298 0 l 1,18,-1
 268 -48 l 1,19,20
 282 -45 282 -45 302 -45 c 0,21,22
 316 -45 316 -45 331.5 -48 c 128,-1,23
 347 -51 347 -51 359.5 -58.5 c 128,-1,24
 372 -66 372 -66 380 -78 c 128,-1,25
 388 -90 388 -90 388 -107 c 0,26,27
 388 -129 388 -129 377 -144 c 128,-1,28
 366 -159 366 -159 348.5 -168.5 c 128,-1,29
 331 -178 331 -178 308 -182.5 c 128,-1,30
 285 -187 285 -187 261 -187 c 256,31,32
 237 -187 237 -187 214.5 -183.5 c 128,-1,33
 192 -180 192 -180 173 -174 c 1,34,-1
 173 -174 l 1,35,-1
 189 -124 l 1,0,1
150 161 m 1,36,37
 161 129 161 129 192.5 114 c 128,-1,38
 224 99 224 99 267 99 c 0,39,40
 304 99 304 99 332.5 110.5 c 128,-1,41
 361 122 361 122 361 145 c 0,42,43
 361 161 361 161 344 171.5 c 128,-1,44
 327 182 327 182 284 190 c 2,45,-1
 195 205 l 2,46,47
 123 217 123 217 78 253.5 c 128,-1,48
 33 290 33 290 33 353 c 0,49,50
 33 392 33 392 51.5 421.5 c 128,-1,51
 70 451 70 451 101 470.5 c 128,-1,52
 132 490 132 490 173.5 500 c 128,-1,53
 215 510 215 510 261 510 c 0,54,55
 297 510 297 510 330.5 504 c 128,-1,56
 364 498 364 498 393 484.5 c 128,-1,57
 422 471 422 471 444.5 450 c 128,-1,58
 467 429 467 429 481 400 c 1,59,-1
 353 353 l 1,60,61
 345 380 345 380 319.5 389.5 c 128,-1,62
 294 399 294 399 260 399 c 0,63,64
 178 399 178 399 178 359 c 0,65,66
 178 344 178 344 192 334.5 c 128,-1,67
 206 325 206 325 239 319 c 2,68,-1
 331 302 l 2,69,70
 421 286 421 286 464 255 c 128,-1,71
 507 224 507 224 507 162 c 0,72,73
 507 118 507 118 487.5 85.5 c 128,-1,74
 468 53 468 53 435 31 c 128,-1,75
 402 9 402 9 358 -1.5 c 128,-1,76
 314 -12 314 -12 264 -12 c 0,77,78
 176 -12 176 -12 113 19.5 c 128,-1,79
 50 51 50 51 21 114 c 1,80,-1
 150 161 l 1,81,-1
 150 161 l 1,82,-1
 150 161 l 1,36,37
EndSplineSet
Validated: 5
EndChar

StartChar: Uogonek
Encoding: 370 370 348
Width: 657
GlyphClass: 1
Flags: W
LayerCount: 2
Fore
SplineSet
436 0 m 1,0,1
 421 -2 421 -2 404.5 -8 c 128,-1,2
 388 -14 388 -14 374 -23 c 128,-1,3
 360 -32 360 -32 350.5 -43.5 c 128,-1,4
 341 -55 341 -55 341 -68 c 0,5,6
 341 -86 341 -86 355.5 -92 c 128,-1,7
 370 -98 370 -98 387 -98 c 0,8,9
 402 -98 402 -98 416 -94.5 c 128,-1,10
 430 -91 430 -91 436 -89 c 1,11,-1
 436 -164 l 1,12,13
 430 -166 430 -166 420.5 -167.5 c 128,-1,14
 411 -169 411 -169 400 -170.5 c 128,-1,15
 389 -172 389 -172 377.5 -173 c 128,-1,16
 366 -174 366 -174 357 -174 c 0,17,18
 317 -174 317 -174 289.5 -165.5 c 128,-1,19
 262 -157 262 -157 245.5 -144 c 128,-1,20
 229 -131 229 -131 222 -115 c 128,-1,21
 215 -99 215 -99 215 -85 c 0,22,23
 215 -68 215 -68 222 -54 c 128,-1,24
 229 -40 229 -40 240.5 -29.5 c 128,-1,25
 252 -19 252 -19 266 -12 c 128,-1,26
 280 -5 280 -5 295 0 c 1,27,-1
 295 0 l 1,28,-1
 436 0 l 1,0,1
41 668 m 1,29,-1
 199 668 l 1,30,-1
 199 279 l 2,31,32
 199 242 199 242 203.5 212 c 128,-1,33
 208 182 208 182 222 161 c 128,-1,34
 236 140 236 140 261.5 128.5 c 128,-1,35
 287 117 287 117 329 117 c 0,36,37
 370 117 370 117 395.5 128.5 c 128,-1,38
 421 140 421 140 435 161 c 128,-1,39
 449 182 449 182 453.5 212 c 128,-1,40
 458 242 458 242 458 279 c 2,41,-1
 458 668 l 1,42,-1
 616 668 l 1,43,-1
 616 292 l 2,44,45
 616 215 616 215 600.5 157.5 c 128,-1,46
 585 100 585 100 550.5 62.5 c 128,-1,47
 516 25 516 25 461.5 6.5 c 128,-1,48
 407 -12 407 -12 329 -12 c 256,49,50
 251 -12 251 -12 196 6.5 c 128,-1,51
 141 25 141 25 106.5 62.5 c 128,-1,52
 72 100 72 100 56.5 157.5 c 128,-1,53
 41 215 41 215 41 292 c 1,54,-1
 41 292 l 1,55,-1
 41 668 l 1,29,-1
EndSplineSet
Validated: 5
EndChar

StartChar: uogonek
Encoding: 371 371 351
Width: 573
GlyphClass: 1
Flags: W
LayerCount: 2
Fore
SplineSet
203 496 m 1,0,-1
 203 236 l 2,1,2
 203 209 203 209 204.5 185.5 c 128,-1,3
 206 162 206 162 213.5 144.5 c 128,-1,4
 221 127 221 127 236 116.5 c 128,-1,5
 251 106 251 106 279 106 c 0,6,7
 327 106 327 106 347 136 c 128,-1,8
 367 166 367 166 367 235 c 2,9,-1
 367 496 l 1,10,-1
 520 496 l 1,11,-1
 520 0 l 1,12,13
 503 -9 503 -9 486 -17 c 128,-1,14
 469 -25 469 -25 455.5 -33.5 c 128,-1,15
 442 -42 442 -42 433.5 -50.5 c 128,-1,16
 425 -59 425 -59 425 -68 c 0,17,18
 425 -86 425 -86 439.5 -92 c 128,-1,19
 454 -98 454 -98 471 -98 c 0,20,21
 486 -98 486 -98 500 -94.5 c 128,-1,22
 514 -91 514 -91 520 -89 c 1,23,-1
 520 -164 l 1,24,25
 514 -166 514 -166 504.5 -167.5 c 128,-1,26
 495 -169 495 -169 484 -170.5 c 128,-1,27
 473 -172 473 -172 461.5 -173 c 128,-1,28
 450 -174 450 -174 441 -174 c 0,29,30
 401 -174 401 -174 373.5 -165.5 c 128,-1,31
 346 -157 346 -157 329.5 -144 c 128,-1,32
 313 -131 313 -131 306 -115 c 128,-1,33
 299 -99 299 -99 299 -85 c 0,34,35
 299 -69 299 -69 307 -54.5 c 128,-1,36
 315 -40 315 -40 328 -29 c 128,-1,37
 341 -18 341 -18 356.5 -10 c 128,-1,38
 372 -2 372 -2 387 2 c 1,39,-1
 367 70 l 1,40,41
 345 33 345 33 312.5 10.5 c 128,-1,42
 280 -12 280 -12 223 -12 c 0,43,44
 174 -12 174 -12 140.5 2 c 128,-1,45
 107 16 107 16 87.5 42.5 c 128,-1,46
 68 69 68 69 59.5 108 c 128,-1,47
 51 147 51 147 51 198 c 2,48,-1
 51 496 l 1,49,-1
 203 496 l 1,50,-1
 203 496 l 1,0,-1
EndSplineSet
Validated: 5
EndChar
